<?xml version="1.0" encoding="UTF-8"?>
<svg width="119px" height="16px" viewBox="0 0 119 16" version="1.1" xmlns="http://www.w3.org/2000/svg">
    <!-- Generator: Sketch 50.2 (55047) - http://www.bohemiancoding.com/sketch -->
    <title>Group 5</title>
    <desc>Created with Sketch.</desc>
    <defs></defs>
    <g id="Page-1" stroke="none" stroke-width="1" fill="none" fill-rule="evenodd">
        <g id="Group-5" fill="#FF3019" fill-rule="nonzero">
            <g id="logo_ALIRADAR">
                <path d="M11.7354125,15.797426 C11.563492,15.2529036 11.3842383,14.6970807 11.1870592,14.1261902 C10.9931393,13.5548812 10.7992194,12.9844093 10.6057069,12.4168672 L4.66874358,12.4168672 C4.47849024,12.9881762 4.28497775,13.5590667 4.09065046,14.1295386 C3.90080452,14.7041959 3.72155084,15.256252 3.55329682,15.797426 L0,15.797426 C0.574019172,14.1148896 1.11503937,12.5595898 1.62672715,11.1327823 C2.14248887,9.7051376 2.64317699,8.36036413 3.1369394,7.09846186 C3.62662787,5.83697813 4.10939062,4.63827561 4.58807942,3.50402846 C5.06350907,2.37019985 5.56053064,1.26190227 6.07221842,0.180391336 L9.31548785,0.180391336 C9.81576857,1.26190227 10.309531,2.37019985 10.7922937,3.50402846 C11.2783156,4.63827561 11.764745,5.83697813 12.2585074,7.09846186 C12.7518624,8.36036413 13.2529579,9.7051376 13.7683122,11.1327823 C14.2836666,12.5595898 14.8250941,14.1148896 15.3991133,15.797426 L11.7354125,15.797426 Z M7.62276275,3.71832165 C7.54576515,3.94391545 7.43617597,4.25531024 7.28625471,4.64246102 C7.13959261,5.03296013 6.97174598,5.48331066 6.78556659,5.99811656 C6.5989798,6.50873705 6.38672715,7.07251229 6.15654913,7.68818667 C5.92229716,8.30051271 5.68845258,8.94674061 5.44727491,9.62268494 L9.79417665,9.62268494 C9.56399863,8.94674061 9.33707977,8.29674584 9.11749401,7.68107147 C8.9019822,7.06497855 8.69380349,6.50162185 8.49621705,5.98681595 C8.30270455,5.47619546 8.13078398,5.02542639 7.98086272,4.63492728 C7.83460801,4.24400963 7.71361178,3.94014858 7.62276275,3.71832165 Z M28.5604074,12.7776499 L28.5604074,15.797426 L18.4036494,15.797426 L18.4036494,0.180391336 L21.8261725,0.180391336 L21.8261725,12.7776499 L28.5604074,12.7776499 Z M31.8065286,0.180391336 L35.2286443,0.180391336 L35.2286443,15.797426 L31.8065286,15.797426 L31.8065286,0.180391336 Z M44.2442896,2.59616309e-14 C46.5252927,2.59616309e-14 48.2730161,0.416867218 49.486645,1.25060165 C50.7006813,2.08433609 51.307292,3.38055875 51.307292,5.13801402 C51.307292,6.23501099 51.0624478,7.12482997 50.5723519,7.80872659 C50.0826635,8.49220467 49.3770558,9.02919326 48.4555289,9.42011091 C48.7631119,9.81061002 49.0845464,10.2571937 49.4210544,10.760699 C49.7575625,11.2637857 50.0899966,11.7898922 50.4191715,12.3381814 C50.7479391,12.8868892 51.0661143,13.4573611 51.37329,14.0512713 C51.6800582,14.6443445 51.9652345,15.2265355 52.2284115,15.797426 L48.4046046,15.797426 C48.1230948,15.2868055 47.8415851,14.7682327 47.5564088,14.2425447 C47.2675659,13.7168568 46.9750565,13.2058177 46.675214,12.7098462 C46.3753714,12.2142932 46.0755289,11.7446898 45.7834269,11.3014544 C45.4905101,10.8582191 45.1947415,10.4568379 44.9022321,10.0960552 L43.2131736,10.0960552 L43.2131736,15.797426 L39.7906505,15.797426 L39.7906505,0.4055666 C40.5365902,0.255310244 41.3077884,0.150256357 42.1050599,0.0899863974 C42.9023314,0.0301349796 43.6152722,2.57571742e-14 44.2442896,2.59616309e-14 Z M44.4418761,2.99717485 C44.1929579,2.99717485 43.970113,3.00470859 43.7725265,3.01977608 C43.5749401,3.03484357 43.3887607,3.04991106 43.2131736,3.06456001 L43.2131736,7.30145443 L44.1782917,7.30145443 C45.4652516,7.30145443 46.3863711,7.13613058 46.9424649,6.80590143 C47.4977439,6.47525374 47.7759945,5.91189704 47.7759945,5.11541279 C47.7759945,4.34948206 47.4940774,3.80495972 46.9314653,3.48184577 C46.3684457,3.15873182 45.5385827,2.99717485 44.4418761,2.99717485 Z M66.3548237,15.797426 C66.1829031,15.2529036 66.0040568,14.6970807 65.8064704,14.1261902 C65.6125505,13.5548812 65.419038,12.9844093 65.2251181,12.4168672 L59.2881547,12.4168672 C59.0979014,12.9881762 58.9043889,13.5590667 58.7100616,14.1295386 C58.5202157,14.7041959 58.340962,15.256252 58.1731154,15.797426 L54.6194112,15.797426 C55.1934303,14.1148896 55.7344505,12.5595898 56.2461383,11.1327823 C56.7619,9.7051376 57.2625882,8.36036413 57.7563506,7.09846186 C58.246039,5.83697813 58.7288018,4.63827561 59.2074906,3.50402846 C59.6829202,2.37019985 60.1799418,1.26190227 60.6916296,0.180391336 L63.934899,0.180391336 C64.4355871,1.26190227 64.9289421,2.37019985 65.4117049,3.50402846 C65.8977268,4.63827561 66.3841561,5.83697813 66.8775111,7.09846186 C67.3712735,8.36036413 67.8719617,9.7051376 68.387316,11.1327823 C68.9030777,12.5595898 69.4440979,14.1148896 70.0181171,15.797426 L66.3548237,15.797426 Z M62.2421739,3.71832165 C62.1651763,3.94391545 62.0555871,4.25531024 61.9056659,4.64246102 C61.7594112,5.03296013 61.5911571,5.48331066 61.4049777,5.99811656 C61.218391,6.50873705 61.0061383,7.07251229 60.7759603,7.68818667 C60.5417083,8.30051271 60.3078637,8.94674061 60.0666861,9.62268494 L64.4135878,9.62268494 C64.1834098,8.94674061 63.9564909,8.29674584 63.7373126,7.68107147 C63.5213934,7.06497855 63.3132147,6.50162185 63.1160356,5.98681595 C62.9221157,5.47619546 62.7501951,5.02542639 62.6002739,4.63492728 C62.4540192,4.24400963 62.3330229,3.94014858 62.2421739,3.71832165 Z M76.4455837,12.93544 C76.6065046,12.9505075 76.792684,12.9618081 77.0049367,12.9693418 C77.2167819,12.9768756 77.4689593,12.9802239 77.7614687,12.9802239 C79.4725265,12.9802239 80.7411537,12.5374071 81.5673502,11.6509365 C82.3935467,10.7644658 82.806645,9.53981375 82.806645,7.97739877 C82.806645,6.33964633 82.4114721,5.1003453 81.6223485,4.25907712 C80.8324101,3.41780894 79.5821157,2.99717485 77.8710579,2.99717485 C77.6372133,2.99717485 77.3956282,3.00094172 77.1471174,3.00847546 C76.8986066,3.01600921 76.6647621,3.03484357 76.4455837,3.06456001 L76.4455837,12.93544 Z M86.3383499,7.97739877 C86.3383499,9.32970597 86.1334303,10.5087371 85.7239986,11.5157476 C85.3145669,12.5223396 84.7332147,13.3560741 83.9799418,14.0169509 C83.2270763,14.6782463 82.3096234,15.1742179 81.227583,15.504447 C80.1451352,15.8350947 78.9315063,16 77.5858815,16 C76.9715303,16 76.2553304,15.9740504 75.436467,15.9213142 C74.6176036,15.868578 73.812999,15.7597572 73.0230606,15.5948519 L73.0230606,0.382965366 C73.812999,0.232709009 74.6355289,0.131421994 75.4910579,0.0791043214 C76.3469942,0.0263681071 77.0815269,6.21724894e-14 77.6954707,6.21724894e-14 C78.9970969,6.21724894e-14 80.1781342,0.150256357 81.2381753,0.45076907 C82.2986238,0.750863242 83.2087436,1.22423355 83.9689421,1.87046144 C84.7295481,2.5162708 85.3145669,3.34289003 85.7239986,4.34948206 C86.1334303,5.35565554 86.3383499,6.56524014 86.3383499,7.97739877 Z M99.8944094,15.797426 C99.7224889,15.2529036 99.5432352,14.6970807 99.3460561,14.1261902 C99.1521363,13.5548812 98.9582164,12.9844093 98.7647039,12.4168672 L92.8277405,12.4168672 C92.6374872,12.9881762 92.4435673,13.5590667 92.2496474,14.1295386 C92.059394,14.7041959 91.8805478,15.256252 91.7122937,15.797426 L88.1589969,15.797426 C88.7330161,14.1148896 89.2740363,12.5595898 89.7857241,11.1327823 C90.3014858,9.7051376 90.8017665,8.36036413 91.2959363,7.09846186 C91.7852174,5.83697813 92.2683875,4.63827561 92.7470763,3.50402846 C93.222506,2.37019985 93.7195276,1.26190227 94.2312153,0.180391336 L97.4740774,0.180391336 C97.9747655,1.26190227 98.4685279,2.37019985 98.9512907,3.50402846 C99.4373126,4.63827561 99.9237419,5.83697813 100.417097,7.09846186 C100.910452,8.36036413 101.411547,9.7051376 101.926902,11.1327823 C102.442256,12.5595898 102.983684,14.1148896 103.557703,15.797426 L99.8944094,15.797426 Z M95.7813523,3.71832165 C95.7047621,3.94391545 95.5947655,4.25531024 95.4448442,4.64246102 C95.2985895,5.03296013 95.1307429,5.48331066 94.9445635,5.99811656 C94.7579767,6.50873705 94.5457241,7.07251229 94.315546,7.68818667 C94.0812941,8.30051271 93.8474495,8.94674061 93.6062718,9.62268494 L97.9531736,9.62268494 C97.7225882,8.94674061 97.4960767,8.29674584 97.2764909,7.68107147 C97.0609791,7.06497855 96.852393,6.50162185 96.655214,5.98681595 C96.4617015,5.47619546 96.2897809,5.02542639 96.1398596,4.63492728 C95.9931975,4.24400963 95.8726087,3.94014858 95.7813523,3.71832165 Z M111.015878,0 C113.296881,0 115.044605,0.416867218 116.258233,1.25060165 C117.47227,2.08433609 118.078881,3.38055875 118.078881,5.13801402 C118.078881,6.23501099 117.834036,7.12482997 117.34394,7.80872659 C116.854252,8.49220467 116.148644,9.02919326 115.227117,9.42011091 C115.5347,9.81061002 115.856135,10.2571937 116.192643,10.760699 C116.529151,11.2637857 116.861585,11.7898922 117.190353,12.3381814 C117.519528,12.8868892 117.837703,13.4573611 118.144878,14.0512713 C118.451647,14.6443445 118.736823,15.2265355 119,15.797426 L115.176193,15.797426 C114.894683,15.2868055 114.613174,14.7682327 114.327997,14.2425447 C114.039154,13.7168568 113.746645,13.2058177 113.446802,12.7098462 C113.14696,12.2142932 112.847117,11.7446898 112.555015,11.3014544 C112.262099,10.8582191 111.96633,10.4568379 111.673821,10.0960552 L109.984762,10.0960552 L109.984762,15.797426 L106.562646,15.797426 L106.562646,0.4055666 C107.308586,0.255310244 108.079784,0.150256357 108.877056,0.0899863974 C109.67392,0.0301349796 110.386861,1.0966313e-15 111.015878,1.0966313e-15 Z M111.213465,2.99717485 C110.964546,2.99717485 110.741701,3.00470859 110.544115,3.01977608 C110.346529,3.03484357 110.160349,3.04991106 109.984762,3.06456001 L109.984762,7.30145443 L110.94988,7.30145443 C112.23684,7.30145443 113.15796,7.13613058 113.714053,6.80590143 C114.269332,6.47525374 114.547583,5.91189704 114.547583,5.11541279 C114.547583,4.34948206 114.265666,3.80495972 113.703054,3.48184577 C113.140034,3.15873182 112.310171,2.99717485 111.213465,2.99717485 Z" id="Shape"></path>
            </g>
        </g>
    </g>
</svg>
