<svg width="16" height="16" fill="none" xmlns="http://www.w3.org/2000/svg"><path fill-rule="evenodd" clip-rule="evenodd" d="M14.667 8A6.667 6.667 0 101.334 8a6.667 6.667 0 0013.333 0zm-1.333 0A5.333 5.333 0 102.667 8a5.333 5.333 0 0010.667 0z" fill="currentColor"/><path d="M8.337 12.333h1.106v-1.025c.925-.05 1.619-.875 1.619-1.89 0-1.036-.624-1.498-1.539-1.549v-.06c.875-.11 1.287-.503 1.287-1.418 0-.905-.503-1.528-1.367-1.669V3.667H8.337v1.025h-.674V3.667H6.557v1.025H5.552v6.616h1.005v1.025h1.106v-1.025h.674v1.025zM6.99 5.91h1.719c.382 0 .613.2.613.583v.332c0 .382-.231.583-.613.583h-1.72V5.909zm0 2.664h1.96c.382 0 .623.211.623.593v.332c0 .382-.24.593-.623.593H6.99V8.573z" fill="currentColor"/></svg>