<svg width="16" height="16" fill="none" xmlns="http://www.w3.org/2000/svg"><path fill-rule="evenodd" clip-rule="evenodd" d="M4.333 4.667a.667.667 0 100-1.334.667.667 0 000 1.334zm0 1.333a2 2 0 100-4 2 2 0 000 4zm7.334 1.333a.667.667 0 100-1.333.667.667 0 000 1.333zm0 1.334a2 2 0 100-4 2 2 0 000 4zM3.333 8a.667.667 0 00-.666.667v.666H6v-.666A.667.667 0 005.333 8h-2zm-2 .667a2 2 0 012-2h2a2 2 0 012 2v2h-6v-2zm9.334 2a.667.667 0 00-.667.666V12h3.334v-.667a.667.667 0 00-.667-.666h-2zm-2 .666a2 2 0 012-2h2a2 2 0 012 2v2h-6v-2z" fill="currentColor"/><path d="M8.667 2.667V1.333h6V4h-1.333V2.667H8.667zm-1.334 12v-1.334H2.667V12H1.334v2.667h6z" fill="currentColor"/></svg>