<svg width="16" height="16" fill="none" xmlns="http://www.w3.org/2000/svg"><path fill-rule="evenodd" clip-rule="evenodd" d="M9 8.667A2.333 2.333 0 109 4a2.333 2.333 0 000 4.667zm0-1.334a1 1 0 100-2 1 1 0 000 2z" fill="currentColor"/><path d="M6.667 11.333h4.667V10H6.667v1.333z" fill="currentColor"/><path fill-rule="evenodd" clip-rule="evenodd" d="M4 1.333h10v11.334a2 2 0 01-2 2H3.334a2 2 0 01-2-2v-4H4V1.333zM4 10H2.667v2.667a.667.667 0 101.333 0V10zm1.22 3.333H12a.667.667 0 00.667-.666v-10H5.334v10c0 .233-.04.458-.114.666z" fill="currentColor"/></svg>