<svg width="471" height="600" viewBox="0 0 471 600" fill="none" xmlns="http://www.w3.org/2000/svg">
<path d="M1 0H471V600H1V0Z" fill="white"/>
<path d="M1 357C1 355.895 1.89543 355 3 355H469C470.105 355 471 355.895 471 357V403C471 404.105 470.105 405 469 405H2.99999C1.89542 405 1 404.105 1 403V357Z" fill="#F6F6F6"/>
<path d="M26 376C26 374.895 26.8954 374 28 374H224C225.105 374 226 374.895 226 376V384C226 385.105 225.105 386 224 386H28C26.8954 386 26 385.105 26 384V376Z" fill="#E8E9EB"/>
<path d="M378 431C378 429.895 378.895 429 380 429H444C445.105 429 446 429.895 446 431V439C446 440.105 445.105 441 444 441H380C378.895 441 378 440.105 378 439V431Z" fill="#E8E9EB"/>
<circle cx="275" cy="380" r="11" fill="#E8E9EB"/>
<circle cx="307" cy="380" r="11" fill="#E8E9EB"/>
<circle cx="339" cy="380" r="11" fill="#E8E9EB"/>
<circle cx="371" cy="380" r="11" fill="#E8E9EB"/>
<circle cx="403" cy="380" r="11" fill="#E8E9EB"/>
<circle cx="435" cy="380" r="11" fill="#E8E9EB"/>
<path d="M1 355H471" stroke="black" stroke-opacity="0.2" stroke-width="0.25"/>
<path d="M1 405H471" stroke="black" stroke-opacity="0.2" stroke-width="0.25"/>
<path d="M1 258C1 256.895 1.89543 256 3 256H469C470.105 256 471 256.895 471 258V353C471 354.105 470.105 355 469 355H2.99999C1.89542 355 1 354.105 1 353V258Z" fill="#FAFAFA"/>
<path fill-rule="evenodd" clip-rule="evenodd" d="M316 309C316 306.791 317.791 305 320 305H442C444.209 305 446 306.791 446 309V331C446 333.209 444.209 335 442 335H320C317.791 335 316 333.209 316 331V309Z" fill="#E2E3E4"/>
<path fill-rule="evenodd" clip-rule="evenodd" d="M171 309C171 306.791 172.791 305 175 305H297C299.209 305 301 306.791 301 309V331C301 333.209 299.209 335 297 335H175C172.791 335 171 333.209 171 331V309Z" fill="#E2E3E4"/>
<path fill-rule="evenodd" clip-rule="evenodd" d="M26 309C26 306.791 27.7909 305 30 305H152C154.209 305 156 306.791 156 309V331C156 333.209 154.209 335 152 335H30C27.7909 335 26 333.209 26 331V309Z" fill="#E2E3E4"/>
<path d="M156 280C156 278.895 156.895 278 158 278H314C315.105 278 316 278.895 316 280V288C316 289.105 315.105 290 314 290H158C156.895 290 156 289.105 156 288V280Z" fill="#E8E9EB"/>
<path d="M26 175C26 173.895 26.8954 173 28 173H444C445.105 173 446 173.895 446 175V224C446 225.105 445.105 226 444 226H28C26.8954 226 26 225.105 26 224V175Z" fill="#F6F6F6"/>
<path d="M26 102C26 100.895 26.8954 100 28 100H444C445.105 100 446 100.895 446 102V151C446 152.105 445.105 153 444 153H28C26.8954 153 26 152.105 26 151V102Z" fill="#F6F6F6"/>
<path d="M46 118C46 116.895 46.8954 116 48 116H262C263.105 116 264 116.895 264 118V135C264 136.105 263.105 137 262 137H48C46.8954 137 46 136.105 46 135V118Z" fill="#E2E3E4"/>
<circle cx="408.5" cy="126.5" r="12.5" fill="#E2E3E4"/>
<path d="M46 191C46 189.895 46.8954 189 48 189H262C263.105 189 264 189.895 264 191V208C264 209.105 263.105 210 262 210H48C46.8954 210 46 209.105 46 208V191Z" fill="#E2E3E4"/>
<circle cx="408.5" cy="199.5" r="12.5" fill="#E2E3E4"/>
<path d="M1 40H471" stroke="black" stroke-opacity="0.2" stroke-width="0.25"/>
<rect x="1" width="470" height="40" fill="#F6F6F6"/>
<path fill-rule="evenodd" clip-rule="evenodd" d="M375.937 18.8896C375.906 18.6085 375.578 18.3972 375.295 18.3972C374.378 18.3972 373.565 17.8591 373.224 17.0269C372.875 16.1746 373.1 15.1806 373.783 14.5541C373.998 14.3575 374.024 14.0286 373.844 13.8C373.375 13.2044 372.842 12.6664 372.26 12.2001C372.032 12.0172 371.697 12.0427 371.5 12.2615C370.904 12.9216 369.833 13.167 369.005 12.8218C368.144 12.4596 367.602 11.5872 367.655 10.6507C367.672 10.3565 367.457 10.1007 367.164 10.0666C366.417 9.98019 365.663 9.97751 364.914 10.0606C364.624 10.0926 364.409 10.3424 364.419 10.6328C364.452 11.5601 363.902 12.4173 363.05 12.7664C362.232 13.1003 361.169 12.8571 360.574 12.2028C360.377 11.9873 360.048 11.9608 359.819 12.1393C359.22 12.6096 358.675 13.148 358.202 13.7387C358.017 13.9684 358.044 14.3012 358.261 14.4988C358.957 15.1291 359.182 16.1317 358.82 16.9939C358.475 17.8159 357.622 18.3456 356.645 18.3456C356.327 18.3355 356.102 18.5483 356.067 18.8366C355.979 19.5878 355.978 20.3533 356.063 21.1107C356.094 21.3931 356.432 21.6025 356.718 21.6025C357.589 21.5802 358.425 22.1194 358.776 22.9728C359.126 23.8252 358.901 24.8186 358.217 25.4456C358.003 25.6421 357.976 25.9706 358.156 26.1991C358.621 26.7909 359.154 27.3295 359.738 27.7996C359.967 27.9843 360.301 27.9582 360.499 27.7394C361.097 27.0776 362.168 26.8327 362.992 27.1786C363.855 27.5396 364.398 28.412 364.345 29.349C364.328 29.6433 364.544 29.8995 364.836 29.9332C365.218 29.9777 365.602 30 365.988 30C366.354 30 366.72 29.9799 367.086 29.9392C367.376 29.9072 367.591 29.6575 367.581 29.3665C367.547 28.4398 368.098 27.5826 368.949 27.234C369.772 26.8979 370.831 27.1439 371.426 27.7975C371.623 28.0125 371.95 28.0385 372.18 27.8606C372.779 27.3915 373.323 26.8535 373.798 26.2611C373.983 26.032 373.957 25.6986 373.738 25.5011C373.042 24.8708 372.817 23.868 373.178 23.0064C373.518 22.1954 374.34 21.6508 375.224 21.6508L375.348 21.654C375.634 21.6773 375.898 21.4565 375.933 21.1638C376.021 20.4118 376.022 19.647 375.937 18.8896ZM366.016 23.3567C364.176 23.3567 362.68 21.8605 362.68 20.0212C362.68 18.1819 364.176 16.6856 366.016 16.6856C367.855 16.6856 369.351 18.1819 369.351 20.0212C369.351 21.8605 367.855 23.3567 366.016 23.3567Z" fill="#B2B5BB"/>
<path fill-rule="evenodd" clip-rule="evenodd" d="M396 19.985C396 14.4678 400.474 10 406 10C411.526 10 416 14.4378 416 20.015C416 25.5322 411.526 30 406 30C404.348 30 402.787 29.6102 401.405 28.8906L396 30L397.111 24.5727C396.39 23.1934 396 21.6342 396 19.985ZM405.125 24.2857V26H406.875V24.2857H405.125ZM407.899 20.1457L408.686 19.3571C409.185 18.8686 409.5 18.1829 409.5 17.4286C409.5 15.5343 407.934 14 406 14C404.066 14 402.5 15.5343 402.5 17.4286H404.25C404.25 16.4857 405.037 15.7143 406 15.7143C406.962 15.7143 407.75 16.4857 407.75 17.4286C407.75 17.9 407.557 18.3286 407.234 18.6371L406.149 19.7171C405.519 20.3429 405.125 21.2 405.125 22.1429V22.5714H406.875C406.875 21.2857 407.269 20.7714 407.899 20.1457Z" fill="#B2B5BB"/>
<path fill-rule="evenodd" clip-rule="evenodd" d="M436 12.5V15.5H456V12.5H436ZM436 18.5V21.5H456V18.5H436ZM436 24.5V27.5H456V24.5H436Z" fill="#B2B5BB"/>
<path fill-rule="evenodd" clip-rule="evenodd" d="M46.8334 14.5C48.412 14.5 49.6215 14.7863 50.4613 15.359C51.3015 15.9317 51.7213 16.8221 51.7213 18.0293C51.7213 18.7829 51.5519 19.3941 51.2127 19.8639C50.8738 20.3333 50.3855 20.7022 49.7478 20.9707C49.9606 21.239 50.1831 21.5457 50.416 21.8916C50.6488 22.2372 50.8789 22.5986 51.1067 22.9752C51.3342 23.3521 51.5544 23.7439 51.767 24.1519C51.9793 24.5593 52.1766 24.9592 52.3588 25.3514H49.7125C49.5177 25.0006 49.3229 24.6444 49.1256 24.2833C48.9257 23.9222 48.7232 23.5712 48.5157 23.2305C48.3082 22.8901 48.1007 22.5675 47.8986 22.263C47.6959 21.9586 47.4912 21.6829 47.2888 21.435H46.1199V25.3514H43.7514V14.7786C44.2676 14.6754 44.8013 14.6032 45.353 14.5618C45.9048 14.5207 46.3981 14.5 46.8334 14.5ZM23.7624 24.2056C23.8992 24.5969 24.0236 24.9778 24.1429 25.3509H26.685C26.2867 24.1979 25.9111 23.132 25.5535 22.1542C25.1959 21.1758 24.8482 20.2542 24.5058 19.3893C24.1632 18.5248 23.8257 17.7033 23.4885 16.926C23.1535 16.149 22.8109 15.3894 22.4638 14.6482H20.2133C19.8583 15.3894 19.5134 16.149 19.1835 16.926C18.8514 17.7033 18.5164 18.5248 18.1766 19.3893C17.834 20.2542 17.4866 21.1758 17.1287 22.1542C16.7737 23.132 16.3983 24.1979 16 25.3509H18.4655C18.5823 24.9801 18.7067 24.6017 18.8384 24.2079C18.9732 23.8169 19.1075 23.4257 19.2395 23.0342H23.359C23.4933 23.4231 23.6278 23.8141 23.7624 24.2056ZM21.1142 17.6548C21.2166 17.3916 21.2914 17.1799 21.344 17.0266C21.406 17.1774 21.4887 17.3839 21.5885 17.6496C21.6909 17.9151 21.8083 18.2215 21.9404 18.5686C22.0753 18.9185 22.2175 19.3015 22.3646 19.7203C22.5146 20.1388 22.6695 20.5806 22.8267 21.0401H19.8586C20.0233 20.5806 20.1829 20.1413 20.3429 19.7251L20.4388 19.4699L20.4388 19.4698L20.439 19.4694C20.5594 19.1492 20.6714 18.8514 20.7724 18.5763C20.8995 18.2263 21.0141 17.9202 21.1142 17.6548ZM35.8861 23.2814V25.3509H28.7628V14.6482H31.1631V23.2814H35.8861ZM40.4862 14.6482H38.1117V25.3509H40.4862V14.6482ZM46.5085 16.5974C46.6435 16.587 46.7957 16.5818 46.9657 16.5818C47.7148 16.5818 48.2816 16.6934 48.6661 16.9166C49.0504 17.1398 49.2429 17.5159 49.2429 18.0449C49.2429 18.595 49.0529 18.9842 48.6736 19.2125C48.2938 19.4406 47.6647 19.5548 46.7857 19.5548H46.1265V16.6284C46.2464 16.6183 46.3736 16.6079 46.5085 16.5974ZM62.1345 25.3509C62.0152 24.9778 61.8911 24.5969 61.754 24.2056L61.7202 24.1073L61.7193 24.1048L61.7181 24.1014C61.5956 23.7447 61.4732 23.3886 61.3506 23.0342H57.231C57.0989 23.4257 56.9647 23.8169 56.8298 24.2079C56.6981 24.6017 56.5737 24.9801 56.4572 25.3509H53.9914C54.3897 24.1979 54.7651 23.132 55.1201 22.1542C55.478 21.1758 55.8254 20.2542 56.1681 19.3893C56.5078 18.5248 56.8428 17.7033 57.175 16.926C57.5049 16.149 57.8498 15.3894 58.2048 14.6482H60.4553C60.8027 15.3894 61.1451 16.149 61.48 16.926C61.8173 17.7033 62.1548 18.5248 62.4971 19.3893C62.8398 20.2542 63.1872 21.1758 63.5448 22.1542C63.9027 23.132 64.2781 24.1979 64.6764 25.3509H62.1345ZM59.1051 17.6548C59.2074 17.3916 59.2823 17.1799 59.3348 17.0266C59.3969 17.1774 59.4795 17.3839 59.5793 17.6496C59.6817 17.9151 59.7991 18.2215 59.9315 18.5686C60.0661 18.9185 60.2083 19.3015 60.3557 19.7203C60.5054 20.1388 60.6603 20.5806 60.8175 21.0401H57.8494C58.0141 20.5806 58.1738 20.1413 58.3337 19.7251L58.4297 19.4697L58.4301 19.4685L58.4309 19.4666L58.4323 19.4629C58.5517 19.1452 58.6629 18.8495 58.7632 18.5763C58.8903 18.2263 59.0052 17.9202 59.1051 17.6548ZM69.1287 23.389C69.2413 23.3993 69.3716 23.4071 69.5202 23.4122C69.6685 23.4174 69.845 23.4197 70.0497 23.4197C71.2473 23.4197 72.1352 23.1164 72.7134 22.5092C73.2917 21.902 73.5808 21.0632 73.5808 19.993C73.5808 18.8712 73.3042 18.0224 72.7519 17.4462C72.199 16.8699 71.324 16.5818 70.1264 16.5818C69.9627 16.5818 69.7936 16.5844 69.6197 16.5896C69.4458 16.5947 69.2821 16.6076 69.1287 16.628V23.389ZM75.5301 22.4171C75.813 21.7248 75.9546 20.9142 75.9546 19.9845C75.9546 19.0136 75.813 18.182 75.5301 17.4903C75.2472 16.7982 74.8429 16.2299 74.3173 15.7859C73.792 15.3417 73.1631 15.0162 72.4303 14.8099C71.6978 14.6033 70.8817 14.5 69.9823 14.5C69.5581 14.5 69.0505 14.5181 68.459 14.5544C67.8678 14.5904 67.2995 14.66 66.7536 14.7633V25.2215C67.2995 25.3348 67.8555 25.4096 68.4213 25.4459C68.9871 25.4822 69.482 25.5 69.9066 25.5C70.8364 25.5 71.675 25.3866 72.423 25.1593C73.1707 24.9323 73.8047 24.5913 74.3249 24.1367C74.8454 23.6823 75.2472 23.1091 75.5301 22.4171ZM85.4337 25.3509C85.3144 24.9778 85.1901 24.5969 85.0532 24.2056C84.9187 23.8141 84.7841 23.4231 84.6498 23.0342H80.5302C80.3982 23.4257 80.2637 23.8169 80.1291 24.2079C79.9971 24.6017 79.873 24.9801 79.7562 25.3509H77.2906C77.6889 24.1979 78.0643 23.132 78.4194 22.1542C78.7773 21.1758 79.1244 20.2542 79.4673 19.3893C79.8068 18.5248 80.1421 17.7033 80.4743 16.926C80.8042 16.149 81.149 15.3894 81.5041 14.6482H83.7543C84.1017 15.3894 84.4443 16.149 84.7793 16.926C85.1166 17.7033 85.4541 18.5248 85.7964 19.3893C86.1388 20.2542 86.4865 21.1758 86.8441 22.1542C87.2017 23.132 87.5774 24.1979 87.9757 25.3509H85.4337ZM82.4046 17.6548C82.507 17.3916 82.5821 17.1799 82.6344 17.0266C82.6967 17.1774 82.779 17.3839 82.8792 17.6496C82.9815 17.9151 83.0989 18.2215 83.231 18.5686C83.3657 18.9185 83.5081 19.3015 83.6552 19.7203C83.8052 20.1388 83.9598 20.5806 84.1173 21.0401H81.1492C81.3139 20.5806 81.4736 20.1413 81.6335 19.7251L81.7296 19.4695C81.85 19.1493 81.962 18.8514 82.063 18.5763C82.1901 18.2263 82.3047 17.9202 82.4046 17.6548ZM93.283 14.5C94.8616 14.5 96.0711 14.7863 96.911 15.359C97.7512 15.9317 98.171 16.8221 98.171 18.0293C98.171 18.7829 98.0016 19.3941 97.6624 19.8639C97.3235 20.3333 96.8352 20.7022 96.1975 20.9707C96.4103 21.239 96.6328 21.5457 96.8657 21.8916C97.0985 22.2372 97.3286 22.5986 97.5561 22.9752C97.7839 23.3521 98.0041 23.7439 98.2167 24.1519C98.429 24.5593 98.6264 24.9592 98.8085 25.3514H96.1622C95.9674 25.0006 95.7726 24.6444 95.5752 24.2833C95.3753 23.9222 95.1729 23.5712 94.9654 23.2305C94.7579 22.8901 94.5504 22.5675 94.3482 22.263C94.1455 21.9586 93.9408 21.6829 93.7384 21.435H92.5694V25.3514H90.2011V14.7786C90.7174 14.6754 91.2511 14.6032 91.8028 14.5618C92.3543 14.5207 92.8477 14.5 93.283 14.5ZM92.9583 16.5974C93.0932 16.587 93.2454 16.5818 93.4154 16.5818C94.1645 16.5818 94.7313 16.6934 95.1159 16.9166C95.5001 17.1398 95.6927 17.5159 95.6927 18.0449C95.6927 18.595 95.5026 18.9842 95.1234 19.2125C94.7436 19.4406 94.1144 19.5548 93.2354 19.5548H92.5762V16.6284C92.6961 16.6183 92.8233 16.6079 92.9583 16.5974Z" fill="#B2B5BB"/>
<path d="M26 64C26 61.7909 27.7909 60 30 60H222C224.209 60 226 61.7909 226 64V76C226 78.2091 224.209 80 222 80H30C27.7909 80 26 78.2091 26 76V64Z" fill="#E2E3E4"/>
<path d="M26 429C26 426.791 27.7909 425 30 425H222C224.209 425 226 426.791 226 429V441C226 443.209 224.209 445 222 445H30C27.7909 445 26 443.209 26 441V429Z" fill="#E2E3E4"/>
<mask id="mask0" mask-type="alpha" maskUnits="userSpaceOnUse" x="0" y="455" width="470" height="145">
<path d="M0 461C0 457.686 2.68629 455 6 455H464C467.314 455 470 457.686 470 461V594C470 597.314 467.314 600 464 600H5.99999C2.68629 600 0 597.314 0 594V461Z" fill="white"/>
</mask>
<g mask="url(#mask0)">
<g filter="url(#filter0_d)">
<path d="M7 467C7 464.791 8.79086 463 11 463H111C113.209 463 115 464.791 115 467V587C115 589.209 113.209 591 111 591H11C8.79086 591 7 589.209 7 587V467Z" fill="white"/>
</g>
<path d="M83 573C83 571.895 83.8954 571 85 571L107 571C108.105 571 109 571.895 109 573V583C109 584.105 108.105 585 107 585H85C83.8954 585 83 584.105 83 583V573Z" fill="#41C300" fill-opacity="0.15"/>
<path d="M13 573C13 571.895 13.8954 571 15 571H75C76.1046 571 77 571.895 77 573V583C77 584.105 76.1046 585 75 585H15C13.8954 585 13 584.105 13 583V573Z" fill="#E8E9EB"/>
<rect x="13" y="469" width="96" height="96" rx="2" fill="#F6F6F6"/>
<g filter="url(#filter1_d)">
<path d="M123 467C123 464.791 124.791 463 127 463H227C229.209 463 231 464.791 231 467V587C231 589.209 229.209 591 227 591H127C124.791 591 123 589.209 123 587V467Z" fill="white"/>
</g>
<path d="M199 573C199 571.895 199.895 571 201 571L223 571C224.105 571 225 571.895 225 573V583C225 584.105 224.105 585 223 585H201C199.895 585 199 584.105 199 583V573Z" fill="#41C300" fill-opacity="0.15"/>
<path d="M129 573C129 571.895 129.895 571 131 571H191C192.105 571 193 571.895 193 573V583C193 584.105 192.105 585 191 585H131C129.895 585 129 584.105 129 583V573Z" fill="#E8E9EB"/>
<rect x="129" y="469" width="96" height="96" rx="2" fill="#F6F6F6"/>
<g filter="url(#filter2_d)">
<path d="M239 467C239 464.791 240.791 463 243 463H343C345.209 463 347 464.791 347 467V587C347 589.209 345.209 591 343 591H243C240.791 591 239 589.209 239 587V467Z" fill="white"/>
</g>
<path d="M315 573C315 571.895 315.895 571 317 571L339 571C340.105 571 341 571.895 341 573V583C341 584.105 340.105 585 339 585H317C315.895 585 315 584.105 315 583V573Z" fill="#41C300" fill-opacity="0.15"/>
<path d="M245 573C245 571.895 245.895 571 247 571H307C308.105 571 309 571.895 309 573V583C309 584.105 308.105 585 307 585H247C245.895 585 245 584.105 245 583V573Z" fill="#E8E9EB"/>
<rect x="245" y="469" width="96" height="96" rx="2" fill="#F6F6F6"/>
<g filter="url(#filter3_d)">
<path d="M355 467C355 464.791 356.791 463 359 463H459C461.209 463 463 464.791 463 467V587C463 589.209 461.209 591 459 591H359C356.791 591 355 589.209 355 587V467Z" fill="white"/>
</g>
<path d="M431 573C431 571.895 431.895 571 433 571L455 571C456.105 571 457 571.895 457 573V583C457 584.105 456.105 585 455 585H433C431.895 585 431 584.105 431 583V573Z" fill="#41C300" fill-opacity="0.15"/>
<path d="M361 573C361 571.895 361.895 571 363 571H423C424.105 571 425 571.895 425 573V583C425 584.105 424.105 585 423 585H363C361.895 585 361 584.105 361 583V573Z" fill="#E8E9EB"/>
<rect x="361" y="469" width="96" height="96" rx="2" fill="#F6F6F6"/>
</g>
<defs>
<filter id="filter0_d" x="4.13152" y="460.132" width="113.737" height="133.737" filterUnits="userSpaceOnUse" color-interpolation-filters="sRGB">
<feFlood flood-opacity="0" result="BackgroundImageFix"/>
<feColorMatrix in="SourceAlpha" type="matrix" values="0 0 0 0 0 0 0 0 0 0 0 0 0 0 0 0 0 0 127 0"/>
<feOffset/>
<feGaussianBlur stdDeviation="1.43424"/>
<feColorMatrix type="matrix" values="0 0 0 0 0 0 0 0 0 0 0 0 0 0 0 0 0 0 0.15 0"/>
<feBlend mode="normal" in2="BackgroundImageFix" result="effect1_dropShadow"/>
<feBlend mode="normal" in="SourceGraphic" in2="effect1_dropShadow" result="shape"/>
</filter>
<filter id="filter1_d" x="120.132" y="460.132" width="113.737" height="133.737" filterUnits="userSpaceOnUse" color-interpolation-filters="sRGB">
<feFlood flood-opacity="0" result="BackgroundImageFix"/>
<feColorMatrix in="SourceAlpha" type="matrix" values="0 0 0 0 0 0 0 0 0 0 0 0 0 0 0 0 0 0 127 0"/>
<feOffset/>
<feGaussianBlur stdDeviation="1.43424"/>
<feColorMatrix type="matrix" values="0 0 0 0 0 0 0 0 0 0 0 0 0 0 0 0 0 0 0.15 0"/>
<feBlend mode="normal" in2="BackgroundImageFix" result="effect1_dropShadow"/>
<feBlend mode="normal" in="SourceGraphic" in2="effect1_dropShadow" result="shape"/>
</filter>
<filter id="filter2_d" x="236.132" y="460.132" width="113.737" height="133.737" filterUnits="userSpaceOnUse" color-interpolation-filters="sRGB">
<feFlood flood-opacity="0" result="BackgroundImageFix"/>
<feColorMatrix in="SourceAlpha" type="matrix" values="0 0 0 0 0 0 0 0 0 0 0 0 0 0 0 0 0 0 127 0"/>
<feOffset/>
<feGaussianBlur stdDeviation="1.43424"/>
<feColorMatrix type="matrix" values="0 0 0 0 0 0 0 0 0 0 0 0 0 0 0 0 0 0 0.15 0"/>
<feBlend mode="normal" in2="BackgroundImageFix" result="effect1_dropShadow"/>
<feBlend mode="normal" in="SourceGraphic" in2="effect1_dropShadow" result="shape"/>
</filter>
<filter id="filter3_d" x="352.132" y="460.132" width="113.737" height="133.737" filterUnits="userSpaceOnUse" color-interpolation-filters="sRGB">
<feFlood flood-opacity="0" result="BackgroundImageFix"/>
<feColorMatrix in="SourceAlpha" type="matrix" values="0 0 0 0 0 0 0 0 0 0 0 0 0 0 0 0 0 0 127 0"/>
<feOffset/>
<feGaussianBlur stdDeviation="1.43424"/>
<feColorMatrix type="matrix" values="0 0 0 0 0 0 0 0 0 0 0 0 0 0 0 0 0 0 0.15 0"/>
<feBlend mode="normal" in2="BackgroundImageFix" result="effect1_dropShadow"/>
<feBlend mode="normal" in="SourceGraphic" in2="effect1_dropShadow" result="shape"/>
</filter>
</defs>
</svg>
