<svg width="40" height="44" viewBox="0 0 40 44" fill="none" xmlns="http://www.w3.org/2000/svg">
<g filter="url(#filter0_d)">
<path d="M20.0227 32L7.75 17H16.9545V2H23.0909V17H32.2955L20.0227 32Z" fill="#70D240"/>
<path fill-rule="evenodd" clip-rule="evenodd" d="M20.0227 34C20.6226 34 21.1908 33.7307 21.5707 33.2665L33.8434 18.2665C34.3327 17.6684 34.4337 16.8419 34.1028 16.1435C33.7719 15.4452 33.0683 15 32.2955 15H25.0909V2C25.0909 0.895432 24.1955 0 23.0909 0H16.9546C15.85 0 14.9546 0.895432 14.9546 2V15H7.75002C6.97724 15 6.27361 15.4452 5.94268 16.1435C5.61176 16.8419 5.71275 17.6684 6.20211 18.2665L18.4748 33.2665C18.8547 33.7307 19.4229 34 20.0227 34ZM23.0909 17V2H16.9546V17H7.75002L20.0227 32L32.2955 17H23.0909Z" fill="white"/>
</g>
<defs>
<filter id="filter0_d" x="0.75" y="0" width="38.5455" height="44" filterUnits="userSpaceOnUse" color-interpolation-filters="sRGB">
<feFlood flood-opacity="0" result="BackgroundImageFix"/>
<feColorMatrix in="SourceAlpha" type="matrix" values="0 0 0 0 0 0 0 0 0 0 0 0 0 0 0 0 0 0 127 0"/>
<feOffset dy="5"/>
<feGaussianBlur stdDeviation="2.5"/>
<feColorMatrix type="matrix" values="0 0 0 0 0.439216 0 0 0 0 0.823529 0 0 0 0 0.25098 0 0 0 0.2 0"/>
<feBlend mode="normal" in2="BackgroundImageFix" result="effect1_dropShadow"/>
<feBlend mode="normal" in="SourceGraphic" in2="effect1_dropShadow" result="shape"/>
</filter>
</defs>
</svg>
