<svg width="17" height="16" viewBox="0 0 17 16" fill="none" xmlns="http://www.w3.org/2000/svg">
<g opacity="0.75">
<path fill-rule="evenodd" clip-rule="evenodd" d="M5.53479 1C5.60062 0.721281 5.75618 0.477225 5.96929 0.3C6.19455 0.112664 6.48412 0 6.8 0H10.2C10.5159 0 10.8055 0.112664 11.0307 0.3C11.2438 0.477225 11.3994 0.721281 11.4652 1H12.5C14.7091 1 16.5 2.79086 16.5 5V12C16.5 14.2091 14.7091 16 12.5 16H4.5C2.29086 16 0.5 14.2091 0.5 12V5C0.5 2.79086 2.29086 1 4.5 1H5.53479Z" fill="#6E6E6E"/>
<path fill-rule="evenodd" clip-rule="evenodd" d="M8.5 12.5C10.7091 12.5 12.5 10.7091 12.5 8.5C12.5 6.29086 10.7091 4.5 8.5 4.5C6.29086 4.5 4.5 6.29086 4.5 8.5C4.5 10.7091 6.29086 12.5 8.5 12.5Z" stroke="white"/>
<path d="M10 8.5C10 9.32843 9.32843 10 8.5 10C7.67157 10 7 9.32843 7 8.5C7 7.67157 7.67157 7 8.5 7C9.32843 7 10 7.67157 10 8.5Z" fill="white" stroke="white"/>
</g>
</svg>
