<svg width="96" height="96" viewBox="0 0 96 96" fill="none" xmlns="http://www.w3.org/2000/svg">
<circle cx="48" cy="48" r="48" fill="#70D240" fill-opacity="0.05"/>
<circle cx="48" cy="48" r="36" fill="#70D240" fill-opacity="0.1"/>
<g filter="url(#filter0_d)">
<circle cx="48" cy="48" r="24" fill="#70D240"/>
<path fill-rule="evenodd" clip-rule="evenodd" d="M41.6468 45.8815C43.4011 45.8815 44.8233 44.4594 44.8233 42.705C44.8233 40.9507 43.4011 39.5286 41.6468 39.5286C39.8925 39.5286 38.4703 40.9507 38.4703 42.705C38.4703 44.4594 39.8925 45.8815 41.6468 45.8815Z" fill="white"/>
<path fill-rule="evenodd" clip-rule="evenodd" d="M54.3546 45.8804C56.1089 45.8804 57.531 44.4583 57.531 42.7039C57.531 40.9496 56.1089 39.5275 54.3546 39.5275C52.6003 39.5275 51.1781 40.9496 51.1781 42.7039C51.1781 44.4583 52.6003 45.8804 54.3546 45.8804Z" fill="white"/>
<path fill-rule="evenodd" clip-rule="evenodd" d="M39.2252 52.2665C39.7928 51.8059 40.6263 51.8925 41.087 52.4601C42.6633 54.4023 45.1702 55.6765 48.0178 55.6765C50.8475 55.6765 53.3408 54.4184 54.9188 52.4968C55.3827 51.9319 56.2167 51.85 56.7816 52.3139C57.3465 52.7778 57.4284 53.6118 56.9645 54.1767C54.8829 56.7115 51.6386 58.3236 48.0178 58.3236C44.3742 58.3236 41.1116 56.691 39.0316 54.1282C38.571 53.5606 38.6577 52.7271 39.2252 52.2665Z" fill="white"/>
<g filter="url(#filter1_d)">
<path d="M65.4001 69.75L58.6501 61.5H63.7126V53.25H67.0876V61.5H72.1501L65.4001 69.75Z" fill="#70D240"/>
</g>
<path fill-rule="evenodd" clip-rule="evenodd" d="M65.4 71.25C65.8499 71.25 66.2761 71.0481 66.561 70.6999L73.311 62.4499C73.678 62.0013 73.7537 61.3814 73.5055 60.8577C73.2574 60.3339 72.7296 60 72.15 60H68.5875V53.25C68.5875 52.4216 67.916 51.75 67.0875 51.75H63.7125C62.8841 51.75 62.2125 52.4216 62.2125 53.25V60H58.65C58.0705 60 57.5427 60.3339 57.2945 60.8577C57.0463 61.3814 57.1221 62.0013 57.4891 62.4499L64.2391 70.6999C64.524 71.0481 64.9501 71.25 65.4 71.25ZM67.0875 61.5V53.25H63.7125V61.5H58.65L65.4 69.75L72.15 61.5H67.0875Z" fill="white"/>
</g>
<defs>
<filter id="filter0_d" x="18" y="18" width="73.6501" height="72" filterUnits="userSpaceOnUse" color-interpolation-filters="sRGB">
<feFlood flood-opacity="0" result="BackgroundImageFix"/>
<feColorMatrix in="SourceAlpha" type="matrix" values="0 0 0 0 0 0 0 0 0 0 0 0 0 0 0 0 0 0 127 0"/>
<feOffset dx="6" dy="6"/>
<feGaussianBlur stdDeviation="6"/>
<feColorMatrix type="matrix" values="0 0 0 0 0.368627 0 0 0 0 0.776471 0 0 0 0 0.172549 0 0 0 0.2 0"/>
<feBlend mode="normal" in2="BackgroundImageFix" result="effect1_dropShadow"/>
<feBlend mode="normal" in="SourceGraphic" in2="effect1_dropShadow" result="shape"/>
</filter>
<filter id="filter1_d" x="58.6501" y="53.25" width="15.9" height="18.9" filterUnits="userSpaceOnUse" color-interpolation-filters="sRGB">
<feFlood flood-opacity="0" result="BackgroundImageFix"/>
<feColorMatrix in="SourceAlpha" type="matrix" values="0 0 0 0 0 0 0 0 0 0 0 0 0 0 0 0 0 0 127 0"/>
<feOffset dx="1.2" dy="1.2"/>
<feGaussianBlur stdDeviation="0.6"/>
<feColorMatrix type="matrix" values="0 0 0 0 0 0 0 0 0 0 0 0 0 0 0 0 0 0 0.35 0"/>
<feBlend mode="normal" in2="BackgroundImageFix" result="effect1_dropShadow"/>
<feBlend mode="normal" in="SourceGraphic" in2="effect1_dropShadow" result="shape"/>
</filter>
</defs>
</svg>
