<svg width="40" height="40" viewBox="0 0 40 40" fill="none" xmlns="http://www.w3.org/2000/svg">
<g filter="url(#filter0_d)">
<circle cx="20" cy="15" r="15" fill="#FF891A"/>
<path fill-rule="evenodd" clip-rule="evenodd" d="M16.0294 13.6766C17.1258 13.6766 18.0147 12.7878 18.0147 11.6913C18.0147 10.5949 17.1258 9.70605 16.0294 9.70605C14.9329 9.70605 14.0441 10.5949 14.0441 11.6913C14.0441 12.7878 14.9329 13.6766 16.0294 13.6766Z" fill="white"/>
<path fill-rule="evenodd" clip-rule="evenodd" d="M23.9715 13.6766C25.0679 13.6766 25.9568 12.7878 25.9568 11.6913C25.9568 10.5949 25.0679 9.70605 23.9715 9.70605C22.8751 9.70605 21.9862 10.5949 21.9862 11.6913C21.9862 12.7878 22.8751 13.6766 23.9715 13.6766Z" fill="white"/>
<path d="M15.0567 18.3088C14.5889 18.3088 14.2097 18.6792 14.2097 19.1361C14.2097 19.5929 14.5889 19.9633 15.0567 19.9633L24.9436 19.9633C25.4114 19.9633 25.7906 19.5929 25.7906 19.1361C25.7906 18.6792 25.4114 18.3088 24.9436 18.3088H15.0567Z" fill="white"/>
</g>
<defs>
<filter id="filter0_d" x="0" y="0" width="40" height="40" filterUnits="userSpaceOnUse" color-interpolation-filters="sRGB">
<feFlood flood-opacity="0" result="BackgroundImageFix"/>
<feColorMatrix in="SourceAlpha" type="matrix" values="0 0 0 0 0 0 0 0 0 0 0 0 0 0 0 0 0 0 127 0"/>
<feOffset dy="5"/>
<feGaussianBlur stdDeviation="2.5"/>
<feColorMatrix type="matrix" values="0 0 0 0 1 0 0 0 0 0.537255 0 0 0 0 0.101961 0 0 0 0.2 0"/>
<feBlend mode="normal" in2="BackgroundImageFix" result="effect1_dropShadow"/>
<feBlend mode="normal" in="SourceGraphic" in2="effect1_dropShadow" result="shape"/>
</filter>
</defs>
</svg>
