<svg width="272" height="194" viewBox="0 0 272 194" fill="none" xmlns="http://www.w3.org/2000/svg">
<ellipse cx="32.4889" cy="143.984" rx="32.4889" ry="32.4225" fill="#F2F8FF"/>
<ellipse cx="173.274" cy="125.134" rx="67.4963" ry="67.3583" fill="#F2F8FF"/>
<ellipse cx="240.519" cy="89.6952" rx="31.4815" ry="31.4171" fill="#F2F8FF"/>
<ellipse cx="97.9707" cy="95.7273" rx="77.8222" ry="77.6631" fill="#F2F8FF"/>
<ellipse cx="101.496" cy="141.471" rx="52.637" ry="52.5294" fill="#F2F8FF"/>
<ellipse cx="170" cy="62.0481" rx="56.163" ry="56.0481" fill="#F2F8FF"/>
<path d="M30.2683 137.607L29.3767 136.042L33.8651 132.637L36.3248 133.314L38.2975 135.234L34.1334 138.909L31.5385 138.489C31.0036 138.402 30.5366 138.078 30.2683 137.607Z" fill="#525151"/>
<path d="M26.9155 131.557C28.2218 130.62 29.9501 130.517 31.3584 131.292L56.2703 144.998L50.2672 148.24L27.1 135.066C25.777 134.314 25.6787 132.444 26.9155 131.557Z" fill="#525151"/>
<path d="M26.8703 130.967C28.1711 130.034 29.8912 129.929 31.2961 130.696L58.7315 145.674L52.7284 148.916L27.0628 134.476C25.7344 133.729 25.6316 131.855 26.8703 130.967Z" fill="#646464"/>
<path fill-rule="evenodd" clip-rule="evenodd" d="M46.9384 143.842L50.7498 141.12C51.9138 140.289 53.4397 140.162 54.725 140.789L58.6743 142.718C58.7585 142.759 58.8381 142.805 58.9128 142.855C59.3715 143.024 59.7201 143.438 59.7831 143.955L59.9875 145.629C60.0634 146.251 59.7431 146.833 59.22 147.116C59.187 147.145 59.1528 147.173 59.1173 147.201L54.9391 150.422C53.9571 151.179 52.6198 151.282 51.5333 150.684L47.2404 148.324C46.8825 148.127 46.618 147.843 46.4497 147.518C46.321 147.345 46.2368 147.136 46.216 146.906L46.08 145.404C46.0517 145.092 46.1449 144.797 46.3206 144.566C46.4561 144.29 46.6615 144.04 46.9384 143.842Z" fill="url(#paint0_angular)"/>
<path d="M54.202 140.947L53.5457 141.429C52.7616 142.005 52.8414 143.201 53.695 143.668L54.1776 143.932C54.8026 144.274 55.57 144.218 56.1382 143.788L56.2547 143.7C57.2567 142.942 57.1323 141.4 56.0217 140.812C55.4396 140.505 54.7326 140.557 54.202 140.947Z" fill="#F8B8A5"/>
<path d="M51.3182 140.657L46.8889 143.793C45.9783 144.438 46.0709 145.817 47.0594 146.334L51.437 148.625C52.4433 149.151 53.6612 149.062 54.5792 148.393L58.9818 145.186C59.8838 144.529 59.7724 143.151 58.7765 142.647L54.3909 140.429C53.4036 139.93 52.2212 140.018 51.3182 140.657Z" fill="#4D4D4D"/>
<path d="M51.6212 140.876L48.2796 143.17C47.531 143.684 47.6071 144.812 48.4181 145.221L51.6693 146.86C52.6548 147.356 53.834 147.269 54.7355 146.632L58.0495 144.292C58.7915 143.768 58.7002 142.64 57.8835 142.243L54.6184 140.653C53.6521 140.182 52.5074 140.267 51.6212 140.876Z" fill="#3A3A3A"/>
<ellipse cx="29.8474" cy="132.771" rx="1.6587" ry="1.05553" transform="rotate(-5.17583 29.8474 132.771)" fill="#525151"/>
<ellipse cx="29.827" cy="132.563" rx="1.6587" ry="1.05553" transform="rotate(-5.17583 29.827 132.563)" fill="#C4C4C4"/>
<path d="M51.9434 150.187L52.2206 150.321C53.0149 150.705 53.9547 150.621 54.6663 150.099C56.3589 148.86 59.377 146.642 59.9733 146.162" stroke="#525151" stroke-width="0.597161" stroke-linecap="round"/>
<path d="M60.1308 147.357L80.7087 158.773C82.4646 159.747 82.4569 162.275 80.6952 163.238C79.1347 164.092 77.2423 164.07 75.7018 163.181L55.7257 151.656L51.6463 150.211C53.2056 150.641 54.8761 150.327 56.1725 149.36L60.0507 146.466L60.1308 147.357Z" fill="#525151"/>
<path d="M60.8927 146.375L80.7591 158.095C82.4985 159.121 82.4573 161.651 80.6855 162.62C79.0985 163.488 77.1748 163.469 75.6046 162.572L55.6355 151.155L53.4574 150.346L59.9199 145.564L60.8927 146.375Z" fill="#646464"/>
<g filter="url(#filter0_i)">
<ellipse cx="61.6444" cy="150.678" rx="0.573852" ry="0.409157" transform="rotate(-10.155 61.6444 150.678)" fill="white"/>
</g>
<g filter="url(#filter1_i)">
<ellipse cx="63.5364" cy="151.709" rx="0.573852" ry="0.409157" transform="rotate(-10.155 63.5364 151.709)" fill="white"/>
</g>
<g filter="url(#filter2_i)">
<ellipse cx="65.4284" cy="152.737" rx="0.573852" ry="0.409157" transform="rotate(-10.155 65.4284 152.737)" fill="white"/>
</g>
<g filter="url(#filter3_i)">
<ellipse cx="67.3195" cy="153.763" rx="0.573852" ry="0.409157" transform="rotate(-10.155 67.3195 153.763)" fill="white"/>
</g>
<g filter="url(#filter4_i)">
<ellipse cx="69.2123" cy="154.792" rx="0.573852" ry="0.409157" transform="rotate(-10.155 69.2123 154.792)" fill="white"/>
</g>
<g filter="url(#filter5_i)">
<path d="M29.4764 131.835L30.0712 131.781L30.1358 132.494C30.1446 132.592 30.0742 132.678 29.9774 132.689L29.9737 132.689L29.7338 132.709C29.6358 132.717 29.5498 132.644 29.5409 132.546L29.4764 131.835Z" fill="#A3A3A3"/>
</g>
<g filter="url(#filter6_i)">
<ellipse cx="29.7595" cy="131.817" rx="0.452372" ry="0.301581" transform="rotate(-5.17583 29.7595 131.817)" fill="#E2E2E2"/>
</g>
<path d="M30.6585 138.115C30.0016 137.642 30.0046 136.664 30.6644 136.195L34.8971 133.191C35.5053 132.759 36.3364 132.83 36.8624 133.359C37.2513 133.75 37.2091 134.393 36.7723 134.73L32.4195 138.086C31.9034 138.483 31.1874 138.495 30.6585 138.115Z" fill="#525151"/>
<path d="M29.9413 136.866L29.3227 135.447L33.7221 132.081L35.9175 132.317C36.4449 132.374 36.92 132.661 37.215 133.102L38.2435 134.639L34.0794 138.314L31.3319 137.924C30.7162 137.837 30.1898 137.436 29.9413 136.866Z" fill="#646464"/>
<path d="M30.4856 137.625C29.824 137.154 29.8239 136.172 30.4855 135.701L34.8412 132.602C35.4484 132.17 36.2788 132.239 36.8055 132.767C37.1958 133.157 37.1543 133.802 36.7171 134.139L32.2423 137.591C31.728 137.987 31.0149 138.001 30.4856 137.625Z" fill="#646464"/>
<g filter="url(#filter7_i)">
<path d="M31.514 136.983C30.9777 136.877 30.824 136.184 31.2656 135.862L35.046 133.103C35.2643 132.944 35.544 132.895 35.8034 132.97C36.215 133.09 36.3162 133.627 35.9764 133.888L32.1427 136.835C31.9641 136.973 31.735 137.026 31.514 136.983Z" fill="white"/>
</g>
<path d="M141.617 29.7868C142.069 27.8266 143.706 26.4445 143.706 26.4445C143.706 26.4445 139.825 26.4445 138.033 30.3259C136.38 33.909 137.436 37.4919 137.436 37.4919L141.768 34.9137C141.768 34.9137 141.164 31.7471 141.617 29.7868Z" fill="#323871"/>
<path d="M142.216 30.3846C142.668 28.4243 144.006 27.9386 144.006 27.9386C144.006 27.9386 139.7 27.6703 138.446 31.2893C137.192 34.9083 138.163 37.9241 138.163 37.9241L142.366 35.5114C142.366 35.5114 141.763 32.3448 142.216 30.3846Z" fill="url(#paint1_linear)"/>
<path d="M146.421 25.2683C151.448 24.9827 154.32 28.5542 154.32 28.5542L149.868 30.9821C149.868 30.9821 148.145 28.5546 144.985 28.1257C141.826 27.6967 139.229 29.1336 138.035 31.5223C137.438 30.0294 141.395 25.554 146.421 25.2683Z" fill="#323871"/>
<path d="M147.019 24.0748C152.046 23.7892 155.356 27.6403 155.356 27.6403L150.466 29.7886C150.466 29.7886 148.743 27.3611 145.583 26.9322C142.424 26.5032 139.405 28.4315 138.952 28.8839C139.529 28.2387 141.993 24.3605 147.019 24.0748Z" fill="#455087"/>
<path d="M123.704 41.1339C124.157 39.1736 125.793 37.7915 125.793 37.7915C125.793 37.7915 121.912 37.7915 120.121 41.673C118.033 44.9574 119.528 85.863 119.825 92.1332C120.123 98.4034 125.796 97.8062 125.796 97.8062C125.796 97.8062 126.101 94.8204 125.053 93.3275C124.004 91.8346 123.328 42.7614 123.704 41.1339Z" fill="#323871"/>
<path d="M124.303 42.57C125.497 39.2856 128.781 39.8821 128.781 39.8821C128.781 39.8821 122.511 36.5994 121.018 42.5698C119.525 45.8537 120.722 91.8355 121.019 93.0305C121.615 96.3155 124.601 98.107 128.781 95.7183C126.094 95.1195 125.055 95.4512 124.899 90.941C124.601 82.2822 123.108 46.1528 124.303 42.57Z" fill="url(#paint2_linear)"/>
<path d="M128.273 36.6133C133.299 36.3276 136.171 39.8992 136.171 39.8992L131.719 42.3271C131.719 42.3271 129.996 39.8996 126.837 39.4706C123.677 39.0417 120.785 39.8814 119.889 46.7488C118.098 42.2701 123.246 36.899 128.273 36.6133Z" fill="#323871"/>
<path d="M129.104 35.4211C134.131 35.1354 137.003 38.7069 137.003 38.7069L132.551 41.1348C132.551 41.1348 130.828 38.7073 127.668 38.2784C123.408 37.4948 121.49 39.7777 121.037 40.2301C121.614 39.5849 124.078 35.7067 129.104 35.4211Z" fill="#455087"/>
<path d="M140.786 109.988C139.271 109.503 132.718 106.347 128.684 104.379C126.691 103.406 125.416 101.425 125.362 99.2082C125.105 88.6319 124.369 57.4749 124.304 44.3612L136.276 46.5829L138.337 55.4087C140.967 65.0507 137.306 108.146 140.786 109.988C140.89 110.021 140.97 110.042 141.024 110.049C140.941 110.049 140.862 110.028 140.786 109.988Z" fill="url(#paint3_linear)"/>
<path d="M141.92 110.05C144.344 110.05 165.267 97.0604 173.054 92.1732C174.855 91.0432 175.908 89.0366 175.826 86.9125L174.401 49.6732C174.041 40.2574 163.428 34.9477 155.677 40.3047L136.844 53.3193C136.844 53.3193 137.441 103.182 137.74 106.168C138.038 109.154 140.128 110.348 141.92 110.05Z" fill="#434A83"/>
<path d="M172.076 88.4357C172.076 79.7187 171.794 61.0822 171.794 61.0822C171.794 61.0822 146.984 74.6086 141.621 78.8169C142.128 85.5675 142.206 90.1734 142.216 96.4879C142.219 97.8449 142.947 99.1529 144.012 99.9938C145.387 101.079 147.043 102.207 149.484 101.393C157.553 97.0432 167.996 90.9425 172.076 88.4357Z" fill="url(#paint4_linear)"/>
<path d="M177.716 81.6334C177.552 72.6216 176.854 59.5887 176.854 59.5887C176.854 59.5887 150.28 74.2192 144.607 78.3993C145.111 84.6961 145.614 92.6927 145.76 99.5214C145.797 101.246 147.563 102.377 149.098 101.591C156.493 97.8046 168.546 90.5794 174.909 86.7059C176.68 85.6273 177.753 83.7073 177.716 81.6334Z" fill="url(#paint5_linear)"/>
<g filter="url(#filter8_f)">
<path d="M177.451 70.0382C179.109 65.6653 175.036 29.8379 160.693 29.8379C159.296 29.3229 149.29 40.5945 140.893 45.5204C132.069 50.6972 127.971 44.2967 124.352 44.8998C124.352 44.8998 124.352 43.8091 124.352 47.9432C132.664 48.5404 137.644 54.512 139.531 68.2467C139.705 69.5149 140.128 75.9123 140.457 81.1362C140.67 84.5293 144.242 86.6321 147.299 85.1447C156.428 80.7035 172.61 72.7744 177.451 70.0382Z" fill="black" fill-opacity="0.3"/>
</g>
<path d="M178.048 68.85C179.406 67.6443 178.809 29.9416 158.044 26.7445C156.647 26.2295 151.279 29.2811 142.882 34.2071C135.05 38.8016 126.91 42.5622 124.304 44.3603V46.7551C124.304 46.7551 134.157 46.7551 137.442 57.2054C140.427 65.5656 140.727 76.0122 141.423 80.1923C142.12 84.3725 146.201 84.6401 148.291 83.7753C156.651 79.8937 167.3 74.2245 178.048 68.85Z" fill="#2D3264"/>
<path d="M144.107 33.4159C135.282 38.5926 125.812 42.8537 124.304 44.3616C124.304 44.3616 137.258 43.9571 140.726 59.2997C142.684 67.9602 143.508 75.3106 143.855 80.0705C144.049 82.7302 146.927 84.4834 149.319 83.3044L177.066 69.6286C178.381 68.9807 179.167 67.6 179.029 66.1408C178.399 59.5117 176.364 41.144 172.674 35.4042C168.418 27.7104 161.337 26.3291 158.641 26.449C155.945 26.5692 152.503 28.4899 144.107 33.4159Z" fill="#4F5C9C"/>
<path d="M124.705 44.216C124.866 44.0917 125.068 43.9521 125.308 43.7975C125.724 43.529 126.249 43.2203 126.867 42.8748C128.102 42.1837 129.701 41.3491 131.531 40.3984C131.712 40.3041 131.896 40.2087 132.082 40.1122C135.643 38.2631 139.986 36.0081 144.183 33.5459C148.383 31.0821 151.337 29.3735 153.578 28.2654C155.82 27.1568 157.332 26.6583 158.647 26.5997C161.3 26.4817 168.319 27.8444 172.542 35.4772L172.542 35.4774L172.547 35.4858C173.457 36.9005 174.271 39.1061 174.99 41.7358C175.707 44.362 176.326 47.398 176.85 50.4644C177.898 56.5971 178.564 62.8421 178.879 66.1551C179.011 67.5507 178.259 68.8725 176.999 69.4934L149.252 83.1692C146.962 84.2978 144.192 82.6193 144.006 80.0595C143.658 75.2938 142.833 67.9357 140.873 59.2664C139.128 51.5488 134.992 47.7779 131.281 45.9421C129.429 45.0255 127.686 44.5929 126.406 44.3892C125.766 44.2874 125.241 44.2428 124.875 44.2236C124.814 44.2204 124.757 44.2179 124.705 44.216Z" stroke="#303668" stroke-opacity="0.5" stroke-width="0.301581"/>
<g filter="url(#filter9_f)">
<path d="M158.777 27.6625C152.156 31.183 137.365 38.8559 131.832 41.8819C130.971 42.3528 131.067 43.5889 131.915 44.0826C132.706 44.5431 133.623 45.1515 134.605 45.9231C135.913 46.9511 137.048 48.153 137.722 48.9183C138.108 49.3572 138.75 49.486 139.263 49.2042L167.495 33.6763C168.07 33.3604 168.261 32.6494 167.834 32.1524C167.2 31.415 166.088 30.3518 164.31 29.3361C161.843 27.9259 160.016 27.6147 159.33 27.5461C159.135 27.5266 158.95 27.5706 158.777 27.6625Z" fill="#8699C8" fill-opacity="0.5"/>
</g>
<path d="M148.788 70.3793C148.743 69.6467 149.152 68.9617 149.818 68.6541L152.283 67.5159C152.686 67.3299 153.15 67.6071 153.177 68.0501L154.642 92.0186C154.738 93.5853 153.873 95.053 152.455 95.7276C151.471 96.1964 150.324 95.5205 150.258 94.4318L148.788 70.3793Z" fill="#D6674F"/>
<path d="M149.092 70.4121C149.051 69.7405 149.425 69.1122 150.035 68.8284L152.236 67.8045C152.669 67.6033 153.168 67.9008 153.198 68.377L154.652 92.1758C154.738 93.5864 154.02 94.9245 152.797 95.6324C151.837 96.1882 150.628 95.5392 150.56 94.4319L149.092 70.4121Z" fill="#FBB95B"/>
<path d="M148.152 80.4244C148.138 80.1824 148.271 79.9556 148.488 79.8485L153.633 77.315C153.704 77.2797 153.782 77.259 153.862 77.2541L154.201 77.2334C154.364 77.2234 154.505 77.345 154.52 77.5077L155.138 84.4675C155.149 84.591 155.084 84.7086 154.973 84.764L149.185 87.6579C148.902 87.7989 148.567 87.6049 148.549 87.2894L148.152 80.4244Z" fill="#C8CDD9"/>
<path d="M148.491 80.478C148.484 80.3554 148.551 80.2406 148.662 80.1876L154.393 77.444C154.586 77.3516 154.811 77.484 154.824 77.6976L155.245 84.5787C155.252 84.6986 155.188 84.8114 155.081 84.8658L149.36 87.7769C149.166 87.8753 148.935 87.7432 148.922 87.5265L148.491 80.478Z" fill="url(#paint6_linear)"/>
<g filter="url(#filter10_i)">
<path d="M149.731 81.2275L153.851 79.1233L154.162 84.2107L150.033 86.1643L149.731 81.2275Z" fill="#FBB95B"/>
</g>
<path d="M148.186 79.3364L154.455 76.619L154.563 78.9994L148.458 81.8581L148.186 79.3364Z" fill="#F5F8F9"/>
<path d="M148.805 80.4242C148.851 81.1357 148.696 81.8673 148.446 81.8817C148.197 81.8961 147.948 81.1878 147.902 80.4763C147.856 79.7648 148.03 79.3195 148.28 79.3051C148.529 79.2907 148.759 79.7127 148.805 80.4242Z" fill="#C8CDD9"/>
<path d="M154.983 77.7837C155.025 78.4402 154.812 78.9863 154.563 79.0007C154.313 79.0151 154.122 78.4923 154.08 77.8359C154.037 77.1795 154.205 76.6357 154.454 76.6213C154.704 76.6069 154.94 77.1273 154.983 77.7837Z" fill="#F5F8F9"/>
<circle cx="152.054" cy="83.485" r="0.453842" transform="rotate(-3.49744 152.054 83.485)" fill="#692E32" fill-opacity="0.54"/>
<circle cx="152.652" cy="90.0529" r="0.453842" transform="rotate(-3.49744 152.652 90.0529)" fill="#692E32" fill-opacity="0.54"/>
<path d="M151.508 79.0627C151.505 78.8779 151.616 78.7101 151.787 78.641C152.077 78.5245 152.394 78.734 152.399 79.046L152.474 83.0157C152.477 83.2006 152.366 83.3683 152.195 83.4374C151.905 83.554 151.589 83.3445 151.583 83.0324L151.508 79.0627Z" fill="#C7CDD9"/>
<path d="M151.627 79.1139C151.623 78.929 151.734 78.7612 151.906 78.6922C152.195 78.5756 152.512 78.7851 152.518 79.0972L152.592 83.0669C152.595 83.2517 152.484 83.4195 152.313 83.4886C152.023 83.6051 151.707 83.3956 151.701 83.0836L151.627 79.1139Z" fill="white"/>
<path d="M169.089 59.0345C169.044 58.3019 169.453 57.6169 170.12 57.3092L172.585 56.1711C172.988 55.9851 173.451 56.2623 173.479 56.7053L174.943 80.6738C175.039 82.2404 174.174 83.7082 172.757 84.3828C171.772 84.8516 170.625 84.1756 170.559 83.087L169.089 59.0345Z" fill="#D6674F"/>
<path d="M169.393 59.0658C169.352 58.3941 169.726 57.7659 170.336 57.4821L172.537 56.4582C172.97 56.257 173.469 56.5545 173.498 57.0307L174.953 80.8295C175.039 82.2401 174.321 83.5782 173.098 84.2861C172.138 84.8419 170.929 84.1929 170.861 83.0856L169.393 59.0658Z" fill="#FBB95B"/>
<path d="M168.454 69.0814C168.44 68.8394 168.572 68.6126 168.789 68.5055L173.934 65.972C174.006 65.9367 174.084 65.916 174.164 65.9111L174.502 65.8904C174.665 65.8804 174.807 66.002 174.821 66.1647L175.44 73.1245C175.451 73.248 175.385 73.3655 175.274 73.421L169.486 76.3149C169.203 76.4559 168.869 76.2618 168.85 75.9464L168.454 69.0814Z" fill="#C8CDD9"/>
<path d="M168.793 69.133C168.786 69.0105 168.853 68.8956 168.964 68.8426L174.695 66.099C174.888 66.0066 175.113 66.1391 175.126 66.3527L175.547 73.2337C175.554 73.3536 175.489 73.4664 175.382 73.5209L169.662 76.4319C169.468 76.5304 169.237 76.3982 169.224 76.1815L168.793 69.133Z" fill="url(#paint7_linear)"/>
<g filter="url(#filter11_i)">
<path d="M170.033 69.8826L174.153 67.7784L174.464 72.8658L170.335 74.8195L170.033 69.8826Z" fill="#FBB95B"/>
</g>
<path d="M168.488 67.9895L174.757 65.2721L174.865 67.6525L168.76 70.5112L168.488 67.9895Z" fill="#F5F8F9"/>
<path d="M169.108 69.0811C169.154 69.7926 168.998 70.5242 168.749 70.5386C168.5 70.553 168.251 69.8448 168.205 69.1333C168.159 68.4218 168.333 67.9765 168.582 67.9621C168.832 67.9477 169.062 68.3697 169.108 69.0811Z" fill="#C8CDD9"/>
<path d="M175.285 66.4388C175.328 67.0952 175.115 67.6413 174.865 67.6557C174.616 67.6701 174.425 67.1473 174.382 66.4909C174.34 65.8345 174.508 65.2907 174.757 65.2763C175.006 65.2619 175.243 65.7824 175.285 66.4388Z" fill="#F5F8F9"/>
<circle cx="172.356" cy="72.1381" r="0.453842" transform="rotate(-3.49744 172.356 72.1381)" fill="#692E32" fill-opacity="0.54"/>
<circle cx="172.954" cy="78.7059" r="0.453842" transform="rotate(-3.49744 172.954 78.7059)" fill="#692E32" fill-opacity="0.54"/>
<path d="M171.81 67.7197C171.806 67.5349 171.917 67.3671 172.089 67.298C172.378 67.1814 172.695 67.3909 172.701 67.703L172.775 71.6727C172.778 71.8575 172.667 72.0253 172.496 72.0944C172.206 72.211 171.89 72.0015 171.884 71.6894L171.81 67.7197Z" fill="#C7CDD9"/>
<path d="M171.928 67.7709C171.924 67.586 172.035 67.4182 172.207 67.3492C172.496 67.2326 172.813 67.4421 172.819 67.7542L172.893 71.7238C172.897 71.9087 172.786 72.0765 172.614 72.1455C172.324 72.2621 172.008 72.0526 172.002 71.7405L171.928 67.7709Z" fill="white"/>
<path d="M136.394 49.6529L169.646 31.7381L169.934 31.9979L136.547 49.9383L136.394 49.6529Z" fill="#3D4376"/>
<path d="M159.038 74.1243C159.038 73.6763 159.289 73.266 159.687 73.0616L163.543 71.0844C163.94 70.8806 164.413 71.1692 164.413 71.6158V73.1242C164.413 73.5722 164.162 73.9825 163.763 74.1869L159.908 76.1641C159.51 76.3678 159.038 76.0793 159.038 75.6327V74.1243Z" fill="#404682"/>
<path d="M136.378 49.7798L169.819 31.7246L170.254 32.2551L136.661 50.3058L136.378 49.7798Z" fill="#2D3264" fill-opacity="0.25"/>
<path fill-rule="evenodd" clip-rule="evenodd" d="M54.8446 115.322L81.6237 100.044C83.4296 99.014 85.6387 98.9864 87.4697 99.9712L116.646 115.664C118.099 116.445 118.313 118.357 117.248 119.458C118.622 121.889 117.985 125.221 115.283 126.818L89.5109 142.047C88.0156 142.931 86.1609 142.942 84.6545 142.078L55.853 125.551C54.0697 124.527 53.8583 122.132 55.2328 120.787L54.8232 120.549C52.8138 119.381 52.8257 116.474 54.8446 115.322Z" fill="#DF4D43"/>
<path fill-rule="evenodd" clip-rule="evenodd" d="M73.8993 104.425L81.444 99.9699C83.2642 98.8951 85.5142 98.8517 87.3745 99.8554L116.391 115.51C116.56 115.601 116.712 115.707 116.847 115.825C117.731 116.231 118.286 117.128 118.252 118.101L118.052 123.929C118.023 124.752 117.578 125.503 116.869 125.922L103.228 133.995L103.101 126.625C103.091 126.017 102.852 125.445 102.447 125.014L74.0014 109.676C71.9351 108.562 71.8779 105.618 73.8993 104.425Z" fill="#F76D68"/>
<path d="M54.7269 120.458L85.2583 136.751C86.4338 137.378 86.8783 138.84 86.2509 140.015C85.6236 141.191 84.1621 141.635 82.9865 141.008L56.7122 126.987C54.3611 125.732 53.4723 122.809 54.7269 120.458Z" fill="#BA001C"/>
<path d="M78.7121 135.781C79.3538 134.578 80.8638 134.146 82.0444 134.827L85.3185 136.716C86.4453 137.366 86.8534 138.792 86.241 139.94C85.5994 141.142 84.0894 141.574 82.9088 140.893L79.6347 139.005C78.5079 138.355 78.0997 136.928 78.7121 135.781Z" fill="#CF272C"/>
<rect x="54.7269" y="115.331" width="37.0193" height="4.8253" rx="2.41265" transform="rotate(28.0863 54.7269 115.331)" fill="#CF272C"/>
<path d="M82.5695 132.825C82.5695 132.105 83.1155 131.503 83.8318 131.432C85.544 131.263 87.0018 132.665 86.9007 134.382L86.6256 139.059C86.5537 140.282 85.4243 141.162 84.2213 140.935C83.2631 140.753 82.5695 139.915 82.5695 138.94V132.825Z" fill="#CF272C"/>
<path d="M78.3456 132.768C78.3456 131.685 79.2232 130.808 80.3059 130.808C81.3885 130.808 82.2661 131.685 82.2661 132.768V136.946C82.2661 138.154 81.183 139.075 79.9902 138.881C79.0419 138.726 78.3456 137.907 78.3456 136.946V132.768Z" fill="#CF272C"/>
<path fill-rule="evenodd" clip-rule="evenodd" d="M102.793 124.426L75.0293 109.998V110.752L101.851 124.952C102.048 125.057 102.172 125.262 102.172 125.485V134.577L103.076 134.728V124.927C103.076 124.847 103.056 124.772 103.019 124.708C102.987 124.591 102.909 124.486 102.793 124.426Z" fill="#CF272C"/>
<path d="M78.7992 107.735L103.028 120.661C104.661 121.532 104.68 123.868 103.06 124.764L75.029 109.998L78.7992 107.735Z" fill="#FF7D78"/>
<path d="M103.076 134.729V120.766L105.024 121.788C106.046 122.324 106.672 123.396 106.637 124.55L106.393 132.616L103.076 134.729Z" fill="#FF7D78"/>
<path d="M104.584 125.981L103.076 126.888C103.076 126.888 103.076 125.83 102.624 125.077C102.171 124.324 101.417 123.872 101.417 123.872C101.719 123.872 102.503 124.172 102.624 124.172C102.744 124.172 103.981 125.378 104.584 125.981Z" fill="#FF7D78"/>
<path d="M102.923 126.285L102.169 127.037C102.169 127.037 102.169 126.05 101.868 125.447C101.566 124.844 100.963 124.474 100.963 124.474C101.264 124.323 101.747 124.542 101.868 124.542C101.988 124.542 102.772 125.38 102.923 126.285Z" fill="#CF272C"/>
<ellipse cx="81.7079" cy="111.355" rx="1.20632" ry="0.689328" fill="#CF272C"/>
<ellipse cx="81.7099" cy="111.221" rx="1.20632" ry="0.689328" fill="#BABABA"/>
<ellipse cx="81.7085" cy="111.221" rx="0.689328" ry="0.393902" fill="white"/>
<ellipse cx="87.7382" cy="114.731" rx="1.20632" ry="0.689328" fill="#CF272C"/>
<ellipse cx="87.7393" cy="114.597" rx="1.20632" ry="0.689328" fill="#BABABA"/>
<ellipse cx="87.7389" cy="114.599" rx="0.689328" ry="0.393902" fill="white"/>
<ellipse cx="93.7735" cy="117.748" rx="1.20632" ry="0.689328" fill="#CF272C"/>
<ellipse cx="93.7739" cy="117.614" rx="1.20632" ry="0.689328" fill="#BABABA"/>
<ellipse cx="93.775" cy="117.613" rx="0.689328" ry="0.393902" fill="white"/>
<ellipse cx="100.104" cy="121.067" rx="1.20632" ry="0.689328" fill="#CF272C"/>
<ellipse cx="100.104" cy="120.931" rx="1.20632" ry="0.689328" fill="#BABABA"/>
<ellipse cx="100.106" cy="120.931" rx="0.689328" ry="0.393902" fill="white"/>
<ellipse rx="1.20632" ry="0.689328" transform="matrix(0 -1 -1 0 105.015 128.989)" fill="#BA001C"/>
<ellipse rx="1.20632" ry="0.689328" transform="matrix(0 -1 -1 0 105.149 128.989)" fill="#CF272C"/>
<ellipse rx="0.689328" ry="0.393902" transform="matrix(0 -1 -1 0 105.149 128.989)" fill="white" fill-opacity="0.7"/>
<path d="M77.0346 102.596L78.2551 103.177C81.1675 104.561 81.3272 108.646 78.5316 110.254C75.1185 112.216 70.9595 112.379 67.4036 110.689L64.9715 109.533L77.0346 102.596Z" fill="#2980E2"/>
<path d="M77.6376 102.749L78.9922 103.415C82.0796 104.93 82.3726 109.218 79.52 111.14L79.1089 111.417C74.6167 114.443 68.7011 114.293 64.3676 111.044L64.2168 109.535L77.6376 102.749Z" fill="#CF272C"/>
<path d="M77.0346 102.596L78.2551 103.177C81.1675 104.561 81.3272 108.646 78.5316 110.254C75.1185 112.216 70.9595 112.379 67.4036 110.689L64.9715 109.533L77.0346 102.596Z" fill="#BA001C"/>
<path d="M77.9626 103.001L77.033 102.597L64.9699 109.533L66.9289 110.513C70.5904 112.344 74.9351 112.169 78.4378 110.05C81.2004 108.379 80.9245 104.286 77.9626 103.001Z" stroke="#FF7D78" stroke-width="1.50791" stroke-linecap="round" stroke-linejoin="round"/>
<g filter="url(#filter12_f)">
<path d="M87.0091 134.884L53.8667 116.073L87.3077 97.561L119.256 116.073L87.0091 134.884Z" fill="black" fill-opacity="0.3"/>
</g>
<path fill-rule="evenodd" clip-rule="evenodd" d="M54.8446 104.768L81.6237 89.4896C83.4296 88.4593 85.6387 88.4317 87.4697 89.4165L116.646 105.109C118.099 105.89 118.313 107.802 117.248 108.904C118.622 111.334 117.985 114.667 115.283 116.263L89.5109 131.492C88.0156 132.376 86.1609 132.388 84.6545 131.523L55.853 114.996C54.0697 113.972 53.8583 111.577 55.2328 110.232L54.8232 109.994C52.8138 108.826 52.8257 105.919 54.8446 104.768Z" fill="#FBB95B"/>
<path fill-rule="evenodd" clip-rule="evenodd" d="M73.8993 93.8701L81.444 89.4154C83.2642 88.3407 85.5142 88.2972 87.3745 89.3009L116.391 104.956C116.56 105.047 116.712 105.153 116.847 105.271C117.731 105.676 118.286 106.574 118.252 107.547L118.052 113.374C118.023 114.197 117.578 114.948 116.869 115.368L103.228 123.441L103.101 116.071C103.091 115.462 102.852 114.89 102.447 114.459L74.0014 99.1216C71.9351 98.0074 71.8779 95.0637 73.8993 93.8701Z" fill="#FFBE62"/>
<path d="M54.7269 109.904L85.2583 126.197C86.4338 126.824 86.8783 128.285 86.2509 129.461C85.6236 130.637 84.1621 131.081 82.9865 130.454L56.7122 116.433C54.3611 115.178 53.4723 112.255 54.7269 109.904Z" fill="#E37900"/>
<path d="M78.7121 125.228C79.3538 124.026 80.8638 123.594 82.0444 124.275L85.3185 126.163C86.4453 126.813 86.8534 128.24 86.241 129.387C85.5994 130.59 84.0894 131.022 82.9088 130.341L79.6347 128.452C78.5079 127.802 78.0997 126.376 78.7121 125.228Z" fill="#ED8714"/>
<rect x="54.7269" y="104.776" width="37.0193" height="4.8253" rx="2.41265" transform="rotate(28.0863 54.7269 104.776)" fill="#ED8714"/>
<path d="M82.5695 122.272C82.5695 121.553 83.1155 120.95 83.8318 120.88C85.544 120.711 87.0018 122.112 86.9007 123.83L86.6256 128.507C86.5537 129.729 85.4243 130.61 84.2213 130.382C83.2631 130.2 82.5695 129.363 82.5695 128.388V122.272Z" fill="#ED8714"/>
<path d="M78.3456 122.213C78.3456 121.131 79.2232 120.253 80.3059 120.253C81.3885 120.253 82.2661 121.131 82.2661 122.213V126.391C82.2661 127.6 81.183 128.521 79.9902 128.326C79.0419 128.171 78.3456 127.352 78.3456 126.391V122.213Z" fill="#ED8714"/>
<path fill-rule="evenodd" clip-rule="evenodd" d="M102.793 113.874L75.0293 99.4459V100.2L101.851 114.4C102.048 114.504 102.172 114.709 102.172 114.933V124.025L103.076 124.176V114.374C103.076 114.294 103.056 114.22 103.019 114.155C102.987 114.038 102.909 113.934 102.793 113.874Z" fill="#ED8714"/>
<path d="M78.7992 97.1807L103.028 110.106C104.661 110.978 104.68 113.313 103.06 114.21L75.029 99.4437L78.7992 97.1807Z" fill="#FFCB81"/>
<path d="M103.076 124.175V110.211L105.024 111.233C106.046 111.769 106.672 112.842 106.637 113.995L106.393 122.062L103.076 124.175Z" fill="#FFCB81"/>
<path d="M104.584 115.427L103.076 116.333C103.076 116.333 103.076 115.275 102.624 114.522C102.171 113.77 101.417 113.317 101.417 113.317C101.719 113.317 102.503 113.617 102.624 113.617C102.744 113.617 103.981 114.824 104.584 115.427Z" fill="#FFCB81"/>
<path d="M102.923 115.732L102.169 116.485C102.169 116.485 102.169 115.497 101.868 114.894C101.566 114.291 100.963 113.921 100.963 113.921C101.264 113.771 101.747 113.989 101.868 113.989C101.988 113.989 102.772 114.827 102.923 115.732Z" fill="#ED8714"/>
<ellipse cx="81.7079" cy="100.802" rx="1.20632" ry="0.689328" fill="#ED8714"/>
<ellipse cx="81.7089" cy="100.667" rx="1.20632" ry="0.689328" fill="#BABABA"/>
<ellipse cx="81.7085" cy="100.668" rx="0.689328" ry="0.393902" fill="white"/>
<ellipse cx="87.7373" cy="104.177" rx="1.20632" ry="0.689328" fill="#ED8714"/>
<ellipse cx="87.7381" cy="104.045" rx="1.20632" ry="0.689328" fill="#BABABA"/>
<ellipse cx="87.7373" cy="104.044" rx="0.689328" ry="0.393902" fill="white"/>
<ellipse cx="93.7726" cy="107.191" rx="1.20632" ry="0.689328" fill="#ED8714"/>
<ellipse cx="93.7744" cy="107.059" rx="1.20632" ry="0.689328" fill="#BABABA"/>
<ellipse cx="93.7743" cy="107.059" rx="0.689328" ry="0.393902" fill="white"/>
<ellipse cx="100.104" cy="110.51" rx="1.20632" ry="0.689328" fill="#ED8714"/>
<ellipse cx="100.105" cy="110.377" rx="1.20632" ry="0.689328" fill="#BABABA"/>
<ellipse cx="100.106" cy="110.376" rx="0.689328" ry="0.393902" fill="white"/>
<ellipse rx="1.20632" ry="0.689328" transform="matrix(0 -1 -1 0 105.015 118.433)" fill="#E37900"/>
<ellipse rx="1.20632" ry="0.689328" transform="matrix(0 -1 -1 0 105.149 118.433)" fill="#ED8714"/>
<ellipse rx="0.689328" ry="0.393902" transform="matrix(0 -1 -1 0 105.15 118.432)" fill="white" fill-opacity="0.7"/>
<path d="M77.0346 92.0439L78.2551 92.624C81.1675 94.0084 81.3272 98.0938 78.5316 99.7012C75.1185 101.664 70.9595 101.826 67.4036 100.136L64.9715 98.9801L77.0346 92.0439Z" fill="#2980E2"/>
<path d="M77.6376 92.195L78.9922 92.8601C82.0796 94.376 82.3726 98.6638 79.52 100.585L79.1089 100.862C74.6167 103.889 68.7011 103.739 64.3676 100.49L64.2168 98.9809L77.6376 92.195Z" fill="#ED8714"/>
<path d="M77.0346 92.0439L78.2551 92.624C81.1675 94.0084 81.3272 98.0938 78.5316 99.7012C75.1185 101.664 70.9595 101.826 67.4036 100.136L64.9715 98.9801L77.0346 92.0439Z" fill="#E37900"/>
<path d="M77.9626 92.45L77.033 92.0466L64.9699 98.9828L66.9289 99.9623C70.5904 101.793 74.9351 101.618 78.4378 99.4996C81.2004 97.8284 80.9245 93.7353 77.9626 92.45Z" stroke="#FFCB81" stroke-width="1.50791" stroke-linecap="round" stroke-linejoin="round"/>
<g filter="url(#filter13_f)">
<path d="M86.7106 123.836L53.8667 105.921L86.7106 86.812L118.062 106.22L86.7106 123.836Z" fill="#3D0E0E" fill-opacity="0.41"/>
</g>
<path fill-rule="evenodd" clip-rule="evenodd" d="M54.8431 94.2115L81.6223 78.9335C83.4281 77.9033 85.6372 77.8757 87.4683 78.8605L116.645 94.5529C118.097 95.3341 118.311 97.2449 117.248 98.3468C118.62 100.777 117.983 104.109 115.282 105.705L89.5094 120.934C88.0141 121.818 86.1594 121.83 84.653 120.965L55.8515 104.438C54.0688 103.415 53.857 101.02 55.23 99.6755L54.8218 99.4382C52.8123 98.2699 52.8242 95.3634 54.8431 94.2115Z" fill="#4F8ACB"/>
<path fill-rule="evenodd" clip-rule="evenodd" d="M73.8996 83.314L81.4442 78.8593C83.2644 77.7845 85.5144 77.7411 87.3748 78.7448L116.392 94.3995C116.561 94.4908 116.713 94.5971 116.848 94.7154C117.732 95.1215 118.285 96.0183 118.252 96.9905L118.051 102.818C118.023 103.641 117.577 104.392 116.869 104.812L103.228 112.885L103.101 105.514C103.09 104.906 102.851 104.333 102.445 103.902L74.0016 88.5654C71.9353 87.4513 71.8781 84.5075 73.8996 83.314Z" fill="#5396E1"/>
<path d="M54.6456 99.3534L85.177 115.646C86.3525 116.274 86.797 117.735 86.1696 118.911C85.5423 120.086 84.0808 120.531 82.9052 119.903L56.6309 105.882C54.2798 104.628 53.391 101.705 54.6456 99.3534Z" fill="#2864A6"/>
<path d="M78.7124 114.67C79.354 113.468 80.864 113.036 82.0446 113.717L85.3187 115.605C86.4455 116.255 86.8537 117.682 86.2413 118.829C85.5996 120.032 84.0897 120.464 82.9091 119.783L79.6349 117.894C78.5082 117.244 78.1 115.818 78.7124 114.67Z" fill="#3470B1"/>
<rect x="54.7279" y="94.2219" width="37.0193" height="4.8253" rx="2.41265" transform="rotate(28.0863 54.7279 94.2219)" fill="#3470B1"/>
<path d="M82.5697 111.714C82.5697 110.995 83.1157 110.392 83.832 110.322C85.5443 110.153 87.002 111.554 86.901 113.272L86.6258 117.949C86.554 119.171 85.4245 120.052 84.2216 119.824C83.2633 119.642 82.5697 118.805 82.5697 117.83V111.714Z" fill="#3470B1"/>
<path d="M78.3466 111.657C78.3466 110.575 79.2242 109.697 80.3068 109.697C81.3895 109.697 82.2671 110.575 82.2671 111.657V115.835C82.2671 117.044 81.184 117.965 79.9912 117.77C79.0429 117.615 78.3466 116.796 78.3466 115.835V111.657Z" fill="#3470B1"/>
<path fill-rule="evenodd" clip-rule="evenodd" d="M102.794 103.315L75.0304 88.8878V89.6418L101.852 103.842C102.049 103.946 102.173 104.151 102.173 104.375V113.467L103.077 113.617V103.816C103.077 103.736 103.057 103.662 103.02 103.597C102.988 103.48 102.91 103.375 102.794 103.315Z" fill="#3A7DC6"/>
<path d="M78.8003 86.6266L103.029 99.552C104.663 100.424 104.681 102.759 103.061 103.656L75.0301 88.8897L78.8003 86.6266Z" fill="#7CB9FD"/>
<path d="M103.076 113.618V99.6549L105.024 100.677C106.046 101.213 106.673 102.286 106.638 103.439L106.393 111.506L103.076 113.618Z" fill="#7CB9FD"/>
<path d="M104.583 104.871L103.076 105.777C103.076 105.777 103.076 104.719 102.623 103.966C102.171 103.214 101.417 102.761 101.417 102.761C101.718 102.761 102.503 103.061 102.623 103.061C102.744 103.061 103.98 104.268 104.583 104.871Z" fill="#7CB9FD"/>
<path d="M102.925 105.174L102.171 105.927C102.171 105.927 102.171 104.939 101.869 104.336C101.568 103.733 100.965 103.363 100.965 103.363C101.266 103.213 101.749 103.431 101.869 103.431C101.99 103.431 102.774 104.269 102.925 105.174Z" fill="#3A7DC6"/>
<ellipse cx="81.708" cy="90.2458" rx="1.20632" ry="0.689328" fill="#2869B0"/>
<ellipse cx="81.7086" cy="90.1123" rx="1.20632" ry="0.689328" fill="#3A7DC6"/>
<ellipse cx="81.7086" cy="90.1124" rx="0.689328" ry="0.393902" fill="white" fill-opacity="0.7"/>
<ellipse cx="87.7384" cy="93.62" rx="1.20632" ry="0.689328" fill="#2869B0"/>
<ellipse cx="87.7389" cy="93.4868" rx="1.20632" ry="0.689328" fill="#3A7DC6"/>
<ellipse cx="87.7383" cy="93.4865" rx="0.689328" ry="0.393902" fill="white" fill-opacity="0.7"/>
<ellipse cx="93.7724" cy="96.6373" rx="1.20632" ry="0.689328" fill="#2869B0"/>
<ellipse cx="93.772" cy="96.5031" rx="1.20632" ry="0.689328" fill="#3A7DC6"/>
<ellipse cx="93.7721" cy="96.5032" rx="0.689328" ry="0.393902" fill="white" fill-opacity="0.7"/>
<ellipse cx="100.107" cy="99.9537" rx="1.20632" ry="0.689328" fill="#2869B0"/>
<ellipse cx="100.105" cy="99.8204" rx="1.20632" ry="0.689328" fill="#3A7DC6"/>
<ellipse cx="100.106" cy="99.8202" rx="0.689328" ry="0.393902" fill="white" fill-opacity="0.7"/>
<ellipse rx="1.20632" ry="0.689328" transform="matrix(0 -1 -1 0 105.015 107.875)" fill="#2869B0"/>
<ellipse rx="1.20632" ry="0.689328" transform="matrix(0 -1 -1 0 105.149 107.875)" fill="#3A7DC6"/>
<ellipse rx="0.689328" ry="0.393902" transform="matrix(0 -1 -1 0 105.15 107.874)" fill="white" fill-opacity="0.7"/>
<path d="M76.6715 81.9509L77.8442 82.5083C80.6427 83.8385 80.7961 87.764 78.11 89.3085C74.8304 91.1943 70.8342 91.3505 67.4174 89.7264L65.0805 88.6157L76.6715 81.9509Z" fill="#2980E2"/>
<path d="M76.2596 81.1408L79.7234 83.5779C81.9651 85.1551 81.9692 88.4765 79.7315 90.0593C75.2429 93.2342 69.1636 92.9202 65.026 89.2998L64.9136 89.2015L64.8608 87.8359L76.2596 81.1408Z" fill="#3A7DC6"/>
<path d="M76.4415 81.8291L77.602 82.3808C80.3713 83.697 80.5231 87.5817 77.865 89.1101C74.6196 90.9762 70.665 91.1307 67.2838 89.5236L64.9712 88.4244L76.4415 81.8291Z" fill="url(#paint8_linear)"/>
<path d="M78.9697 83.5825L76.2607 81.7359L65.5116 88.0061L68.283 89.5898C71.6821 91.5324 75.9063 91.292 79.0631 88.9763C80.9014 87.6278 80.8536 84.8666 78.9697 83.5825Z" stroke="#7CB9FD" stroke-width="1.50791" stroke-linecap="round" stroke-linejoin="round"/>
<g filter="url(#filter14_f)">
<rect x="87.0405" y="111.645" width="33.2808" height="2.30052" rx="1.15026" transform="rotate(-29.1583 87.0405 111.645)" fill="white" fill-opacity="0.2"/>
</g>
<g filter="url(#filter15_i)">
<path d="M166.048 132.047C156.548 132.114 155.605 126.692 155.297 125.79C154.767 123.229 154.648 119.31 157.045 117.031C157.045 117.031 206.672 98.131 207.425 97.9748C208.178 97.8187 211.241 104.432 208.254 108.525C205.717 112.312 198.921 115.217 189.94 120.266C180.91 125.343 175.547 131.979 166.048 132.047Z" fill="url(#paint9_linear)"/>
</g>
<path d="M207.584 98.1168C208.188 98.2633 211.084 104.14 208.26 108.378C207.317 109.6 206.738 110.167 206.343 110.498C206.153 110.657 205.863 110.512 205.861 110.264L205.852 109.052C205.851 108.848 205.956 108.659 206.12 108.538C209.182 106.278 209.656 100.887 207.584 98.1168Z" fill="url(#paint10_linear)" fill-opacity="0.4"/>
<path d="M166.141 131.908C156.641 131.976 155.765 126.995 155.457 126.092C155.2 125.34 154.985 123.372 155.127 122.014C155.337 124.222 156.259 126.804 158.95 128.376C161.497 129.865 166.193 130.445 171.084 128.697C171.482 128.555 171.913 128.841 171.916 129.264L171.925 130.492C171.927 130.753 171.76 130.985 171.511 131.061C169.836 131.573 168.115 131.894 166.141 131.908Z" fill="url(#paint11_linear)" fill-opacity="0.4"/>
<path d="M206.346 86.6774C206.035 85.3265 205.675 84.2666 203.563 84.1198C201.451 83.973 200.659 85.144 199.954 85.5029C198.452 86.2676 197.8 85.5042 191.081 88.8836C189.881 89.7584 190.341 90.8487 190.341 90.8487C190.341 90.8487 186.439 93.4404 184.48 93.6051C182.521 93.7698 183.61 91.5118 180.602 92.5887C177.594 93.6657 161.267 109.017 157.989 114.617C154.711 120.217 157.507 123.967 159.12 125.313C160.733 126.659 163.661 127.693 169.383 126.597C175.105 125.501 202.578 108.271 205.726 105.532C208.873 102.793 206.657 88.0283 206.346 86.6774Z" fill="#4F8ACB"/>
<g filter="url(#filter16_i)">
<path d="M157.989 114.615C154.711 120.216 156.446 123.244 158.06 124.589C161.289 128.149 170.248 128.384 177.675 122.957C177.327 116.092 167.718 108.396 160.089 111.721C159.178 112.835 158.453 113.823 157.989 114.615Z" fill="url(#paint12_linear)"/>
</g>
<path d="M186.03 96.9372C186.189 95.0536 181.316 94.0808 183.428 94.2166C185.54 94.3524 188.533 93.1829 190.347 91.7552C193.289 89.4401 198.756 86.7183 202.241 89.1069C205.12 90.9554 203.93 93.3165 203.93 93.3165C203.041 95.5842 197.094 99.811 193.336 100.708C190.416 101.405 185.83 100.653 184.223 99.9412C184.223 99.9412 185.871 98.8208 186.03 96.9372Z" fill="#3F72A9"/>
<path d="M193.196 100.993C190.276 101.69 185.69 100.939 184.083 100.226C184.045 94.9478 187.004 98.7543 191.137 95.5016C194.078 93.1865 198.053 92.7381 200.016 93.0258C201.978 93.3134 203.349 94.5097 202.455 95.4203C200.272 97.6435 196.087 100.303 193.196 100.993Z" fill="url(#paint13_linear)"/>
<path d="M206.747 86.6683C206.436 85.3174 205.86 82.9172 203.552 82.7727C201.245 82.6283 200.7 84.7104 199.994 85.0692C198.604 86.7262 197.647 85.6597 191.081 89.0351C189.881 89.9099 190.34 90.8499 190.34 90.8499C191.587 90.1868 194.329 87.923 197.705 87.4866C199.071 87.31 201.477 86.8501 202.683 87.7463C209.362 92.9766 201.535 95.8973 201.542 96.9528C202.156 98.4564 204.104 96.7838 204.862 97.2308C205.619 97.6778 205.146 100.697 207.295 100.079C207.393 99.979 207.477 98.6001 207.422 96.7603C207.309 92.9916 206.889 87.287 206.747 86.6683Z" fill="url(#paint14_linear)"/>
<g filter="url(#filter17_i)">
<path d="M207.05 86.8173C206.739 85.4664 205.861 82.9176 203.553 82.7731C201.245 82.6286 200.7 84.7107 199.995 85.0696C198.452 86.4195 197.794 85.0559 191.228 88.4312C190.028 89.3061 190.341 90.8502 190.341 90.8502C191.588 90.1872 194.33 87.9234 197.706 87.4869C199.071 87.3103 200.267 87.1606 201.932 88.0536C206.527 91.3005 204.064 94.124 202.139 95.8934C201.36 96.6087 201.393 97.105 201.848 97.4034C202.302 97.7018 208.54 93.2938 207.05 86.8173Z" fill="#E7F2FF"/>
</g>
<path d="M190.929 88.5845C189.728 89.4594 190.341 90.8506 190.341 90.8506C191.588 90.1875 194.255 88.207 197.557 87.6326C198.46 87.4754 200.268 87.161 201.932 88.0588C201.627 87.4578 202.073 86.5544 203.276 86.0935C203.874 85.3352 203.406 83.228 204.612 83.0684C201.587 81.8832 200.7 84.7094 199.995 85.0683C198.601 85.9665 193.777 86.161 190.929 88.5845Z" fill="url(#paint15_linear)"/>
<path d="M176.953 93.166C178.073 91.9511 179.703 91.3408 181.345 91.5221C185.58 91.9897 187.484 97.0751 184.597 100.209L174.718 110.93L174.397 110.714C171.437 108.717 168.125 107.298 164.637 106.533L176.953 93.166Z" fill="#5C92CD"/>
<path d="M177.416 93.2773C178.716 91.8773 180.696 91.3318 182.53 91.8678L168.01 107.499L165.018 106.624L177.416 93.2773Z" fill="url(#paint16_linear)"/>
<path d="M177.173 93.3683C178.228 92.2232 179.765 91.648 181.312 91.8189C185.304 92.2596 187.098 97.0529 184.377 100.006L174.672 110.539L174.564 110.466C171.715 108.545 168.545 107.153 165.205 106.356L177.173 93.3683Z" stroke="#669DDE" stroke-width="0.597161"/>
<circle cx="182.131" cy="105.873" r="1.35711" transform="rotate(-5.62802 182.131 105.873)" fill="url(#paint17_linear)"/>
<path d="M182.38 104.976C180.567 103.277 173.334 99.7571 170.945 100.311" stroke="#4476AD" stroke-opacity="0.48" stroke-width="1.50791" stroke-linecap="round"/>
<circle cx="178.505" cy="109.427" r="1.35711" transform="rotate(-5.62802 178.505 109.427)" fill="url(#paint18_linear)"/>
<path d="M178.752 108.53C176.956 106.848 170.131 103.444 167.685 103.918" stroke="#4476AD" stroke-opacity="0.48" stroke-width="1.50791" stroke-linecap="round"/>
<circle cx="175.528" cy="113.051" r="1.35711" transform="rotate(-5.62802 175.528 113.051)" fill="url(#paint19_linear)"/>
<path d="M175.778 112.155C173.986 110.476 166.885 107.068 164.428 107.525" stroke="#4476AD" stroke-opacity="0.48" stroke-width="1.50791" stroke-linecap="round"/>
<path d="M170.764 99.7725C171.758 97.5553 180.279 101.821 182.372 103.782C183.874 105.189 182.879 105.856 182.879 105.856" stroke="white" stroke-width="1.50791" stroke-linecap="round"/>
<path d="M167.138 103.328C168.132 101.111 176.653 105.376 178.746 107.337C180.248 108.745 179.253 109.411 179.253 109.411" stroke="white" stroke-width="1.50791" stroke-linecap="round"/>
<path d="M164.163 106.952C165.156 104.735 173.677 109.001 175.77 110.962C177.273 112.369 176.278 113.035 176.278 113.035" stroke="white" stroke-width="1.50791" stroke-linecap="round"/>
<path d="M184.563 115.12C184.925 111.919 186.962 109.152 189.911 107.855L195.638 105.336C197.392 104.565 199.411 105.604 199.804 107.479L200.188 109.313C200.188 109.313 193.835 113.431 192.222 114.39C190.608 115.349 184.101 119.203 184.101 119.203L184.563 115.12Z" fill="url(#paint20_linear)"/>
<g filter="url(#filter18_i)">
<path d="M185.842 144.447C176.343 144.514 175.399 139.092 175.091 138.19C174.561 135.629 174.442 131.71 176.839 129.431C176.839 129.431 226.466 110.531 227.219 110.375C227.972 110.219 231.035 116.832 228.048 120.924C225.512 124.712 218.715 127.616 209.735 132.666C200.704 137.743 195.342 144.379 185.842 144.447Z" fill="url(#paint21_linear)"/>
</g>
<path d="M227.379 110.517C227.983 110.663 230.878 116.54 228.054 120.778C227.111 122 226.533 122.566 226.137 122.898C225.947 123.057 225.657 122.911 225.655 122.664L225.647 121.452C225.645 121.248 225.75 121.059 225.914 120.938C228.976 118.678 229.451 113.287 227.379 110.517Z" fill="url(#paint22_linear)" fill-opacity="0.4"/>
<path d="M185.935 144.308C176.435 144.375 175.559 139.395 175.251 138.492C174.995 137.74 174.78 135.772 174.921 134.414C175.131 136.621 176.053 139.204 178.744 140.776C181.291 142.264 185.988 142.845 190.878 141.097C191.277 140.955 191.707 141.241 191.71 141.664L191.719 142.892C191.721 143.152 191.554 143.385 191.305 143.461C189.63 143.973 187.909 144.294 185.935 144.308Z" fill="url(#paint23_linear)" fill-opacity="0.4"/>
<path d="M226.141 99.0773C225.83 97.7264 225.47 96.6665 223.358 96.5197C221.245 96.3729 220.454 97.5439 219.748 97.9028C218.246 98.6675 217.594 97.9041 210.876 101.283C209.675 102.158 210.136 103.249 210.136 103.249C210.136 103.249 206.233 105.84 204.274 106.005C202.315 106.17 203.405 103.912 200.396 104.989C197.388 106.066 181.061 121.417 177.783 127.017C174.505 132.617 177.301 136.367 178.914 137.713C180.528 139.059 183.456 140.093 189.178 138.997C194.9 137.901 222.372 120.671 225.52 117.932C228.668 115.193 226.451 100.428 226.141 99.0773Z" fill="#4F8ACB"/>
<g filter="url(#filter19_i)">
<path d="M177.783 127.015C174.505 132.615 176.241 135.643 177.854 136.989C181.083 140.549 190.042 140.784 197.469 135.357C197.121 128.492 187.512 120.796 179.884 124.121C178.972 125.235 178.247 126.223 177.783 127.015Z" fill="url(#paint24_linear)"/>
</g>
<path d="M205.824 109.337C205.983 107.453 201.111 106.481 203.223 106.617C205.335 106.752 208.328 105.583 210.142 104.155C213.083 101.84 218.55 99.1182 222.036 101.507C224.914 103.355 223.724 105.716 223.724 105.716C222.836 107.984 216.889 112.211 213.131 113.108C210.21 113.805 205.624 113.053 204.017 112.341C204.017 112.341 205.666 111.221 205.824 109.337Z" fill="#3F72A9"/>
<path d="M212.99 113.393C210.07 114.09 205.484 113.339 203.877 112.626C203.84 107.348 206.798 111.154 210.931 107.902C213.872 105.586 217.848 105.138 219.81 105.426C221.773 105.713 223.143 106.91 222.249 107.82C220.066 110.043 215.881 112.703 212.99 113.393Z" fill="url(#paint25_linear)"/>
<path d="M226.541 99.0682C226.23 97.7173 225.654 95.3171 223.347 95.1726C221.039 95.0282 220.494 97.1103 219.789 97.4691C218.399 99.1261 217.441 98.0596 210.875 101.435C209.675 102.31 210.134 103.25 210.134 103.25C211.381 102.587 214.124 100.323 217.499 99.8865C218.865 99.7099 221.271 99.25 222.477 100.146C229.156 105.377 221.329 108.297 221.336 109.353C221.95 110.856 223.899 109.184 224.656 109.631C225.413 110.078 224.941 113.097 227.089 112.479C227.187 112.379 227.271 111 227.216 109.16C227.103 105.391 226.683 99.6869 226.541 99.0682Z" fill="url(#paint26_linear)"/>
<g filter="url(#filter20_i)">
<path d="M226.845 99.2172C226.534 97.8663 225.655 95.3175 223.347 95.173C221.04 95.0285 220.495 97.1106 219.79 97.4695C218.246 98.8195 217.588 97.4558 211.023 100.831C209.822 101.706 210.135 103.25 210.135 103.25C211.382 102.587 214.125 100.323 217.5 99.8868C218.866 99.7102 220.061 99.5605 221.726 100.453C226.321 103.7 223.859 106.524 221.933 108.293C221.154 109.009 221.187 109.505 221.642 109.803C222.096 110.102 228.335 105.694 226.845 99.2172Z" fill="#E7F2FF"/>
</g>
<path d="M210.723 100.984C209.522 101.859 210.136 103.25 210.136 103.25C211.383 102.587 214.049 100.607 217.351 100.032C218.255 99.8751 220.062 99.5606 221.726 100.458C221.421 99.8574 221.867 98.954 223.07 98.4931C223.668 97.7349 223.201 95.6276 224.406 95.4681C221.382 94.2829 220.495 97.1091 219.79 97.468C218.395 98.3661 213.571 98.5606 210.723 100.984Z" fill="url(#paint27_linear)"/>
<path d="M196.748 105.566C197.867 104.351 199.498 103.741 201.14 103.922C205.375 104.39 207.278 109.475 204.391 112.609L194.512 123.33L194.192 123.113C191.231 121.117 187.919 119.698 184.431 118.933L196.748 105.566Z" fill="#5C92CD"/>
<path d="M197.21 105.677C198.511 104.277 200.49 103.732 202.324 104.268L187.805 119.899L184.813 119.024L197.21 105.677Z" fill="url(#paint28_linear)"/>
<path d="M196.967 105.768C198.022 104.623 199.559 104.048 201.107 104.219C205.099 104.659 206.893 109.453 204.171 112.406L194.467 122.939L194.359 122.866C191.51 120.945 188.339 119.553 185 118.756L196.967 105.768Z" stroke="#669DDE" stroke-width="0.597161"/>
<circle cx="201.925" cy="118.274" r="1.35711" transform="rotate(-5.62802 201.925 118.274)" fill="url(#paint29_linear)"/>
<path d="M202.174 117.376C200.362 115.677 193.128 112.157 190.739 112.711" stroke="#4476AD" stroke-opacity="0.48" stroke-width="1.50791" stroke-linecap="round"/>
<circle cx="198.299" cy="121.827" r="1.35711" transform="rotate(-5.62802 198.299 121.827)" fill="url(#paint30_linear)"/>
<path d="M198.546 120.93C196.751 119.248 189.925 115.844 187.479 116.318" stroke="#4476AD" stroke-opacity="0.48" stroke-width="1.50791" stroke-linecap="round"/>
<circle cx="195.323" cy="125.451" r="1.35711" transform="rotate(-5.62802 195.323 125.451)" fill="url(#paint31_linear)"/>
<path d="M195.572 124.555C193.78 122.876 186.68 119.468 184.222 119.925" stroke="#4476AD" stroke-opacity="0.48" stroke-width="1.50791" stroke-linecap="round"/>
<path d="M190.558 112.173C191.552 109.955 200.073 114.221 202.166 116.182C203.668 117.589 202.673 118.256 202.673 118.256" stroke="white" stroke-width="1.50791" stroke-linecap="round"/>
<path d="M186.932 115.728C187.926 113.511 196.447 117.777 198.54 119.737C200.042 121.145 199.047 121.811 199.047 121.811" stroke="white" stroke-width="1.50791" stroke-linecap="round"/>
<path d="M183.957 119.352C184.951 117.135 193.472 121.401 195.564 123.362C197.067 124.769 196.072 125.435 196.072 125.435" stroke="white" stroke-width="1.50791" stroke-linecap="round"/>
<path d="M204.357 127.52C204.719 124.319 206.756 121.552 209.705 120.255L215.432 117.736C217.186 116.965 219.205 118.004 219.598 119.879L219.982 121.713C219.982 121.713 213.63 125.831 212.016 126.79C210.403 127.749 203.895 131.603 203.895 131.603L204.357 127.52Z" fill="url(#paint32_linear)"/>
<path d="M131.861 132.303V137.077C131.861 137.077 123.611 136.748 117.34 139.382C109.419 142.016 109.394 148.725 109.394 148.725C109.394 148.725 108.004 147.671 107.735 146.613C107.323 144.994 107.735 143.598 108.489 141.789C109.243 139.979 111.567 136.87 117.838 134.4C124.109 131.93 131.861 132.303 131.861 132.303Z" fill="#525252"/>
<path d="M131.861 132.001V136.775C131.861 136.775 123.61 136.445 117.34 139.079C109.419 141.713 109.394 148.422 109.394 148.422C109.394 148.422 105.783 149.742 105.514 148.685C105.101 147.065 105.213 145.216 106.72 141.899C108.228 138.582 111.957 135.152 118.742 133.343C125.528 131.534 131.861 132.001 131.861 132.001Z" fill="#525252"/>
<path d="M131.901 132.852V137.075C131.901 137.075 123.499 136.708 117.228 139.342C109.308 141.976 109.282 148.685 109.282 148.685C109.282 148.685 107.289 147.782 107.02 146.725C107.171 144.916 107.171 144.614 108.076 142.654C108.98 140.694 111.091 137.766 117.123 135.265C123.155 132.764 131.901 132.852 131.901 132.852Z" fill="#959595"/>
<path d="M131.861 133.194V137.379C131.861 137.379 123.611 137.05 117.34 139.684C109.419 142.318 109.394 149.027 109.394 149.027C109.394 149.027 107.702 148.124 107.433 147.067C107.433 145.257 107.584 144.956 108.338 142.996C109.092 141.035 111.505 137.754 117.34 135.456C123.175 133.158 131.861 133.194 131.861 133.194Z" fill="#343434"/>
<path d="M131.86 134.703V139.076C131.86 139.076 124.17 138.774 118.44 141.187C111.202 143.599 109.392 149.33 109.392 149.33C109.392 149.33 109.241 145.409 110.599 143.147C111.956 140.886 113.313 138.926 119.043 136.663C124.773 134.401 131.86 134.703 131.86 134.703Z" fill="#21221C"/>
<rect x="105.32" y="145.259" width="4.22213" height="7.23794" rx="2.11107" fill="#6F6F6F"/>
<rect x="106.227" y="146.162" width="2.41265" height="5.42846" rx="1.20632" fill="#3F3F3F"/>
<mask id="mask0" mask-type="alpha" maskUnits="userSpaceOnUse" x="106" y="146" width="19" height="19">
<path d="M106.83 147.068C106.83 146.902 106.965 146.767 107.132 146.767H124.624V164.258H106.83V147.068Z" fill="#C4C4C4"/>
</mask>
<g mask="url(#mask0)">
<path d="M106.828 150.534V144.654C106.828 144.654 108.034 148.423 112.86 151.288C117.685 154.153 122.661 155.36 122.661 155.36L121.304 161.241C121.304 161.241 117.082 160.185 112.407 157.32C107.733 154.455 106.828 150.534 106.828 150.534Z" fill="#FFA200"/>
<path d="M106.677 150.081L106.225 145.256C106.225 145.256 107.431 149.025 112.257 151.89C117.082 154.755 121.907 155.962 121.907 155.962L120.701 161.843C120.701 161.843 116.479 160.787 111.804 157.922C107.13 155.057 106.677 150.081 106.677 150.081Z" fill="#FFE588"/>
<path d="M106.527 149.779L106.225 145.557C106.225 145.557 107.431 149.326 112.257 152.191C117.082 155.056 121.606 156.263 121.606 156.263L120.701 162.144C120.701 162.144 116.479 161.54 111.804 158.223C107.13 154.906 106.527 149.779 106.527 149.779Z" fill="#FFD935"/>
</g>
<ellipse cx="133.602" cy="160.57" rx="10.8821" ry="6.50864" transform="rotate(45 133.602 160.57)" fill="#4E4E4E"/>
<path d="M126.651 152.279L122.881 155.144L137.742 171.043L141.21 168.329L126.651 152.279Z" fill="#4E4E4E"/>
<ellipse cx="130.671" cy="162.766" rx="11.0019" ry="6.50864" transform="rotate(45 130.671 162.766)" fill="#FFA200"/>
<ellipse cx="128.777" cy="164.189" rx="10.8821" ry="6.50864" transform="rotate(45 128.777 164.189)" fill="#FFBD17"/>
<ellipse cx="127.38" cy="165.69" rx="8.10808" ry="4.59009" transform="rotate(45 127.38 165.69)" fill="#FFE588"/>
<ellipse cx="127.38" cy="166.293" rx="8.10808" ry="4.59009" transform="rotate(45 127.38 166.293)" fill="#FFD935"/>
<path d="M144.246 143.448C139.421 139.519 133.469 138.576 131.861 138.576V132.289C131.861 132.289 136.576 132.289 140.546 134.489C144.517 136.689 148.75 140.462 148.75 140.462L144.246 143.448Z" fill="#FFA200"/>
<path d="M144.075 143.599C139.551 139.829 133.369 138.774 131.861 138.774V132.852C131.861 132.852 136.576 133.003 140.195 134.963C143.814 136.923 148.036 140.844 148.036 140.844L144.075 143.599Z" fill="#FFE588"/>
<path d="M143.623 143.9C139.099 140.13 133.369 139.075 131.861 139.075V133.043C131.861 133.043 136.385 133.194 140.004 135.154C143.623 137.114 147.845 141.035 147.845 141.035L143.623 143.9Z" fill="url(#paint33_linear)"/>
<ellipse cx="157.01" cy="146.524" rx="9.07672" ry="5.93484" transform="rotate(45 157.01 146.524)" fill="#FFC700"/>
<ellipse cx="155.525" cy="148.283" rx="10.6509" ry="6.61502" transform="rotate(48.2782 155.525 148.283)" fill="#FFA200"/>
<path d="M159.243 158.381C155.473 161.245 151.1 160.642 146.426 155.516C142.354 150.69 140.846 144.356 144.779 142.45C148.011 139.568 152.608 140.03 157.735 145.413C162.56 151.595 162.711 156.269 159.243 158.381Z" fill="#4E4E4E"/>
<path d="M156.891 159.666C153.751 160.515 150.366 159.064 146.902 154.808C143.112 149.78 141.877 143.458 145.783 141.87C149.494 140.906 152.65 143.215 155.591 147.29C159.121 151.407 159.734 158.574 156.891 159.666Z" fill="#8E8E8E"/>
<path d="M156.831 159.703C153.653 160.802 150.135 159.582 146.427 155.516C142.355 150.69 140.847 144.356 144.78 142.449C148.537 141.19 151.855 143.301 155.021 147.222C158.791 151.141 159.696 158.38 156.831 159.703Z" fill="#6C6C6C"/>
<ellipse cx="150.142" cy="151.157" rx="5.7238" ry="3.3323" transform="rotate(48.7149 150.142 151.157)" fill="#605F5F"/>
<ellipse cx="150.642" cy="150.476" rx="5.01455" ry="2.50567" transform="rotate(48.7149 150.642 150.476)" fill="#4E4E4E"/>
<rect x="97.9358" y="67.1396" width="1.87958" height="0.375915" fill="#D2E5C9"/>
<circle cx="97.9349" cy="53.2307" r="12.0293" fill="#D2E6C9"/>
<rect x="93.8007" y="63.7559" width="6.01465" height="6.01465" rx="1.12775" transform="rotate(-45 93.8007 63.7559)" fill="#D2E6C9"/>
<circle cx="99.8152" cy="53.2307" r="12.0293" fill="white"/>
<rect x="95.3052" y="63.756" width="6.01465" height="6.01465" rx="1.12775" transform="rotate(-45 95.3052 63.756)" fill="white"/>
<circle cx="99.8154" cy="53.2308" r="7.14239" fill="#41C300"/>
<path fill-rule="evenodd" clip-rule="evenodd" d="M96.8557 54.6685C97.0471 54.5132 97.3282 54.5424 97.4836 54.7338C98.0152 55.3889 98.8608 55.8187 99.8212 55.8187C100.776 55.8187 101.617 55.3943 102.149 54.7462C102.305 54.5557 102.587 54.5281 102.777 54.6845C102.968 54.841 102.995 55.1223 102.839 55.3128C102.137 56.1677 101.042 56.7115 99.8212 56.7115C98.5923 56.7115 97.4919 56.1608 96.7904 55.2964C96.635 55.105 96.6642 54.8239 96.8557 54.6685Z" fill="white"/>
<path fill-rule="evenodd" clip-rule="evenodd" d="M96.2828 51.4151C96.4961 50.796 97.0836 50.3501 97.7766 50.3501C98.4632 50.3501 99.0462 50.7878 99.2643 51.3977C99.3571 51.657 99.2221 51.9423 98.9628 52.0351C98.7035 52.1278 98.4182 51.9928 98.3254 51.7335C98.2446 51.5077 98.0287 51.3472 97.7766 51.3472C97.5221 51.3472 97.3045 51.5107 97.2256 51.7399C97.1359 52.0002 96.8522 52.1386 96.5918 52.0489C96.3315 51.9592 96.1931 51.6755 96.2828 51.4151Z" fill="white"/>
<path fill-rule="evenodd" clip-rule="evenodd" d="M100.364 51.4151C100.577 50.796 101.165 50.3501 101.858 50.3501C102.544 50.3501 103.127 50.7878 103.346 51.3977C103.438 51.657 103.303 51.9423 103.044 52.0351C102.785 52.1278 102.499 51.9928 102.407 51.7335C102.326 51.5077 102.11 51.3472 101.858 51.3472C101.603 51.3472 101.386 51.5107 101.307 51.7399C101.217 52.0002 100.933 52.1386 100.673 52.0489C100.413 51.9592 100.274 51.6755 100.364 51.4151Z" fill="white"/>
<rect x="34.0291" y="114.504" width="1.87958" height="0.375915" fill="#D3E4F5"/>
<circle cx="34.0293" cy="100.595" r="12.0293" fill="#D3E4F5"/>
<rect x="29.8939" y="111.12" width="6.01465" height="6.01465" rx="1.12775" transform="rotate(-45 29.8939 111.12)" fill="#D3E4F5"/>
<circle cx="35.9083" cy="100.595" r="12.0293" fill="white"/>
<rect x="31.3973" y="111.12" width="6.01465" height="6.01465" rx="1.12775" transform="rotate(-45 31.3973 111.12)" fill="white"/>
<circle cx="35.9086" cy="100.595" r="7.14239" fill="#50A2FF"/>
<circle cx="35.9081" cy="100.595" r="4.46399" stroke="white" stroke-width="0.892799"/>
<circle cx="35.9089" cy="100.594" r="1.3392" fill="white"/>
<path d="M39.852 96.2563L35.9084 100.594" stroke="white" stroke-width="0.892799" stroke-linecap="round"/>
<rect x="134.399" y="125.406" width="1.87958" height="0.375915" fill="#FAE4DC"/>
<circle cx="134.399" cy="111.497" r="12.0293" fill="#FAE4DC"/>
<rect x="130.264" y="122.022" width="6.01465" height="6.01465" rx="1.12775" transform="rotate(-45 130.264 122.022)" fill="#FAE4DC"/>
<circle cx="136.278" cy="111.497" r="12.0293" fill="white"/>
<rect x="131.767" y="122.022" width="6.01465" height="6.01465" rx="1.12775" transform="rotate(-45 131.767 122.022)" fill="white"/>
<circle cx="136.432" cy="111.409" r="7.14239" fill="#E83B32"/>
<path d="M137.549 107.541H135.201C134.958 107.541 134.762 107.736 134.762 107.976V111.268H134.261C134.019 111.268 133.823 111.463 133.823 111.703C133.823 111.943 134.019 112.138 134.261 112.138H134.762V113.131H134.261C134.019 113.131 133.823 113.326 133.823 113.566C133.823 113.806 134.019 114.001 134.261 114.001H134.762V114.964C134.762 115.204 134.958 115.399 135.201 115.399C135.443 115.399 135.639 115.204 135.639 114.964V114.001H137.549C137.792 114.001 137.988 113.806 137.988 113.566C137.988 113.326 137.792 113.131 137.549 113.131H135.639V112.138H137.549C138.827 112.138 139.867 111.107 139.867 109.839C139.867 108.541 138.8 107.541 137.549 107.541ZM137.549 111.268H135.639V108.411H137.549C138.339 108.411 138.99 109.042 138.99 109.839C138.99 110.627 138.344 111.268 137.549 111.268Z" fill="white"/>
<rect x="176.126" y="25.9387" width="1.87958" height="0.375915" fill="#D3E4F5"/>
<circle cx="176.126" cy="12.0293" r="12.0293" fill="#D3E4F5"/>
<rect x="171.991" y="22.5548" width="6.01465" height="6.01465" rx="1.12775" transform="rotate(-45 171.991 22.5548)" fill="#D3E4F5"/>
<circle cx="178.005" cy="12.0293" r="12.0293" fill="white"/>
<rect x="173.494" y="22.5548" width="6.01465" height="6.01465" rx="1.12775" transform="rotate(-45 173.494 22.5548)" fill="white"/>
<path fill-rule="evenodd" clip-rule="evenodd" d="M175.358 5.78027C175.417 5.53142 175.556 5.31352 175.746 5.15529C175.947 4.98804 176.206 4.88745 176.488 4.88745H179.523C179.806 4.88745 180.064 4.98804 180.265 5.15529C180.455 5.31352 180.594 5.53142 180.653 5.78027H181.577C183.549 5.78027 185.148 7.37915 185.148 9.35146V15.6011C185.148 17.5734 183.549 19.1723 181.577 19.1723H174.434C172.462 19.1723 170.863 17.5734 170.863 15.6011V9.35146C170.863 7.37914 172.462 5.78027 174.434 5.78027H175.358Z" fill="#50A2FF"/>
<path fill-rule="evenodd" clip-rule="evenodd" d="M178.006 16.0474C179.978 16.0474 181.577 14.4485 181.577 12.4762C181.577 10.5039 179.978 8.90503 178.006 8.90503C176.033 8.90503 174.434 10.5039 174.434 12.4762C174.434 14.4485 176.033 16.0474 178.006 16.0474Z" stroke="white" stroke-width="0.892799"/>
<path d="M179.345 12.4771C179.345 13.2167 178.745 13.8163 178.005 13.8163C177.266 13.8163 176.666 13.2167 176.666 12.4771C176.666 11.7375 177.266 11.1379 178.005 11.1379C178.745 11.1379 179.345 11.7375 179.345 12.4771Z" fill="white" stroke="white" stroke-width="0.892799"/>
<rect x="215.22" y="78.0403" width="1.87958" height="0.375915" fill="#D3E4F5"/>
<circle cx="215.221" cy="64.1311" r="12.0293" fill="#D3E4F5"/>
<rect x="211.085" y="74.6562" width="6.01465" height="6.01465" rx="1.12775" transform="rotate(-45 211.085 74.6562)" fill="#D3E4F5"/>
<circle cx="217.099" cy="64.1313" r="12.0293" fill="white"/>
<rect x="212.588" y="74.6566" width="6.01465" height="6.01465" rx="1.12775" transform="rotate(-45 212.588 74.6566)" fill="white"/>
<circle cx="217.1" cy="64.1313" r="7.14239" fill="#50A2FF"/>
<path fill-rule="evenodd" clip-rule="evenodd" d="M217.735 60.9181C218.945 61.2058 219.638 62.293 219.638 63.5918V65.7071L220.484 66.5532V66.9763H213.717V66.5532L214.563 65.7071V63.5918C214.563 62.2888 215.253 61.2058 216.466 60.9181V60.6304C216.466 60.2793 216.75 59.9958 217.101 59.9958C217.452 59.9958 217.735 60.2793 217.735 60.6304V60.9181ZM217.269 68.2504C217.214 68.2631 217.159 68.2673 217.1 68.2673C216.631 68.2673 216.254 67.8867 216.25 67.4215H217.942C217.942 67.54 217.92 67.6499 217.878 67.7514C217.768 68.0051 217.544 68.1912 217.269 68.2504Z" fill="white"/>
<defs>
<filter id="filter0_i" x="61.075" y="150.263" width="1.13902" height="0.83072" filterUnits="userSpaceOnUse" color-interpolation-filters="sRGB">
<feFlood flood-opacity="0" result="BackgroundImageFix"/>
<feBlend mode="normal" in="SourceGraphic" in2="BackgroundImageFix" result="shape"/>
<feColorMatrix in="SourceAlpha" type="matrix" values="0 0 0 0 0 0 0 0 0 0 0 0 0 0 0 0 0 0 127 0" result="hardAlpha"/>
<feOffset dy="0.298581"/>
<feComposite in2="hardAlpha" operator="arithmetic" k2="-1" k3="1"/>
<feColorMatrix type="matrix" values="0 0 0 0 0.2 0 0 0 0 0.2 0 0 0 0 0.2 0 0 0 1 0"/>
<feBlend mode="normal" in2="shape" result="effect1_innerShadow"/>
</filter>
<filter id="filter1_i" x="62.9669" y="151.294" width="1.13902" height="0.83072" filterUnits="userSpaceOnUse" color-interpolation-filters="sRGB">
<feFlood flood-opacity="0" result="BackgroundImageFix"/>
<feBlend mode="normal" in="SourceGraphic" in2="BackgroundImageFix" result="shape"/>
<feColorMatrix in="SourceAlpha" type="matrix" values="0 0 0 0 0 0 0 0 0 0 0 0 0 0 0 0 0 0 127 0" result="hardAlpha"/>
<feOffset dy="0.298581"/>
<feComposite in2="hardAlpha" operator="arithmetic" k2="-1" k3="1"/>
<feColorMatrix type="matrix" values="0 0 0 0 0.2 0 0 0 0 0.2 0 0 0 0 0.2 0 0 0 1 0"/>
<feBlend mode="normal" in2="shape" result="effect1_innerShadow"/>
</filter>
<filter id="filter2_i" x="64.8589" y="152.321" width="1.13902" height="0.83072" filterUnits="userSpaceOnUse" color-interpolation-filters="sRGB">
<feFlood flood-opacity="0" result="BackgroundImageFix"/>
<feBlend mode="normal" in="SourceGraphic" in2="BackgroundImageFix" result="shape"/>
<feColorMatrix in="SourceAlpha" type="matrix" values="0 0 0 0 0 0 0 0 0 0 0 0 0 0 0 0 0 0 127 0" result="hardAlpha"/>
<feOffset dy="0.298581"/>
<feComposite in2="hardAlpha" operator="arithmetic" k2="-1" k3="1"/>
<feColorMatrix type="matrix" values="0 0 0 0 0.2 0 0 0 0 0.2 0 0 0 0 0.2 0 0 0 1 0"/>
<feBlend mode="normal" in2="shape" result="effect1_innerShadow"/>
</filter>
<filter id="filter3_i" x="66.75" y="153.348" width="1.13902" height="0.83072" filterUnits="userSpaceOnUse" color-interpolation-filters="sRGB">
<feFlood flood-opacity="0" result="BackgroundImageFix"/>
<feBlend mode="normal" in="SourceGraphic" in2="BackgroundImageFix" result="shape"/>
<feColorMatrix in="SourceAlpha" type="matrix" values="0 0 0 0 0 0 0 0 0 0 0 0 0 0 0 0 0 0 127 0" result="hardAlpha"/>
<feOffset dy="0.298581"/>
<feComposite in2="hardAlpha" operator="arithmetic" k2="-1" k3="1"/>
<feColorMatrix type="matrix" values="0 0 0 0 0.2 0 0 0 0 0.2 0 0 0 0 0.2 0 0 0 1 0"/>
<feBlend mode="normal" in2="shape" result="effect1_innerShadow"/>
</filter>
<filter id="filter4_i" x="68.6428" y="154.377" width="1.13902" height="0.83072" filterUnits="userSpaceOnUse" color-interpolation-filters="sRGB">
<feFlood flood-opacity="0" result="BackgroundImageFix"/>
<feBlend mode="normal" in="SourceGraphic" in2="BackgroundImageFix" result="shape"/>
<feColorMatrix in="SourceAlpha" type="matrix" values="0 0 0 0 0 0 0 0 0 0 0 0 0 0 0 0 0 0 127 0" result="hardAlpha"/>
<feOffset dy="0.298581"/>
<feComposite in2="hardAlpha" operator="arithmetic" k2="-1" k3="1"/>
<feColorMatrix type="matrix" values="0 0 0 0 0.2 0 0 0 0 0.2 0 0 0 0 0.2 0 0 0 1 0"/>
<feBlend mode="normal" in2="shape" result="effect1_innerShadow"/>
</filter>
<filter id="filter5_i" x="29.4764" y="131.781" width="0.660109" height="0.928331" filterUnits="userSpaceOnUse" color-interpolation-filters="sRGB">
<feFlood flood-opacity="0" result="BackgroundImageFix"/>
<feBlend mode="normal" in="SourceGraphic" in2="BackgroundImageFix" result="shape"/>
<feColorMatrix in="SourceAlpha" type="matrix" values="0 0 0 0 0 0 0 0 0 0 0 0 0 0 0 0 0 0 127 0" result="hardAlpha"/>
<feOffset dx="0.119432"/>
<feComposite in2="hardAlpha" operator="arithmetic" k2="-1" k3="1"/>
<feColorMatrix type="matrix" values="0 0 0 0 0 0 0 0 0 0 0 0 0 0 0 0 0 0 0.1 0"/>
<feBlend mode="normal" in2="shape" result="effect1_innerShadow"/>
</filter>
<filter id="filter6_i" x="29.3081" y="131.514" width="0.902724" height="0.606294" filterUnits="userSpaceOnUse" color-interpolation-filters="sRGB">
<feFlood flood-opacity="0" result="BackgroundImageFix"/>
<feBlend mode="normal" in="SourceGraphic" in2="BackgroundImageFix" result="shape"/>
<feColorMatrix in="SourceAlpha" type="matrix" values="0 0 0 0 0 0 0 0 0 0 0 0 0 0 0 0 0 0 127 0" result="hardAlpha"/>
<feOffset dy="-0.119432"/>
<feComposite in2="hardAlpha" operator="arithmetic" k2="-1" k3="1"/>
<feColorMatrix type="matrix" values="0 0 0 0 0 0 0 0 0 0 0 0 0 0 0 0 0 0 0.25 0"/>
<feBlend mode="normal" in2="shape" result="effect1_innerShadow"/>
</filter>
<filter id="filter7_i" x="31.0078" y="132.936" width="5.17313" height="4.06181" filterUnits="userSpaceOnUse" color-interpolation-filters="sRGB">
<feFlood flood-opacity="0" result="BackgroundImageFix"/>
<feBlend mode="normal" in="SourceGraphic" in2="BackgroundImageFix" result="shape"/>
<feColorMatrix in="SourceAlpha" type="matrix" values="0 0 0 0 0 0 0 0 0 0 0 0 0 0 0 0 0 0 127 0" result="hardAlpha"/>
<feOffset dy="0.418013"/>
<feComposite in2="hardAlpha" operator="arithmetic" k2="-1" k3="1"/>
<feColorMatrix type="matrix" values="0 0 0 0 0.321569 0 0 0 0 0.317647 0 0 0 0 0.317647 0 0 0 1 0"/>
<feBlend mode="normal" in2="shape" result="effect1_innerShadow"/>
</filter>
<filter id="filter8_f" x="121.963" y="27.4322" width="58.2233" height="60.5861" filterUnits="userSpaceOnUse" color-interpolation-filters="sRGB">
<feFlood flood-opacity="0" result="BackgroundImageFix"/>
<feBlend mode="normal" in="SourceGraphic" in2="BackgroundImageFix" result="shape"/>
<feGaussianBlur stdDeviation="1.19432" result="effect1_foregroundBlur"/>
</filter>
<filter id="filter9_f" x="125.26" y="21.5699" width="48.7782" height="33.7553" filterUnits="userSpaceOnUse" color-interpolation-filters="sRGB">
<feFlood flood-opacity="0" result="BackgroundImageFix"/>
<feBlend mode="normal" in="SourceGraphic" in2="BackgroundImageFix" result="shape"/>
<feGaussianBlur stdDeviation="2.98581" result="effect1_foregroundBlur"/>
</filter>
<filter id="filter10_i" x="149.731" y="79.1233" width="4.43054" height="7.04106" filterUnits="userSpaceOnUse" color-interpolation-filters="sRGB">
<feFlood flood-opacity="0" result="BackgroundImageFix"/>
<feBlend mode="normal" in="SourceGraphic" in2="BackgroundImageFix" result="shape"/>
<feColorMatrix in="SourceAlpha" type="matrix" values="0 0 0 0 0 0 0 0 0 0 0 0 0 0 0 0 0 0 127 0" result="hardAlpha"/>
<feOffset/>
<feGaussianBlur stdDeviation="1.19432"/>
<feComposite in2="hardAlpha" operator="arithmetic" k2="-1" k3="1"/>
<feColorMatrix type="matrix" values="0 0 0 0 0.839216 0 0 0 0 0.403922 0 0 0 0 0.309804 0 0 0 0.15 0"/>
<feBlend mode="normal" in2="shape" result="effect1_innerShadow"/>
</filter>
<filter id="filter11_i" x="170.033" y="67.7784" width="4.43054" height="7.04106" filterUnits="userSpaceOnUse" color-interpolation-filters="sRGB">
<feFlood flood-opacity="0" result="BackgroundImageFix"/>
<feBlend mode="normal" in="SourceGraphic" in2="BackgroundImageFix" result="shape"/>
<feColorMatrix in="SourceAlpha" type="matrix" values="0 0 0 0 0 0 0 0 0 0 0 0 0 0 0 0 0 0 127 0" result="hardAlpha"/>
<feOffset/>
<feGaussianBlur stdDeviation="1.19432"/>
<feComposite in2="hardAlpha" operator="arithmetic" k2="-1" k3="1"/>
<feColorMatrix type="matrix" values="0 0 0 0 0.839216 0 0 0 0 0.403922 0 0 0 0 0.309804 0 0 0 0.15 0"/>
<feBlend mode="normal" in2="shape" result="effect1_innerShadow"/>
</filter>
<filter id="filter12_f" x="51.4781" y="95.1724" width="70.1664" height="42.0998" filterUnits="userSpaceOnUse" color-interpolation-filters="sRGB">
<feFlood flood-opacity="0" result="BackgroundImageFix"/>
<feBlend mode="normal" in="SourceGraphic" in2="BackgroundImageFix" result="shape"/>
<feGaussianBlur stdDeviation="1.19432" result="effect1_foregroundBlur"/>
</filter>
<filter id="filter13_f" x="51.4781" y="84.4234" width="68.9721" height="41.8013" filterUnits="userSpaceOnUse" color-interpolation-filters="sRGB">
<feFlood flood-opacity="0" result="BackgroundImageFix"/>
<feBlend mode="normal" in="SourceGraphic" in2="BackgroundImageFix" result="shape"/>
<feGaussianBlur stdDeviation="1.19432" result="effect1_foregroundBlur"/>
</filter>
<filter id="filter14_f" x="84.4692" y="92.8586" width="35.3269" height="23.3669" filterUnits="userSpaceOnUse" color-interpolation-filters="sRGB">
<feFlood flood-opacity="0" result="BackgroundImageFix"/>
<feBlend mode="normal" in="SourceGraphic" in2="BackgroundImageFix" result="shape"/>
<feGaussianBlur stdDeviation="1.4929" result="effect1_foregroundBlur"/>
</filter>
<filter id="filter15_i" x="154.981" y="97.9722" width="54.5554" height="34.0753" filterUnits="userSpaceOnUse" color-interpolation-filters="sRGB">
<feFlood flood-opacity="0" result="BackgroundImageFix"/>
<feBlend mode="normal" in="SourceGraphic" in2="BackgroundImageFix" result="shape"/>
<feColorMatrix in="SourceAlpha" type="matrix" values="0 0 0 0 0 0 0 0 0 0 0 0 0 0 0 0 0 0 127 0" result="hardAlpha"/>
<feOffset dy="-0.597161"/>
<feComposite in2="hardAlpha" operator="arithmetic" k2="-1" k3="1"/>
<feColorMatrix type="matrix" values="0 0 0 0 0.483333 0 0 0 0 0.648 0 0 0 0 0.8 0 0 0 0.25 0"/>
<feBlend mode="normal" in2="shape" result="effect1_innerShadow"/>
</filter>
<filter id="filter16_i" x="156.131" y="108.533" width="21.5433" height="18.6306" filterUnits="userSpaceOnUse" color-interpolation-filters="sRGB">
<feFlood flood-opacity="0" result="BackgroundImageFix"/>
<feBlend mode="normal" in="SourceGraphic" in2="BackgroundImageFix" result="shape"/>
<feColorMatrix in="SourceAlpha" type="matrix" values="0 0 0 0 0 0 0 0 0 0 0 0 0 0 0 0 0 0 127 0" result="hardAlpha"/>
<feOffset dy="-2.38864"/>
<feGaussianBlur stdDeviation="2.98581"/>
<feComposite in2="hardAlpha" operator="arithmetic" k2="-1" k3="1"/>
<feColorMatrix type="matrix" values="0 0 0 0 0.188235 0 0 0 0 0.380392 0 0 0 0 0.588235 0 0 0 0.3 0"/>
<feBlend mode="normal" in2="shape" result="effect1_innerShadow"/>
</filter>
<filter id="filter17_i" x="190.304" y="82.7659" width="16.9757" height="15.2489" filterUnits="userSpaceOnUse" color-interpolation-filters="sRGB">
<feFlood flood-opacity="0" result="BackgroundImageFix"/>
<feBlend mode="normal" in="SourceGraphic" in2="BackgroundImageFix" result="shape"/>
<feColorMatrix in="SourceAlpha" type="matrix" values="0 0 0 0 0 0 0 0 0 0 0 0 0 0 0 0 0 0 127 0" result="hardAlpha"/>
<feOffset dy="0.597161"/>
<feGaussianBlur stdDeviation="0.597161"/>
<feComposite in2="hardAlpha" operator="arithmetic" k2="-1" k3="1"/>
<feColorMatrix type="matrix" values="0 0 0 0 0.172549 0 0 0 0 0.376471 0 0 0 0 0.603922 0 0 0 0.21 0"/>
<feBlend mode="normal" in2="shape" result="effect1_innerShadow"/>
</filter>
<filter id="filter18_i" x="174.776" y="110.372" width="54.5554" height="34.0753" filterUnits="userSpaceOnUse" color-interpolation-filters="sRGB">
<feFlood flood-opacity="0" result="BackgroundImageFix"/>
<feBlend mode="normal" in="SourceGraphic" in2="BackgroundImageFix" result="shape"/>
<feColorMatrix in="SourceAlpha" type="matrix" values="0 0 0 0 0 0 0 0 0 0 0 0 0 0 0 0 0 0 127 0" result="hardAlpha"/>
<feOffset dy="-0.597161"/>
<feComposite in2="hardAlpha" operator="arithmetic" k2="-1" k3="1"/>
<feColorMatrix type="matrix" values="0 0 0 0 0.483333 0 0 0 0 0.648 0 0 0 0 0.8 0 0 0 0.25 0"/>
<feBlend mode="normal" in2="shape" result="effect1_innerShadow"/>
</filter>
<filter id="filter19_i" x="175.925" y="120.933" width="21.5433" height="18.6306" filterUnits="userSpaceOnUse" color-interpolation-filters="sRGB">
<feFlood flood-opacity="0" result="BackgroundImageFix"/>
<feBlend mode="normal" in="SourceGraphic" in2="BackgroundImageFix" result="shape"/>
<feColorMatrix in="SourceAlpha" type="matrix" values="0 0 0 0 0 0 0 0 0 0 0 0 0 0 0 0 0 0 127 0" result="hardAlpha"/>
<feOffset dy="-2.38864"/>
<feGaussianBlur stdDeviation="2.98581"/>
<feComposite in2="hardAlpha" operator="arithmetic" k2="-1" k3="1"/>
<feColorMatrix type="matrix" values="0 0 0 0 0.188235 0 0 0 0 0.380392 0 0 0 0 0.588235 0 0 0 0.3 0"/>
<feBlend mode="normal" in2="shape" result="effect1_innerShadow"/>
</filter>
<filter id="filter20_i" x="210.098" y="95.1658" width="16.9757" height="15.2489" filterUnits="userSpaceOnUse" color-interpolation-filters="sRGB">
<feFlood flood-opacity="0" result="BackgroundImageFix"/>
<feBlend mode="normal" in="SourceGraphic" in2="BackgroundImageFix" result="shape"/>
<feColorMatrix in="SourceAlpha" type="matrix" values="0 0 0 0 0 0 0 0 0 0 0 0 0 0 0 0 0 0 127 0" result="hardAlpha"/>
<feOffset dy="0.597161"/>
<feGaussianBlur stdDeviation="0.597161"/>
<feComposite in2="hardAlpha" operator="arithmetic" k2="-1" k3="1"/>
<feColorMatrix type="matrix" values="0 0 0 0 0.172549 0 0 0 0 0.376471 0 0 0 0 0.603922 0 0 0 0.21 0"/>
<feBlend mode="normal" in2="shape" result="effect1_innerShadow"/>
</filter>
<radialGradient id="paint0_angular" cx="0" cy="0" r="1" gradientUnits="userSpaceOnUse" gradientTransform="translate(53.0532 145.728) rotate(84.8242) scale(5.33147 6.91564)">
<stop stop-color="#F8B8A5"/>
<stop offset="1" stop-color="#FFD3C6"/>
</radialGradient>
<linearGradient id="paint1_linear" x1="140.951" y1="27.3696" x2="140.951" y2="37.9675" gradientUnits="userSpaceOnUse">
<stop stop-color="#191D3D"/>
<stop offset="1" stop-color="#272D59"/>
</linearGradient>
<linearGradient id="paint2_linear" x1="123.036" y1="38.7158" x2="124.302" y2="96.0152" gradientUnits="userSpaceOnUse">
<stop stop-color="#191D3D"/>
<stop offset="0.110738" stop-color="#272D59"/>
<stop offset="0.876654" stop-color="#272D59"/>
<stop offset="0.984375" stop-color="#191D3D"/>
</linearGradient>
<linearGradient id="paint3_linear" x1="133.23" y1="44.9584" x2="133.23" y2="110.82" gradientUnits="userSpaceOnUse">
<stop stop-color="#31386C"/>
<stop offset="1" stop-color="#2D3365"/>
</linearGradient>
<linearGradient id="paint4_linear" x1="150.069" y1="61.0822" x2="150.688" y2="92.2657" gradientUnits="userSpaceOnUse">
<stop stop-color="#31386C"/>
<stop offset="1" stop-color="#2D3365"/>
</linearGradient>
<linearGradient id="paint5_linear" x1="161.432" y1="63.2837" x2="161.432" y2="103.974" gradientUnits="userSpaceOnUse">
<stop stop-color="#3E447E"/>
<stop offset="1" stop-color="#565D9A"/>
</linearGradient>
<linearGradient id="paint6_linear" x1="151.486" y1="77.453" x2="152.111" y2="87.6877" gradientUnits="userSpaceOnUse">
<stop stop-color="#E7E7E7"/>
<stop offset="1" stop-color="#F5F5F5"/>
</linearGradient>
<linearGradient id="paint7_linear" x1="171.788" y1="66.108" x2="172.413" y2="76.3427" gradientUnits="userSpaceOnUse">
<stop stop-color="#E7E7E7"/>
<stop offset="1" stop-color="#F5F5F5"/>
</linearGradient>
<linearGradient id="paint8_linear" x1="79.5446" y1="90.6954" x2="72.3787" y2="84.4253" gradientUnits="userSpaceOnUse">
<stop stop-color="#2A5D95"/>
<stop offset="1" stop-color="#2A5D95" stop-opacity="0"/>
</linearGradient>
<linearGradient id="paint9_linear" x1="206.829" y1="107.821" x2="173.529" y2="127.764" gradientUnits="userSpaceOnUse">
<stop stop-color="#D9DEE6"/>
<stop offset="0.987119" stop-color="#BAC0C9"/>
</linearGradient>
<linearGradient id="paint10_linear" x1="210.077" y1="102.723" x2="204.76" y2="110.822" gradientUnits="userSpaceOnUse">
<stop stop-color="white"/>
<stop offset="1" stop-color="white" stop-opacity="0.28"/>
</linearGradient>
<linearGradient id="paint11_linear" x1="157.118" y1="129.376" x2="172.941" y2="128.965" gradientUnits="userSpaceOnUse">
<stop stop-color="white"/>
<stop offset="1" stop-color="white" stop-opacity="0"/>
</linearGradient>
<linearGradient id="paint12_linear" x1="165.363" y1="113.191" x2="162.76" y2="125.153" gradientUnits="userSpaceOnUse">
<stop stop-color="#7DBBFF"/>
<stop offset="1" stop-color="#69A3E2"/>
</linearGradient>
<linearGradient id="paint13_linear" x1="193.376" y1="92.9869" x2="193.435" y2="101.25" gradientUnits="userSpaceOnUse">
<stop stop-color="#2D65A2"/>
<stop offset="1" stop-color="#254F7D"/>
</linearGradient>
<linearGradient id="paint14_linear" x1="208.514" y1="92.8806" x2="204.082" y2="99.4811" gradientUnits="userSpaceOnUse">
<stop stop-color="#C4E0FF"/>
<stop offset="1" stop-color="#9DB6D2"/>
</linearGradient>
<linearGradient id="paint15_linear" x1="197.372" y1="82.8215" x2="197.428" y2="90.8002" gradientUnits="userSpaceOnUse">
<stop stop-color="#D0E7FF"/>
<stop offset="1" stop-color="#D0E7FF" stop-opacity="0.59"/>
</linearGradient>
<linearGradient id="paint16_linear" x1="181.858" y1="91.1934" x2="165.69" y2="107.299" gradientUnits="userSpaceOnUse">
<stop stop-color="#4478B1" stop-opacity="0"/>
<stop offset="0.983078" stop-color="#4478B1" stop-opacity="0.78"/>
</linearGradient>
<linearGradient id="paint17_linear" x1="182.694" y1="104.562" x2="181.063" y2="105.701" gradientUnits="userSpaceOnUse">
<stop stop-color="#30376A" stop-opacity="0.7"/>
<stop offset="1" stop-color="#30376A"/>
</linearGradient>
<linearGradient id="paint18_linear" x1="179.068" y1="108.116" x2="177.437" y2="109.255" gradientUnits="userSpaceOnUse">
<stop stop-color="#30376A" stop-opacity="0.7"/>
<stop offset="1" stop-color="#30376A"/>
</linearGradient>
<linearGradient id="paint19_linear" x1="176.092" y1="111.74" x2="174.461" y2="112.879" gradientUnits="userSpaceOnUse">
<stop stop-color="#30376A" stop-opacity="0.7"/>
<stop offset="1" stop-color="#30376A"/>
</linearGradient>
<linearGradient id="paint20_linear" x1="193.438" y1="105.898" x2="193.142" y2="114.623" gradientUnits="userSpaceOnUse">
<stop stop-color="#30376A" stop-opacity="0.7"/>
<stop offset="1" stop-color="#30376A"/>
</linearGradient>
<linearGradient id="paint21_linear" x1="226.623" y1="120.221" x2="193.323" y2="140.164" gradientUnits="userSpaceOnUse">
<stop stop-color="#D9DEE6"/>
<stop offset="0.987119" stop-color="#BAC0C9"/>
</linearGradient>
<linearGradient id="paint22_linear" x1="229.872" y1="115.122" x2="224.555" y2="123.222" gradientUnits="userSpaceOnUse">
<stop stop-color="white"/>
<stop offset="1" stop-color="white" stop-opacity="0.28"/>
</linearGradient>
<linearGradient id="paint23_linear" x1="176.913" y1="141.776" x2="192.735" y2="141.365" gradientUnits="userSpaceOnUse">
<stop stop-color="white"/>
<stop offset="1" stop-color="white" stop-opacity="0"/>
</linearGradient>
<linearGradient id="paint24_linear" x1="185.157" y1="125.591" x2="182.555" y2="137.553" gradientUnits="userSpaceOnUse">
<stop stop-color="#7DBBFF"/>
<stop offset="1" stop-color="#69A3E2"/>
</linearGradient>
<linearGradient id="paint25_linear" x1="213.171" y1="105.387" x2="213.229" y2="113.65" gradientUnits="userSpaceOnUse">
<stop stop-color="#2D65A2"/>
<stop offset="1" stop-color="#254F7D"/>
</linearGradient>
<linearGradient id="paint26_linear" x1="228.308" y1="105.281" x2="223.876" y2="111.881" gradientUnits="userSpaceOnUse">
<stop stop-color="#C4E0FF"/>
<stop offset="1" stop-color="#9DB6D2"/>
</linearGradient>
<linearGradient id="paint27_linear" x1="217.166" y1="95.2212" x2="217.223" y2="103.2" gradientUnits="userSpaceOnUse">
<stop stop-color="#D0E7FF"/>
<stop offset="1" stop-color="#D0E7FF" stop-opacity="0.59"/>
</linearGradient>
<linearGradient id="paint28_linear" x1="201.652" y1="103.593" x2="185.484" y2="119.699" gradientUnits="userSpaceOnUse">
<stop stop-color="#4478B1" stop-opacity="0"/>
<stop offset="0.983078" stop-color="#4478B1" stop-opacity="0.78"/>
</linearGradient>
<linearGradient id="paint29_linear" x1="202.488" y1="116.962" x2="200.857" y2="118.101" gradientUnits="userSpaceOnUse">
<stop stop-color="#30376A" stop-opacity="0.7"/>
<stop offset="1" stop-color="#30376A"/>
</linearGradient>
<linearGradient id="paint30_linear" x1="198.863" y1="120.516" x2="197.231" y2="121.655" gradientUnits="userSpaceOnUse">
<stop stop-color="#30376A" stop-opacity="0.7"/>
<stop offset="1" stop-color="#30376A"/>
</linearGradient>
<linearGradient id="paint31_linear" x1="195.886" y1="124.14" x2="194.255" y2="125.279" gradientUnits="userSpaceOnUse">
<stop stop-color="#30376A" stop-opacity="0.7"/>
<stop offset="1" stop-color="#30376A"/>
</linearGradient>
<linearGradient id="paint32_linear" x1="213.232" y1="118.298" x2="212.937" y2="127.023" gradientUnits="userSpaceOnUse">
<stop stop-color="#30376A" stop-opacity="0.7"/>
<stop offset="1" stop-color="#30376A"/>
</linearGradient>
<linearGradient id="paint33_linear" x1="145.018" y1="141.202" x2="132.179" y2="135.828" gradientUnits="userSpaceOnUse">
<stop stop-color="#F2BD00"/>
<stop offset="1" stop-color="#FFC700"/>
</linearGradient>
</defs>
</svg>
