<svg xmlns="http://www.w3.org/2000/svg" width="264" height="210" fill="none"><mask id="A" mask-type="alpha" maskUnits="userSpaceOnUse" x="0" y="0" width="264" height="210"><path fill="#c4c4c4" d="M0 0h264v210H0z"/></mask><g mask="url(#A)"><circle r="80.739" transform="matrix(-1 0 0 1 169.134 88.1599)" fill="url(#B)"/><path d="M173.084 149.008l-9.57-.77-32.81-11.62s-12.337-4.785-18.457 5.925c-3.237 5.665 11.393 40.33 11.393 40.33s32.356 4.1 32.356 0c5.19 1.297-24.43-30.838-24.43-30.838s42.374 20.322 46.266 17.728 4.756-20.755 4.756-20.755h-9.502z" fill="#242333"/><path d="M158.71 108.818l-14.583 26.204-33.95 22.558s-12.76 2.05-14.67 9.115c1.226.683 5.104-1.722 8.062-2.507 3.16-.838 3.646 0 6.608-.683 5.013-.456 41.768-21.536 43.065-23.698s14.034-27.12 14.034-27.12l-8.565-3.87z" fill="#dca46f"/><path d="M170.614 89.807s-19 20.74-18.567 24.417 5.048 5.22 8.457 6.265 19.84-11.313 19.84-11.313l-9.73-19.37z" fill="#d0dee9"/><path d="M45.35 137.22l-2.8 11.59c-.03.13-.027.264.014.39L55.3 189.035c.05.157.153.293.292.384s.304.132.47.116a.73.73 0 0 0 .437-.205c.118-.116.193-.27.21-.434l1.763-15.517a.73.73 0 0 0-.031-.307l-11.7-35.906c-.05-.15-.145-.28-.274-.37s-.284-.135-.442-.13a.72.72 0 0 0-.431.163c-.122.1-.208.237-.245.4z" fill="#2f2e41"/><path d="M46.383 138.2l-2.594 9.945 11.5 36.78 2.346-11.7L46.383 138.2z" fill="#f2f2f2"/><path d="M249.562 191.653c0 7.14-25.86 10.63-42.316 4.594-19.675 5.367-30.94 0-38.08-.27s-13.963 6.576-28.242 2.194c-4.748 1.424-27.328 4.587-33.198-3.663-17.61 2.048-51.826 1.12-52.8-5.777-1.838-13.005 88.74-5.488 127.21-5.488s67.428 1.27 67.428 8.41z" fill="#6786a4" fill-opacity=".1"/><path d="M56.647 189.71l-.75-1.786 2.346-14.62 42.6-.912s2.054 11.887 2.28 17.318H56.647z" fill="#403f5b"/><g fill="#000"><path opacity=".15" d="M63.027 175.582l-1.95 11.88H80.8v-11.88H63.027zm22.33-.456l.684 12.304h12.077l-.9-12.532-11.85.228z"/></g><path d="M127.968 67.804c2.203 1.97 4.977 3.116 4.977 3.116s-4.35-.684-6.03-2.35-1.9-4.613-1.9-4.613.76 1.876 2.963 3.846z" fill="#152b41"/><path d="M144.13 83.902c-.87-.294-3.186-11.322-3.857-16.772l2.964-6.465 4.89-5.182 8.968 2.965 7.807.08 5.32 3.225 9.98 15.905c2.037 2.4 7.724 6.003 7.91 6.464s-12.575 15.584-20.63 24.23c-4.096-7.52-.9-15.403-5.47-22.33 1.993-2.306 1.533-1.947 2.26-2.706-1.352 1.258-8.555 9.07-9.896 8.402-1.072-.534-5.37-6.02-7.383-8.696-.592.417-1.994 1.177-2.863.882z" fill="#e8b483"/><path d="M172.628 102.438c-1.367 2.28-4.102-.91-5.147 5.913-4.096-7.52-.9-15.403-5.47-22.33.362-.217 1.73-2.267 2.185-2.723 2.962 4.785 7.29 11.85 8.43 19.14z" fill="#dca46f"/><g fill="#152b41"><path d="M170.12 69.293c-.352-8.398-4.425-10.135-6.658-8.977-5.387 2.793.977 6.912-1.192 9.23-12.532 2.49-11.372-5.33-13.59-8.32-.026 1.134-4.583 7.75-10.73 9.505-7.4 2.108-16.502-7.916-8.877-11.1 1.247-.52 7.22-4.483 7.993-6.393-.012-1.35 3.798-8.454 9.978-10.895s7.75-.526 9.314-.114c2.408.633 5.082-2.333 10.083-.646 10.606 3.577 9.445 14.684 11.314 23.768-.524 2.977 5.46 3.05 2.436 6.677-1.415 1.698-10.1-1.32-10.07-2.736z"/><path d="M158.253 42.95c-.576 1.62-4.02 8.02-4.02 8.02s.06-5.918 2.275-8.754 5.646-3.664 5.646-3.664-3.324 2.78-3.9 4.398zm20.875 22.76c.893 1.53 2.263 2.696 2.263 2.696s-2.353-1.193-3.005-2.453-.236-2.983-.236-2.983.086 1.2.978 2.74z"/></g><circle r="2.996" transform="matrix(-.780954 .624589 .624589 .780954 154.979 75.6419)" fill="#fd6559" fill-opacity=".28"/><g stroke="#0f2337" stroke-width=".387" stroke-linecap="round"><path d="M151.613 84.1c.236.846-.593 2.308-1.74 3.027m-4.9-13.837c.297-.827 1.818-1.54 3.17-1.462"/></g><path d="M162.146 115.2l-16.178 26.43-41.243 27.8s-9.114 0-12.76 2.963c-1.47 1.595-4.102 6.152-3.2 6.835 1.225.557 4.008-2.193 7.29-2.962 3.436-.804 5.925.684 8.66 0 4.102-.456 43.503-18.058 52.583-27.57s22.61-27.115 22.61-27.115l-17.773-6.38z" fill="#e8b483"/><path d="M176.665 153.547l-8.595 2.895-27.56-4.422c-6.794-2.137-15.76-2.517-20.385 2.38-4.67 4.947-5.013 10.71-.967 16.874 12.455 13.877 27.494 7.04 27.494 7.04s40.692 20.3 59.416 12.85c15.908-6.322 9.08-18.16 9.08-18.16s-33.294-20.755-38.483-19.458z" fill="#333245"/><path d="M188.35 81.02c-.875-.234-2.506-.456-3.873-.228-2.733.275-6.608.683-10.106 5.444-1.692 2.303-6.054 9.595-6.054 9.595s-8.215 9.8-6.485 15.43 6.485 10.862 6.485 10.862 8.185 1.733 7.957 3.784c-.456 1.823-6.608 6.38-7.957 10.254.506 8.034 2.2 15.912 6.92 19.69 8.647 6.918 7.646 3.704 10.608 8.49 2.506 5.545 28.307 26.966 33.495 14.427 0 0-2.594-23.35-1.73-31.564.852-8.097.58-58.105-29.26-66.183z" fill="#fff"/><path d="M178.402 117.852c-7.59 5.675-2.356 8.512-2.356 8.512-.456 1.14-5.47 4.785-7.786 9.798 0 7.063 2.317 13.618 3.912 15.95 0 0 1.595 3.418 5.924 5.924.14-6.3-4.785-25.976 0-28.482s12.508-17.1 13.9-19.596c2.28-4.102 0-7.292 0-7.292s-6.002 9.5-13.594 15.186z" fill="#deeaf4"/><path d="M170.777 91.755s-21.85 30.366-13.49 32.422c0 0 15.123 5.826 18.343 4.5s14.5-22.06 17.48-24.23-1.545-25.14-22.332-12.683z" fill="#fff"/><path d="M103.13 189.71H56.647l.197.787c.152.61.7 1.036 1.326 1.036h43.33a1.37 1.37 0 0 0 1.28-.887l.35-.936z" fill="#2a293a"/><path d="M143.01 179.763c5.665.427 12.646-.205 15.546 2.24s-10.837 1.146-10.837 1.146l-9.063 1.285c-.226.1-21.64-5.704-24.87-8.01 0 0 3.114-.975 7.466-.87s6.756 1.337 11.12 2.832 4.972.953 10.638 1.38z" fill="#adadad"/><path d="M155.44 180.838c3.315.277 6.12 3.602 6.56 5.54s1.02 5.45-3.934 7.875-11.802.476-16.92.262c-3.057-.128-16.916 3.45-24.382-.327-.79-.4-11.16-4.902-8.726-13.394 2.266-4.48 6.752-5.678 16.27-4.587 6.048 1.224 6.467 4.33 13.908 5.5 3.74.592 10.756-1.983 17.225-.88z" fill="#c4c4c4"/><path d="M139.36 172.62l8.203 6.153-10.254-1.823-5.468-4.33 3.646-1.14 1.822 1.14h2.05z" fill="#242333"/><g fill="#eff8ff"><ellipse rx="21.279" ry="21.364" transform="matrix(-.88665 -.46244 -.457434 .889244 48.9765 21.6828)"/><ellipse rx="21.279" ry="21.364" transform="matrix(-.88665 -.46244 -.457434 .889244 61.7852 47.5296)"/><ellipse rx="14.75" ry="14.809" transform="matrix(-.88665 -.46244 -.457434 .889244 50.5461 70.9647)"/><ellipse rx="16.685" ry="16.751" transform="matrix(-.88665 -.46244 -.457434 .889244 25.5639 20.1505)"/><ellipse rx="27.566" ry="27.676" transform="matrix(-.88665 -.46244 -.457434 .889244 27.6333 49.4312)"/></g><g fill="#fff"><ellipse rx="7.98" ry="8.011" transform="matrix(-.88665 -.46244 -.457434 .889244 93.2898 76.8929)"/><ellipse rx="4.594" ry="4.613" transform="matrix(-.88665 -.46244 -.457434 .889244 111.013 81.0513)"/></g><path fill-rule="evenodd" d="M48.003 37.194c.244-.554.167-1.135.088-1.4s-.436-.572-.84-.572c1.387-4.04.404-5.928-.276-6.355-.623-.173-1.745.356-2.292.517s-1.443.335-2.087.803c-.72.524-1.108 1.388-.976 2.73-3.002.753-5.43.338-7.287-1.243-2.785-2.372-1.928-5.055-3.657-5.055s-1.824.064-3.686-.17c-.172-.02-.328.078-.503.34-1.778 2.13-2.876 3.758-3.614 4.822-.97.4-1.816 2.788-2.55 4.182-.89.396-1.177 2.798-1.177 3.112s-1.435 1.322-1.435 1.322-1.245.802-1.245 1.66.562 3.394 8.002 6.54c.205-.108.327-.223.653-.39l.908.39.235.772 1.633.664.653-.332 1.55.55.225.87 1.48.6.69-.43 1.647.71v.834l1.808.77.65-.443 1.46.6.16.788 1.718.812.858-.286 1.47.618.163.663 1.015.48.568-.338.553.225.116.552.627.247.46-.247.618.262.09.62.684.276.523-.22.58.22.082.525.63.263.48-.34.877.343.062.502.82.332.406-.29.867.245.078.416.792.207.404-.312.748.206.217.54.898.235.364-.374.895.148.234.465h1.13l.22-.504.95-.1.237.448.924-.197v-.456c.446-.144.763-.285.953-.422 2.863-1.163 4.14-2.785 4.028-4.6-.168-2.723-.955-2.822-2.734-3.726l-5.012-3.024-2.906-2.842" fill="#aecce4"/><g fill="#2a4764"><path d="M25.12 48.038c-.327.166-.448.28-.653.4-3.822-1.616-6.327-3.262-7.332-4.793-.992-1.3-.67-2.212-.67-2.212s37.863 20.6 47.413 17.357c-1.005.85-2.86 1.635-3.306 1.78v.456l-.924.197-.236-.448-.95.1-.22.504h-1.13l-.234-.465-.895-.148-.364.374-.898-.235-.217-.54-.748-.206-.404.312-.792-.207-.078-.416-.867-.245-.406.3-.82-.332-.06-.502-.877-.343-.48.34-.63-.262-.082-.525-.578-.22-.523.22-.684-.276-.1-.62-.618-.262-.46.247-.627-.247-.116-.552-.552-.225-.568.338-1.015-.48-.163-.663-1.47-.618-.858.286-1.718-.812-.16-.788-1.46-.6-.65.443-1.808-.77v-.834l-1.647-.7-.7.43-1.48-.6-.225-.87s-.572-.217-1.552-.55l-.653.332-1.633-.664-.235-.772-.908-.4zm39.115 4.446L59.71 49.93l-2.345 1.532-4.2-1.2s-.838 2.212 1.005 2.893c0 0 10.22 2.212 10.9 1.2s-.838-1.872-.838-1.872z"/></g><path d="M47.93 36.093c-.106-.155-.068-.368.085-.477s.363-.07.47.084l7.856 11.446-.555.393-7.856-11.446z" fill="#7197b4"/><path d="M27.522 44.485L47.46 37.4c.335-.5 1.474-.647 2.01.17s2.848 5.786 6.702 9.36c1.06 1.02 2.513 2.3 3.518 2.99.44.298-1.508 2.114-2.01 2.114-1.34 0-4.69-1.53-7.037-1.872-2.407-.35-5.64 2.1-7.54 3.404l-15.58-9.092z" fill="#8cacc6"/><path d="M54.948 46.868h1.005L50.76 39.9c-3.183-4.254-2.513-7.318-2.513-7.318l-3.35.68L49.42 40.4l5.53 6.467z" fill="#2a4764"/><g fill="#fff"><path d="M40.643 54.238c-5.063-2.82-22.514-8.026-24.17-12.773-.162-.925 2.573-2.24 2.37-2.605 1.59 2.514 14.595 6.865 21.638 12.393 7.35 5.142 17.312 8.64 22.7 7.63-7.023 3.152-17.475-1.825-22.537-4.645z"/><g fill-rule="evenodd"><path d="M45.495 39.378c-.186-.277-.113-.652.182-.812.387-.2.95-.473 1.553-.606.52-.115 1.095-.08 1.554-.01.5.074.747.578.6 1.05a.04.04 0 0 1-.038.028c-.173.003-1.093.025-1.828.206l-1.3.383a.62.62 0 0 1-.713-.24zm2.46 2.608c-.095-.3.025-.607.302-.736.336-.157.8-.346 1.268-.416.508-.078 1.182-.052 1.636-.02a.55.55 0 0 1 .505.549.58.58 0 0 1-.529.585l-1.227.1c-.207.02-.696.186-1.103.334-.35.127-.736-.054-.852-.407zm2.114 2.604c-.094-.293.025-.615.303-.748.312-.15.74-.323 1.157-.385.474-.07 1.104-.036 1.53.002.277.025.483.257.5.535a.58.58 0 0 1-.544.592l-1.098.1a29.86 29.86 0 0 0-.986.329c-.355.122-.74-.07-.853-.426zm2.582 2.6c-.1-.3.032-.607.306-.74.3-.15.72-.322 1.047-.367.37-.05.98-.01 1.407.03.275.026.482.255.492.532a.58.58 0 0 1-.54.596l-.987.077c-.12.02-.516.157-.873.287s-.74-.06-.852-.416z"/><path d="M50.893 41.915c-.225-.077-.392-.274-.386-.513.005-.205.038-.455.145-.655.124-.233.38-.483.58-.66a.53.53 0 0 1 .605-.054.59.59 0 0 1 .202.844l-.194.286c-.028.043-.054.122-.077.218-.096.398-.488.665-.874.533zm-1.955-2.775c-.24-.08-.415-.297-.4-.552.014-.233.06-.522.18-.758.14-.27.418-.57.633-.777.17-.166.43-.187.637-.07.3.166.384.544.202.825l-.275.43c-.043.07-.085.217-.122.385-.086.4-.478.642-.856.516zm3.514 5.342c-.248-.083-.43-.305-.415-.567.012-.218.053-.48.165-.696.135-.26.4-.54.62-.737a.52.52 0 0 1 .612-.061c.297.167.383.556.193.838l-.226.374a5.83 5.83 0 0 0-.079.345.67.67 0 0 1-.87.504zm1.95 2.665c-.248-.084-.426-.312-.4-.574.013-.224.05-.487.144-.663.112-.208.4-.5.604-.693a.53.53 0 0 1 .625-.069.58.58 0 0 1 .196.829l-.223.35c-.023.045-.053.168-.083.315a.66.66 0 0 1-.852.505z"/></g></g><path d="M31.04 26.446h-4.188c.893.113 2.947.38 3.183.68 1.173.68.335 5.446 3.518 6.807 3.13 1.34 8.042-1.02 8.042-1.02-9.55 1.872-8.88-6.467-10.555-6.467z" fill="#5a7387"/><path d="M32.38 39.38c-.268 0-4.914-5.105-7.204-7.658l4.86-.17c.67 1.02 2.104 2.365 3.35 2.893 2 .85 5.36-.17 5.36 0v2.383c0 .34-6.03 2.553-6.367 2.553z" fill="#2a4764"/><path d="M22.83 31.382l3.35-4.175c.335-.68 2.848-.51 3.183.34s.335 4.005 1.843 5.366c-1.34 1.532-2.68 1.782-3.518 1.1-.943-.767-1.843-1.928-2.68-2.212-.503-.17-.67 0-1.005 0l-1.173-.42z" fill="#f0f0f0"/><path d="M48.967 29.17c-.335-1.36-1.005-1.36-1.005-1.36s-7.42 0-6.416 5.105c.168.17 1.893-1.532 2.397-1.097.334.246 1.633 2.654 2.123 3.152l2.232-.694s1.173-3.233.67-5.105z" fill="#2a4764"/><path d="M48.967 29.17c-.335-1.36-1.005-1.36-1.005-1.36s-.855 0-1.896.202c2.064.308 2.734 2.52 1.56 6.435.335-.17.67-.17.67-.17s1.173-3.233.67-5.105z" fill="#b9cfe1"/><path d="M23.17 31.21c-.838 0-3.35 4.935-4.02 7.658-.168.34 4.127 3.187 5.36 3.744 1.508.68 6.7 2.553 9.382 4.254l-.168-3.574c-.838-1.19-9.55-12.083-10.555-12.083z" fill="#fd6559"/><path d="M20.15 35.976c-.838.17-1.148 2.893-.98 3.063l5.194 3.574 3.686 1.532c0-1.532-.72-2.795-2.705-4.254-.695-.51-4.47-4.062-5.194-3.914z" fill="#8cacc6"/><path d="M17.302 40.23l1.843-1.532s1.34 1.36 3.853 2.893 7.54 3.233 10.9 5.276 8.21 5.446 8.21 5.446l-17.59-7.318c-2.01-.85-5.864-2.723-7.204-4.765z" fill="#f0f0f0"/><g fill="#364d78"><path d="M221.148 153.253c.44.1 3.107 4.817 1.223 8.15l-3.046-4.708 1.823-3.443zm-7.698-.001c-.332.308-.202 3.85.926 7.68l2.156-5.145-3.082-2.535z"/></g><path d="M230.404 188.692c2.463-4.316 2.334-6.67 1.685-8.5l-10.535-2.43 1.718 7.27c0 .26 1.685 3.27 1.945 3.4s-.26 3.147-.65 3.14c-1.596-.036-1.857 1.266-1.596 1.787.303.608 1.434.575 1.823.608.518.044 1.07.09 1.46-.04s1.102-.523 1.297-1.308c.26-1.046 1.945-3.923 2.204-3.793.208.105.52-.043.65-.13z" fill="#31456c"/><path d="M245.925 162.165c-.85 2.408.85 14.59-.85 15.722v3.117c5.383-2.125 1.39-17.22 8.5-20.68 1.804-1.197 14.767-5.248 8.923-10.764-9.207-6.8-16.147 7.8-16.572 12.606z" fill="#4b679d"/><g fill="#6b82ae"><path d="M247.48 177.558l-1.62-2.025v-2.836l2.313 2.073-.693 2.788zm-1.62-9.318l3.02.438.6-2.908-3.823-.568.203 3.038zm.36-7c0 .7 2.988 1.392 4.5 1.534l1.62-1.823c-.708-1.275-4.7-1.703-5.266-2.836-.283.567-.853 2.133-.853 3.125zm10.876-5.44c1.045.245 2.298 1.624 2.298 1.624l1.84-1.133c.142-.142-.457-2.966-2.298-3.75s-3.52.798-5.524 0c-.97-.386-1.95-1.35-2.093-1.35s-.425.283-.85.85l-.85 1.133s1.734 2.557 3.5 3.05c1.5.416 2.44-.784 3.966-.425z"/></g><path d="M209.93 174.637c.493 0 .74-.482.74-.482l1.972 4.82-6.164-3.134c-.37-.24-.493 0-1.233 0s-1.11-.482-1.11-1.205.616-1.205 1.356-1.325 3.945 1.325 4.438 1.325z" fill="#3b5584"/><path d="M226.82 165.205c-5.853-4.572-2.437-9.773-9.66-9.773-3.542 0-7.508 2.833-7.508 9.773 0 4.435.218 8.45 3.192 15.39 2.943 4.988 10.668 10.307 16.204 12.152 7.09 0 3.874 1.216 9.317 1.216s10.377-9.855 7.265-15.444c-1.697-3.048-3.724-5.145-5.848-6.695-4.686-3.423-9.843-4.183-12.962-6.62z" fill="#5572aa"/><path d="M234.92 193.964c.567-1.417-.385-2.676-.8-4.66l1.215-8.912c-8.392 5.874-12.24-4.86-18.52-4.86-3.403-.497-5.38 0-6.19-1.417.494 8.646 12.917 18.685 21.267 19.444l3.038.405z" fill="#3b5584"/><path d="M238.567 193.964c2.836-.203-2.4-2.676-2.835-4.66v-9.317s-7.008 2.228-7.494 7.09c-.46 4.587 1.93 5.928 2.203 6.065-.662-.312-5.034-1.776-4.634.822.405 2.633 9.925.202 12.76 0z" fill="#5572aa"/><g fill="#192740"><path d="M223.444 163.148l-9.278-1.635s-.232-.026-.227-.24.24-.227.24-.227l9.266 2.1zm-3.874 1.182l-5.08-1.877s-.232-.006-.226-.238.238-.227.238-.227l5.067 2.342zm-17.1-4.608l9.33 1.304s.23.047.3-.157-.157-.3-.157-.3l-9.462-.857zm3.32 2.318l5.4-.22s.223.066.3-.157-.157-.3-.157-.3l-5.542.667z"/></g><path d="M212.765 159.966l.563.055c.24.023.342.315.17.483l-.35.345c-.135.133-.36.1-.45-.068l-.214-.4c-.106-.2.053-.437.278-.415z" fill="#fff"/><g stroke="#0f2337" stroke-linecap="round" stroke-width=".283"><path d="M216.332 158.806c.326-.16.984.065 1.364.476m-5.36-1c.223-.287.913-.373 1.435-.17"/></g><path d="M222.768 188.1c2.464-4.316 1.864-9.31 1.216-11.14l-13.368-2.835c0 1.417 4.958 11.92 4.958 12.13 0 .26 1.686 3.27 1.945 3.4s-.265 3.07-.648 3.14c-1.426.26-1.645 1.363-1.297 1.83.39.523 1.167.36 1.556.392.52.044 1.038.262 1.427.13s1.102-.523 1.296-1.308c.26-1.046.993-5.257 1.7-5.132.23.04 1.013-.253 1.215-.608z" fill="#5572aa"/><path d="M225.49 167.16c-.85.957.99 5.525 3.4 6.09 1.983.708 4.816-.355 4.816-1.84s-1.7-.992-3.825-1.84c-1.84-.992-3.257-3.684-4.4-2.41z" fill="#5f7cb5"/></g><defs><linearGradient id="B" x1="92.95" y1="-1.597" x2="77.059" y2="145.587" gradientUnits="userSpaceOnUse"><stop offset=".018" stop-color="#0094fc" stop-opacity=".02"/><stop offset="1" stop-color="#0094fc" stop-opacity=".1"/></linearGradient></defs></svg>
