<svg width="798" height="600" viewBox="0 0 798 600" fill="none" xmlns="http://www.w3.org/2000/svg">
<g clip-path="url(#clip0)">
<rect width="798" height="600" fill="white"/>
<g filter="url(#filter0_ddd)">
<path d="M-1 0H799V600H-1V0Z" fill="white"/>
<path d="M-0.75 0.25H798.75V599.75H-0.75V0.25Z" stroke="#B5B6B7" stroke-width="0.5"/>
</g>
<rect x="439" y="221" width="273" height="10" rx="2" fill="#F6F6F6"/>
<rect x="439" y="247" width="273" height="10" rx="2" fill="#F6F6F6"/>
<rect x="439" y="273" width="273" height="10" rx="2" fill="#F6F6F6"/>
<rect x="439" y="299" width="273" height="10" rx="2" fill="#F6F6F6"/>
<rect x="439" y="325" width="273" height="10" rx="2" fill="#F6F6F6"/>
<rect x="439" y="351" width="273" height="10" rx="2" fill="#F6F6F6"/>
<rect x="423" y="223" width="6" height="6" rx="3" fill="#E8E8E8"/>
<rect x="423" y="249" width="6" height="6" rx="3" fill="#E8E8E8"/>
<rect x="423" y="275" width="6" height="6" rx="3" fill="#E8E8E8"/>
<rect x="423" y="301" width="6" height="6" rx="3" fill="#E8E8E8"/>
<rect x="423" y="327" width="6" height="6" rx="3" fill="#E8E8E8"/>
<rect x="423" y="353" width="6" height="6" rx="3" fill="#E8E8E8"/>
<path fill-rule="evenodd" clip-rule="evenodd" d="M398 120L797 120V192H398L398 120Z" fill="#F6F6F6"/>
<path fill-rule="evenodd" clip-rule="evenodd" d="M112.5 416C112.5 413.791 114.291 412 116.5 412H280.5C282.709 412 284.5 413.791 284.5 416V442C284.5 444.209 282.709 446 280.5 446H116.5C114.291 446 112.5 444.209 112.5 442V416Z" fill="#F6F6F6"/>
<path d="M69 302.989C81.5923 302.989 81.9005 278.129 94.6498 278.129C107.399 278.129 107.945 316.019 120.199 316.019C132.452 316.019 132.452 291.006 145.421 291.006C158.391 291.006 157.828 304.446 170.882 304.446C183.936 304.446 183.936 240.5 196.614 240.5C209.291 240.5 209.291 355.5 222.61 355.5C234.918 355.5 233.871 252.986 247.538 252.986C261.206 252.986 259.888 304.446 273.235 304.446C286.583 304.446 285.861 329.762 298.818 329.762C311.775 329.762 311.775 278.129 325 278.129" stroke="#DBDBDB" stroke-width="3" stroke-linecap="round"/>
<rect x="64.5" y="300.5" width="8.5" height="8.5" rx="4.25" fill="#DBDBDB" stroke="white" stroke-linecap="round" stroke-linejoin="round"/>
<rect x="90.5" y="274.5" width="8.5" height="8.5" rx="4.25" fill="#DBDBDB" stroke="white" stroke-linecap="round" stroke-linejoin="round"/>
<rect x="116.5" y="312.5" width="8.5" height="8.5" rx="4.25" fill="#DBDBDB" stroke="white" stroke-linecap="round" stroke-linejoin="round"/>
<rect x="141.5" y="287.5" width="8.5" height="8.5" rx="4.25" fill="#DBDBDB" stroke="white" stroke-linecap="round" stroke-linejoin="round"/>
<rect x="167.5" y="300.5" width="8.5" height="8.5" rx="4.25" fill="#DBDBDB" stroke="white" stroke-linecap="round" stroke-linejoin="round"/>
<rect x="192.5" y="236.5" width="8.5" height="8.5" rx="4.25" fill="#DBDBDB" stroke="white" stroke-linecap="round" stroke-linejoin="round"/>
<rect x="319" y="272" width="12.5" height="12.5" rx="6.25" fill="#DBDBDB" stroke="white" stroke-width="2" stroke-linecap="round" stroke-linejoin="round"/>
<rect x="244.5" y="249.5" width="8.5" height="8.5" rx="4.25" fill="#DBDBDB" stroke="white" stroke-linecap="round" stroke-linejoin="round"/>
<rect x="270.5" y="300.5" width="8.5" height="8.5" rx="4.25" fill="#DBDBDB" stroke="white" stroke-linecap="round" stroke-linejoin="round"/>
<rect x="295.5" y="326.5" width="8.5" height="8.5" rx="4.25" fill="#DBDBDB" stroke="white" stroke-linecap="round" stroke-linejoin="round"/>
<rect x="216" y="349" width="12.5" height="12.5" rx="6.25" fill="#DBDBDB" stroke="white" stroke-width="2" stroke-linecap="round" stroke-linejoin="round"/>
<path fill-rule="evenodd" clip-rule="evenodd" d="M-1 120L398 120V192H-1L-1 120Z" fill="#F6F6F6"/>
<path d="M24 149C24 146.791 25.7909 145 28 145H309C311.209 145 313 146.791 313 149V163C313 165.209 311.209 167 309 167H28C25.7909 167 24 165.209 24 163V149Z" fill="#E8E8E8"/>
<path fill-rule="evenodd" clip-rule="evenodd" d="M754 174C763.941 174 772 165.941 772 156C772 146.059 763.941 138 754 138C744.059 138 736 146.059 736 156C736 165.941 744.059 174 754 174Z" fill="#E8E8E8"/>
<path d="M423 149C423 146.791 424.791 145 427 145H708C710.209 145 712 146.791 712 149V163C712 165.209 710.209 167 708 167H427C424.791 167 423 165.209 423 163V149Z" fill="#E8E8E8"/>
<path d="M423 416C423 413.791 424.791 412 427 412H708C710.209 412 712 413.791 712 416V430C712 432.209 710.209 434 708 434H427C424.791 434 423 432.209 423 430V416Z" fill="#E8E8E8"/>
<rect x="476" y="445" width="53" height="53" rx="2" transform="rotate(90 476 445)" fill="#F6F6F6"/>
<rect x="535" y="445" width="53" height="53" rx="2" transform="rotate(90 535 445)" fill="#F6F6F6"/>
<rect x="594" y="445" width="53" height="53" rx="2" transform="rotate(90 594 445)" fill="#F6F6F6"/>
<rect x="653" y="445" width="53" height="53" rx="2" transform="rotate(90 653 445)" fill="#F6F6F6"/>
<rect x="712" y="445" width="53" height="53" rx="2" transform="rotate(90 712 445)" fill="#F6F6F6"/>
<rect x="772" y="445" width="53" height="53" rx="2" transform="rotate(90 772 445)" fill="#F6F6F6"/>
<path fill-rule="evenodd" clip-rule="evenodd" d="M355 174C364.941 174 373 165.941 373 156C373 146.059 364.941 138 355 138C345.059 138 337 146.059 337 156C337 165.941 345.059 174 355 174Z" fill="#E8E8E8"/>
<path d="M398 120V530" stroke="#E6E6E6"/>
<rect x="-1" y="530" width="133" height="70" fill="white"/>
<path d="M27 555C27 553.895 27.8954 553 29 553H102C103.105 553 104 553.895 104 555V575C104 576.105 103.105 577 102 577H29C27.8954 577 27 576.105 27 575V555Z" fill="#E8E8E8"/>
<rect x="132" y="530" width="133" height="70" fill="white"/>
<path d="M160 555C160 553.895 160.895 553 162 553H235C236.105 553 237 553.895 237 555V575C237 576.105 236.105 577 235 577H162C160.895 577 160 576.105 160 575V555Z" fill="#E8E8E8"/>
<rect x="265" y="530" width="133" height="70" fill="#F6F6F6"/>
<path d="M293 555C293 553.895 293.895 553 295 553H368C369.105 553 370 553.895 370 555V575C370 576.105 369.105 577 368 577H295C293.895 577 293 576.105 293 575V555Z" fill="#E8E8E8"/>
<rect x="398" y="530" width="133" height="70" fill="#F6F6F6"/>
<path d="M426 555C426 553.895 426.895 553 428 553H501C502.105 553 503 553.895 503 555V575C503 576.105 502.105 577 501 577H428C426.895 577 426 576.105 426 575V555Z" fill="#E8E8E8"/>
<rect x="531" y="530" width="133" height="70" fill="#F6F6F6"/>
<path d="M559 555C559 553.895 559.895 553 561 553H634C635.105 553 636 553.895 636 555V575C636 576.105 635.105 577 634 577H561C559.895 577 559 576.105 559 575V555Z" fill="#E8E8E8"/>
<rect x="664" y="530" width="133" height="70" fill="#F6F6F6"/>
<path d="M692 555C692 553.895 692.895 553 694 553H767C768.105 553 769 553.895 769 555V575C769 576.105 768.105 577 767 577H694C692.895 577 692 576.105 692 575V555Z" fill="#E8E8E8"/>
<path d="M265 530V600" stroke="#E6E6E6"/>
<path d="M132 550V580" stroke="#E6E6E6"/>
<path d="M531 530V600" stroke="#E6E6E6"/>
<path d="M398 550V580" stroke="#E6E6E6"/>
<path d="M664 530V600" stroke="#E6E6E6"/>
<path d="M-1 530H797" stroke="#E6E6E6"/>
<rect x="-1" y="40" width="798" height="80" fill="white"/>
<path d="M-1 120H799.5" stroke="#E6E6E6"/>
<rect x="105" y="64.5148" width="667" height="10.9704" rx="2.19408" fill="#F6F6F6"/>
<rect x="105" y="85" width="386" height="10" rx="2" fill="#F6F6F6"/>
<rect x="25" y="50" width="60" height="60" rx="4" fill="#F6F6F6"/>
<rect x="-1" width="798" height="40" fill="#F6F6F6"/>
<path fill-rule="evenodd" clip-rule="evenodd" d="M752 12V15H772V12H752V12ZM752 18V21H772V18H752V18ZM752 24V27H772V24H752V24Z" fill="#959595"/>
<path fill-rule="evenodd" clip-rule="evenodd" d="M731.937 18.8896C731.906 18.6085 731.578 18.3972 731.295 18.3972C730.378 18.3972 729.565 17.8591 729.224 17.0269C728.875 16.1746 729.1 15.1806 729.783 14.5541C729.998 14.3575 730.024 14.0286 729.844 13.8C729.375 13.2044 728.842 12.6664 728.26 12.2001C728.032 12.0172 727.697 12.0427 727.5 12.2615C726.904 12.9216 725.833 13.167 725.005 12.8218C724.144 12.4596 723.602 11.5872 723.655 10.6507C723.672 10.3565 723.457 10.1007 723.164 10.0666C722.417 9.98019 721.663 9.97751 720.914 10.0606C720.624 10.0926 720.409 10.3424 720.419 10.6328C720.452 11.5601 719.902 12.4173 719.05 12.7664C718.232 13.1003 717.169 12.8571 716.574 12.2028C716.377 11.9873 716.048 11.9608 715.819 12.1393C715.22 12.6096 714.675 13.148 714.202 13.7387C714.017 13.9684 714.044 14.3012 714.261 14.4988C714.957 15.1291 715.182 16.1317 714.82 16.9939C714.475 17.8159 713.622 18.3456 712.645 18.3456C712.327 18.3355 712.102 18.5483 712.067 18.8366C711.979 19.5878 711.978 20.3533 712.063 21.1107C712.094 21.3931 712.432 21.6025 712.718 21.6025C713.589 21.5802 714.425 22.1194 714.776 22.9728C715.126 23.8252 714.901 24.8186 714.217 25.4456C714.003 25.6421 713.976 25.9706 714.156 26.1991C714.621 26.7909 715.154 27.3295 715.738 27.7996C715.967 27.9843 716.301 27.9582 716.499 27.7394C717.097 27.0776 718.168 26.8327 718.992 27.1786C719.855 27.5396 720.398 28.412 720.345 29.349C720.328 29.6433 720.544 29.8995 720.836 29.9332C721.218 29.9777 721.602 30 721.988 30C722.354 30 722.72 29.9799 723.086 29.9392C723.376 29.9072 723.591 29.6575 723.581 29.3665C723.547 28.4398 724.098 27.5826 724.949 27.234C725.772 26.8979 726.831 27.1439 727.426 27.7975C727.623 28.0125 727.95 28.0385 728.18 27.8606C728.779 27.3915 729.323 26.8535 729.798 26.2611C729.983 26.032 729.957 25.6986 729.738 25.5011C729.042 24.8708 728.817 23.868 729.178 23.0064C729.518 22.1954 730.34 21.6508 731.224 21.6508L731.348 21.654C731.634 21.6773 731.898 21.4565 731.933 21.1638C732.021 20.4118 732.022 19.647 731.937 18.8896ZM722.016 23.3567C720.176 23.3567 718.68 21.8605 718.68 20.0212C718.68 18.1819 720.176 16.6856 722.016 16.6856C723.855 16.6856 725.351 18.1819 725.351 20.0212C725.351 21.8605 723.855 23.3567 722.016 23.3567Z" fill="#959595"/>
<path d="M682 10C676.474 10 672 14.4678 672 19.985C672 21.6342 672.39 23.1934 673.111 24.5727L672 30L677.405 28.8906C678.787 29.6102 680.348 30 682 30C687.526 30 692 25.5322 692 20.015C692 14.4378 687.526 10 682 10Z" fill="#959595"/>
<path d="M682.875 26H681.125V24.2857H682.875V26ZM684.686 19.3571L683.899 20.1457C683.269 20.7714 682.875 21.2857 682.875 22.5714H681.125V22.1429C681.125 21.2 681.519 20.3429 682.149 19.7171L683.234 18.6371C683.557 18.3286 683.75 17.9 683.75 17.4286C683.75 16.4857 682.962 15.7143 682 15.7143C681.037 15.7143 680.25 16.4857 680.25 17.4286H678.5C678.5 15.5343 680.066 14 682 14C683.934 14 685.5 15.5343 685.5 17.4286C685.5 18.1829 685.185 18.8686 684.686 19.3571Z" fill="white"/>
<path fill-rule="evenodd" clip-rule="evenodd" d="M54.8334 14C56.412 14 57.6215 14.2863 58.4613 14.859C59.3015 15.4317 59.7213 16.3221 59.7213 17.5293C59.7213 18.2829 59.5519 18.8941 59.2127 19.3639C58.8738 19.8333 58.3855 20.2022 57.7478 20.4707C57.9606 20.739 58.1831 21.0457 58.416 21.3916C58.6488 21.7372 58.8789 22.0986 59.1067 22.4752C59.3342 22.8521 59.5544 23.2439 59.767 23.6519C59.9793 24.0593 60.1766 24.4592 60.3588 24.8514H57.7125C57.5177 24.5006 57.3229 24.1444 57.1256 23.7833C56.9257 23.4222 56.7232 23.0712 56.5157 22.7305C56.3082 22.3901 56.1007 22.0675 55.8986 21.763C55.6959 21.4586 55.4912 21.1829 55.2888 20.935H54.1199V24.8514H51.7514V14.2786C52.2676 14.1754 52.8013 14.1032 53.353 14.0618C53.9048 14.0207 54.3981 14 54.8334 14ZM31.7624 23.7056C31.8992 24.0969 32.0236 24.4778 32.1429 24.8509H34.685C34.2867 23.6979 33.9111 22.632 33.5535 21.6542C33.1959 20.6758 32.8482 19.7542 32.5058 18.8893C32.1632 18.0248 31.8257 17.2033 31.4885 16.426C31.1535 15.649 30.8109 14.8894 30.4638 14.1482H28.2133C27.8583 14.8894 27.5134 15.649 27.1835 16.426C26.8514 17.2033 26.5164 18.0248 26.1766 18.8893C25.834 19.7542 25.4866 20.6758 25.1287 21.6542C24.7737 22.632 24.3983 23.6979 24 24.8509H26.4655C26.5823 24.4801 26.7067 24.1017 26.8384 23.7079C26.9732 23.3169 27.1075 22.9257 27.2395 22.5342H31.359C31.4933 22.9231 31.6278 23.3141 31.7624 23.7056ZM29.1142 17.1547C29.2166 16.8916 29.2914 16.6799 29.344 16.5266C29.406 16.6774 29.4887 16.8839 29.5885 17.1496C29.6909 17.4151 29.8083 17.7215 29.9404 18.0686C30.0753 18.4185 30.2175 18.8015 30.3646 19.2203C30.5146 19.6388 30.6695 20.0806 30.8267 20.5401H27.8586C28.0233 20.0806 28.1829 19.6413 28.3429 19.2251L28.4388 18.9699L28.4388 18.9698L28.439 18.9694C28.5594 18.6492 28.6714 18.3514 28.7724 18.0763C28.8995 17.7263 29.0141 17.4202 29.1142 17.1547ZM43.8861 22.7814V24.8509H36.7628V14.1482H39.1631V22.7814H43.8861ZM48.4862 14.1482H46.1117V24.8509H48.4862V14.1482ZM54.5085 16.0974C54.6435 16.087 54.7957 16.0818 54.9657 16.0818C55.7148 16.0818 56.2816 16.1934 56.6661 16.4166C57.0504 16.6398 57.2429 17.0159 57.2429 17.5449C57.2429 18.095 57.0529 18.4842 56.6736 18.7125C56.2938 18.9406 55.6647 19.0548 54.7857 19.0548H54.1265V16.1284C54.2464 16.1183 54.3736 16.1079 54.5085 16.0974ZM70.1345 24.8509C70.0152 24.4778 69.8911 24.0969 69.754 23.7056L69.7203 23.6077L69.7196 23.6056L69.7184 23.6022C69.5957 23.2452 69.4733 22.8889 69.3506 22.5342H65.231C65.0989 22.9257 64.9647 23.3169 64.8298 23.7079C64.6981 24.1017 64.5737 24.4801 64.4572 24.8509H61.9914C62.3897 23.6979 62.7651 22.632 63.1201 21.6542C63.478 20.6758 63.8254 19.7542 64.1681 18.8893C64.5078 18.0248 64.8428 17.2033 65.175 16.426C65.5049 15.649 65.8498 14.8894 66.2048 14.1482H68.4553C68.8027 14.8894 69.1451 15.649 69.48 16.426C69.8173 17.2033 70.1548 18.0248 70.4971 18.8893C70.8398 19.7542 71.1872 20.6758 71.5448 21.6542C71.9027 22.632 72.2781 23.6979 72.6764 24.8509H70.1345ZM67.1051 17.1547C67.2074 16.8916 67.2823 16.6799 67.3348 16.5266C67.3969 16.6774 67.4795 16.8839 67.5793 17.1496C67.6817 17.4151 67.7991 17.7215 67.9315 18.0686C68.0661 18.4185 68.2083 18.8015 68.3557 19.2203C68.5054 19.6388 68.6603 20.0806 68.8175 20.5401H65.8494C66.0141 20.0806 66.1738 19.6413 66.3337 19.2251L66.4297 18.9697L66.4302 18.9685L66.4302 18.9683C66.5504 18.6486 66.6623 18.3511 66.7632 18.0763C66.8903 17.7263 67.0052 17.4202 67.1051 17.1547ZM77.1287 22.889C77.2413 22.8993 77.3716 22.9071 77.5202 22.9122C77.6685 22.9174 77.845 22.9197 78.0497 22.9197C79.2473 22.9197 80.1352 22.6164 80.7134 22.0092C81.2917 21.402 81.5808 20.5632 81.5808 19.493C81.5808 18.3712 81.3042 17.5224 80.7519 16.9462C80.199 16.3699 79.324 16.0818 78.1264 16.0818C77.9627 16.0818 77.7936 16.0844 77.6197 16.0896C77.4458 16.0947 77.2821 16.1076 77.1287 16.128V22.889ZM83.5301 21.9171C83.813 21.2248 83.9546 20.4142 83.9546 19.4845C83.9546 18.5136 83.813 17.682 83.5301 16.9903C83.2472 16.2982 82.8429 15.7299 82.3173 15.2859C81.792 14.8417 81.1631 14.5162 80.4303 14.3099C79.6978 14.1033 78.8817 14 77.9823 14C77.5581 14 77.0505 14.0181 76.459 14.0544C75.8678 14.0904 75.2995 14.16 74.7536 14.2633V24.7215C75.2995 24.8348 75.8555 24.9096 76.4213 24.9459C76.9871 24.9822 77.482 25 77.9066 25C78.8364 25 79.675 24.8866 80.423 24.6593C81.1707 24.4323 81.8047 24.0913 82.3249 23.6367C82.8454 23.1823 83.2472 22.6091 83.5301 21.9171ZM93.4337 24.8509C93.3144 24.4778 93.1901 24.0969 93.0532 23.7056C92.9187 23.3141 92.7841 22.9231 92.6498 22.5342H88.5302C88.3982 22.9257 88.2637 23.3169 88.1291 23.7079C87.9971 24.1017 87.873 24.4801 87.7562 24.8509H85.2906C85.6889 23.6979 86.0643 22.632 86.4194 21.6542C86.7773 20.6758 87.1244 19.7542 87.4673 18.8893C87.8068 18.0248 88.1421 17.2033 88.4743 16.426C88.8042 15.649 89.149 14.8894 89.5041 14.1482H91.7543C92.1017 14.8894 92.4443 15.649 92.7793 16.426C93.1166 17.2033 93.4541 18.0248 93.7964 18.8893C94.1388 19.7542 94.4865 20.6758 94.8441 21.6542C95.2017 22.632 95.5774 23.6979 95.9757 24.8509H93.4337ZM90.4046 17.1547C90.507 16.8916 90.5821 16.6799 90.6344 16.5266C90.6967 16.6774 90.779 16.8839 90.8792 17.1496C90.9815 17.4151 91.0989 17.7215 91.231 18.0686C91.3657 18.4185 91.5081 18.8015 91.6552 19.2203C91.8052 19.6388 91.9598 20.0806 92.1173 20.5401H89.1492C89.3139 20.0806 89.4736 19.6413 89.6335 19.2251L89.7296 18.9695C89.85 18.6493 89.962 18.3514 90.063 18.0763C90.1901 17.7263 90.3047 17.4202 90.4046 17.1547ZM101.283 14C102.862 14 104.071 14.2863 104.911 14.859C105.751 15.4317 106.171 16.3221 106.171 17.5293C106.171 18.2829 106.002 18.8941 105.662 19.3639C105.324 19.8333 104.835 20.2022 104.197 20.4707C104.41 20.739 104.633 21.0457 104.866 21.3916C105.099 21.7372 105.329 22.0986 105.556 22.4752C105.784 22.8521 106.004 23.2439 106.217 23.6519C106.429 24.0593 106.626 24.4592 106.809 24.8514H104.162C103.967 24.5006 103.773 24.1444 103.575 23.7833C103.375 23.4222 103.173 23.0712 102.965 22.7305C102.758 22.3901 102.55 22.0675 102.348 21.763C102.145 21.4586 101.941 21.1829 101.738 20.935H100.569V24.8514H98.2011V14.2786C98.7174 14.1754 99.2511 14.1032 99.8028 14.0618C100.354 14.0207 100.848 14 101.283 14ZM100.958 16.0974C101.093 16.087 101.245 16.0818 101.415 16.0818C102.165 16.0818 102.731 16.1934 103.116 16.4166C103.5 16.6398 103.693 17.0159 103.693 17.5449C103.693 18.095 103.503 18.4842 103.123 18.7125C102.744 18.9406 102.114 19.0548 101.235 19.0548H100.576V16.1284C100.696 16.1183 100.823 16.1079 100.958 16.0974Z" fill="#959595"/>
</g>
<defs>
<filter id="filter0_ddd" x="-20" y="-19" width="858" height="658" filterUnits="userSpaceOnUse" color-interpolation-filters="sRGB">
<feFlood flood-opacity="0" result="BackgroundImageFix"/>
<feColorMatrix in="SourceAlpha" type="matrix" values="0 0 0 0 0 0 0 0 0 0 0 0 0 0 0 0 0 0 127 0"/>
<feOffset dx="10" dy="10"/>
<feGaussianBlur stdDeviation="14.5"/>
<feColorMatrix type="matrix" values="0 0 0 0 0 0 0 0 0 0 0 0 0 0 0 0 0 0 0.0681612 0"/>
<feBlend mode="normal" in2="BackgroundImageFix" result="effect1_dropShadow"/>
<feColorMatrix in="SourceAlpha" type="matrix" values="0 0 0 0 0 0 0 0 0 0 0 0 0 0 0 0 0 0 127 0"/>
<feOffset dx="2" dy="2"/>
<feGaussianBlur stdDeviation="2"/>
<feColorMatrix type="matrix" values="0 0 0 0 0 0 0 0 0 0 0 0 0 0 0 0 0 0 0.146767 0"/>
<feBlend mode="normal" in2="effect1_dropShadow" result="effect2_dropShadow"/>
<feColorMatrix in="SourceAlpha" type="matrix" values="0 0 0 0 0 0 0 0 0 0 0 0 0 0 0 0 0 0 127 0"/>
<feOffset dx="-2"/>
<feGaussianBlur stdDeviation="3"/>
<feColorMatrix type="matrix" values="0 0 0 0 0 0 0 0 0 0 0 0 0 0 0 0 0 0 0.08 0"/>
<feBlend mode="normal" in2="effect2_dropShadow" result="effect3_dropShadow"/>
<feBlend mode="normal" in="SourceGraphic" in2="effect3_dropShadow" result="shape"/>
</filter>
<clipPath id="clip0">
<rect width="798" height="600" fill="white"/>
</clipPath>
</defs>
</svg>
