<svg width="40" height="44" viewBox="0 0 40 44" fill="none" xmlns="http://www.w3.org/2000/svg">
<g filter="url(#filter0_d)">
<path d="M20.0227 2L7.75 17H16.9545V32H23.0909V17H32.2955L20.0227 2Z" fill="#F7642C"/>
<path fill-rule="evenodd" clip-rule="evenodd" d="M20.0227 0C20.6226 0 21.1908 0.269254 21.5707 0.733524L33.8434 15.7335C34.3327 16.3316 34.4337 17.1581 34.1028 17.8565C33.7719 18.5548 33.0683 19 32.2955 19H25.0909V32C25.0909 33.1046 24.1955 34 23.0909 34H16.9546C15.85 34 14.9546 33.1046 14.9546 32V19H7.75002C6.97724 19 6.27361 18.5548 5.94268 17.8565C5.61176 17.1581 5.71275 16.3316 6.20211 15.7335L18.4748 0.733524C18.8547 0.269254 19.4229 0 20.0227 0ZM23.0909 17V32H16.9546V17H7.75002L20.0227 2L32.2955 17H23.0909Z" fill="white"/>
</g>
<defs>
<filter id="filter0_d" x="0.75" y="0" width="38.5455" height="44" filterUnits="userSpaceOnUse" color-interpolation-filters="sRGB">
<feFlood flood-opacity="0" result="BackgroundImageFix"/>
<feColorMatrix in="SourceAlpha" type="matrix" values="0 0 0 0 0 0 0 0 0 0 0 0 0 0 0 0 0 0 127 0"/>
<feOffset dy="5"/>
<feGaussianBlur stdDeviation="2.5"/>
<feColorMatrix type="matrix" values="0 0 0 0 0.968627 0 0 0 0 0.392157 0 0 0 0 0.172549 0 0 0 0.2 0"/>
<feBlend mode="normal" in2="BackgroundImageFix" result="effect1_dropShadow"/>
<feBlend mode="normal" in="SourceGraphic" in2="effect1_dropShadow" result="shape"/>
</filter>
</defs>
</svg>
