<svg width="40" height="40" viewBox="0 0 40 40" fill="none" xmlns="http://www.w3.org/2000/svg">
<g id="ic_smile" filter="url(#filter0_d)">
<circle id="Ellipse" cx="20" cy="15" r="15" fill="#F7642C"/>
<path id="Oval" fill-rule="evenodd" clip-rule="evenodd" d="M16.0294 13.6759C17.1258 13.6759 18.0147 12.7871 18.0147 11.6906C18.0147 10.5942 17.1258 9.70532 16.0294 9.70532C14.9329 9.70532 14.0441 10.5942 14.0441 11.6906C14.0441 12.7871 14.9329 13.6759 16.0294 13.6759Z" fill="white"/>
<path id="Oval_2" fill-rule="evenodd" clip-rule="evenodd" d="M23.9715 13.6752C25.0679 13.6752 25.9568 12.7863 25.9568 11.6899C25.9568 10.5934 25.0679 9.70459 23.9715 9.70459C22.8751 9.70459 21.9862 10.5934 21.9862 11.6899C21.9862 12.7863 22.8751 13.6752 23.9715 13.6752Z" fill="white"/>
<path id="Oval 15 (Stroke)" fill-rule="evenodd" clip-rule="evenodd" d="M25.65 20.1963C25.2953 20.4842 24.7743 20.43 24.4864 20.0753C23.5012 18.8614 21.9344 18.065 20.1546 18.065C18.3861 18.065 16.8278 18.8513 15.8415 20.0524C15.5516 20.4054 15.0303 20.4566 14.6773 20.1667C14.3242 19.8767 14.273 19.3555 14.563 19.0024C15.864 17.4181 17.8917 16.4106 20.1546 16.4106C22.4319 16.4106 24.471 17.431 25.771 19.0327C26.0589 19.3874 26.0047 19.9084 25.65 20.1963Z" fill="white"/>
</g>
<defs>
<filter id="filter0_d" x="0" y="0" width="40" height="40" filterUnits="userSpaceOnUse" color-interpolation-filters="sRGB">
<feFlood flood-opacity="0" result="BackgroundImageFix"/>
<feColorMatrix in="SourceAlpha" type="matrix" values="0 0 0 0 0 0 0 0 0 0 0 0 0 0 0 0 0 0 127 0"/>
<feOffset dy="5"/>
<feGaussianBlur stdDeviation="2.5"/>
<feColorMatrix type="matrix" values="0 0 0 0 0.968627 0 0 0 0 0.392157 0 0 0 0 0.172549 0 0 0 0.2 0"/>
<feBlend mode="normal" in2="BackgroundImageFix" result="effect1_dropShadow"/>
<feBlend mode="normal" in="SourceGraphic" in2="effect1_dropShadow" result="shape"/>
</filter>
</defs>
</svg>
