<svg width="40" height="40" viewBox="0 0 40 40" fill="none" xmlns="http://www.w3.org/2000/svg">
<g id="ic_smile" filter="url(#filter0_d)">
<circle id="Ellipse" cx="20" cy="15" r="15" fill="#70D240"/>
<path id="Oval" fill-rule="evenodd" clip-rule="evenodd" d="M16.0294 13.6759C17.1258 13.6759 18.0147 12.7871 18.0147 11.6906C18.0147 10.5942 17.1258 9.70532 16.0294 9.70532C14.9329 9.70532 14.0441 10.5942 14.0441 11.6906C14.0441 12.7871 14.9329 13.6759 16.0294 13.6759Z" fill="white"/>
<path id="Oval_2" fill-rule="evenodd" clip-rule="evenodd" d="M23.9715 13.6752C25.0679 13.6752 25.9568 12.7863 25.9568 11.6899C25.9568 10.5934 25.0679 9.70459 23.9715 9.70459C22.8751 9.70459 21.9862 10.5934 21.9862 11.6899C21.9862 12.7863 22.8751 13.6752 23.9715 13.6752Z" fill="white"/>
<path id="Oval 15 (Stroke)" fill-rule="evenodd" clip-rule="evenodd" d="M14.5157 17.6665C14.8704 17.3786 15.3913 17.4328 15.6792 17.7875C16.6644 19.0014 18.2313 19.7978 20.011 19.7978C21.7796 19.7978 23.3379 19.0115 24.3241 17.8104C24.6141 17.4574 25.1353 17.4062 25.4884 17.6961C25.8415 17.9861 25.8926 18.5073 25.6027 18.8604C24.3017 20.4447 22.274 21.4522 20.011 21.4522C17.7337 21.4522 15.6946 20.4318 14.3947 18.8301C14.1068 18.4754 14.1609 17.9544 14.5157 17.6665Z" fill="white"/>
</g>
<defs>
<filter id="filter0_d" x="0" y="0" width="40" height="40" filterUnits="userSpaceOnUse" color-interpolation-filters="sRGB">
<feFlood flood-opacity="0" result="BackgroundImageFix"/>
<feColorMatrix in="SourceAlpha" type="matrix" values="0 0 0 0 0 0 0 0 0 0 0 0 0 0 0 0 0 0 127 0"/>
<feOffset dy="5"/>
<feGaussianBlur stdDeviation="2.5"/>
<feColorMatrix type="matrix" values="0 0 0 0 0.439216 0 0 0 0 0.823529 0 0 0 0 0.25098 0 0 0 0.2 0"/>
<feBlend mode="normal" in2="BackgroundImageFix" result="effect1_dropShadow"/>
<feBlend mode="normal" in="SourceGraphic" in2="effect1_dropShadow" result="shape"/>
</filter>
</defs>
</svg>
