<svg width="272" height="188" viewBox="0 0 272 188" fill="none" xmlns="http://www.w3.org/2000/svg">
<ellipse cx="32.4889" cy="137.984" rx="32.4889" ry="32.4225" fill="#F2F8FF"/>
<ellipse cx="173.274" cy="119.134" rx="67.4963" ry="67.3583" fill="#F2F8FF"/>
<ellipse cx="240.519" cy="83.6952" rx="31.4815" ry="31.4171" fill="#F2F8FF"/>
<ellipse cx="97.9707" cy="89.7273" rx="77.8222" ry="77.6631" fill="#F2F8FF"/>
<ellipse cx="101.496" cy="135.471" rx="52.637" ry="52.5294" fill="#F2F8FF"/>
<ellipse cx="170" cy="56.0481" rx="56.163" ry="56.0481" fill="#F2F8FF"/>
<path fill-rule="evenodd" clip-rule="evenodd" d="M82.7687 117.886L123.608 94.5862C126.363 93.015 129.732 92.9728 132.524 94.4747L177.02 118.407C179.235 119.598 179.561 122.514 177.938 124.194C180.033 127.9 179.062 132.983 174.941 135.418L135.637 158.643C133.356 159.99 130.528 160.008 128.23 158.69L84.3063 133.485C81.5866 131.924 81.2643 128.271 83.3605 126.22L82.7361 125.857C79.6715 124.075 79.6897 119.643 82.7687 117.886Z" fill="#DF4D43"/>
<path fill-rule="evenodd" clip-rule="evenodd" d="M111.829 101.266L123.335 94.4726C126.111 92.8336 129.543 92.7673 132.38 94.298L176.632 118.172C176.89 118.312 177.122 118.474 177.329 118.654C178.676 119.273 179.521 120.641 179.469 122.124L179.163 131.012C179.12 132.266 178.44 133.412 177.36 134.051L156.557 146.363L156.363 135.124C156.347 134.195 155.983 133.323 155.364 132.665L111.985 109.275C108.834 107.576 108.747 103.087 111.829 101.266Z" fill="#F76D68"/>
<path d="M82.5882 125.718L129.15 150.566C130.943 151.523 131.621 153.752 130.664 155.544C129.708 157.337 127.479 158.015 125.686 157.058L85.6159 135.675C82.0303 133.762 80.6748 129.304 82.5882 125.718Z" fill="#BA001C"/>
<path d="M119.169 149.086C120.147 147.253 122.45 146.594 124.251 147.632L129.244 150.513C130.962 151.504 131.585 153.679 130.651 155.429C129.672 157.263 127.369 157.922 125.569 156.883L120.576 154.003C118.857 153.012 118.235 150.837 119.169 149.086Z" fill="#CF272C"/>
<rect x="82.5882" y="117.899" width="56.4567" height="7.35887" rx="3.67944" transform="rotate(28.0863 82.5882 117.899)" fill="#CF272C"/>
<path d="M125.051 144.579C125.051 143.481 125.884 142.562 126.976 142.455C129.587 142.197 131.81 144.334 131.656 146.954L131.237 154.087C131.127 155.951 129.405 157.294 127.57 156.946C126.109 156.669 125.051 155.392 125.051 153.905V144.579Z" fill="#CF272C"/>
<path d="M118.609 144.492C118.609 142.841 119.948 141.502 121.599 141.502C123.25 141.502 124.588 142.841 124.588 144.492V150.863C124.588 152.707 122.936 154.111 121.117 153.814C119.671 153.578 118.609 152.329 118.609 150.863V144.492Z" fill="#CF272C"/>
<path fill-rule="evenodd" clip-rule="evenodd" d="M155.893 131.77L113.552 109.767V110.917L154.456 132.572C154.757 132.732 154.945 133.045 154.945 133.385V147.251L156.325 147.481V132.533C156.325 132.411 156.294 132.298 156.238 132.199C156.189 132.021 156.069 131.861 155.893 131.77Z" fill="#CF272C"/>
<path d="M119.301 106.315L156.251 126.027C158.743 127.356 158.77 130.918 156.3 132.286L113.551 109.767L119.301 106.315Z" fill="#FF7D78"/>
<path d="M156.324 147.483V126.187L159.295 127.747C160.854 128.564 161.809 130.199 161.756 131.959L161.383 144.261L156.324 147.483Z" fill="#FF7D78"/>
<path d="M158.623 134.142L156.324 135.524C156.324 135.524 156.324 133.911 155.634 132.763C154.944 131.615 153.794 130.925 153.794 130.925C154.254 130.925 155.45 131.382 155.634 131.382C155.818 131.382 157.704 133.222 158.623 134.142Z" fill="#FF7D78"/>
<path d="M156.091 134.604L154.941 135.752C154.941 135.752 154.941 134.247 154.481 133.327C154.021 132.407 153.102 131.843 153.102 131.843C153.561 131.613 154.297 131.946 154.481 131.946C154.665 131.946 155.861 133.224 156.091 134.604Z" fill="#CF272C"/>
<ellipse cx="123.736" cy="111.836" rx="1.83972" ry="1.05127" fill="#CF272C"/>
<ellipse cx="123.738" cy="111.631" rx="1.83972" ry="1.05127" fill="#BABABA"/>
<ellipse cx="123.736" cy="111.631" rx="1.05127" ry="0.600724" fill="white"/>
<ellipse cx="132.933" cy="116.984" rx="1.83972" ry="1.05127" fill="#CF272C"/>
<ellipse cx="132.935" cy="116.781" rx="1.83972" ry="1.05127" fill="#BABABA"/>
<ellipse cx="132.934" cy="116.783" rx="1.05127" ry="0.600724" fill="white"/>
<ellipse cx="142.139" cy="121.586" rx="1.83972" ry="1.05127" fill="#CF272C"/>
<ellipse cx="142.14" cy="121.38" rx="1.83972" ry="1.05127" fill="#BABABA"/>
<ellipse cx="142.141" cy="121.38" rx="1.05127" ry="0.600724" fill="white"/>
<ellipse cx="151.791" cy="126.646" rx="1.83972" ry="1.05127" fill="#CF272C"/>
<ellipse cx="151.791" cy="126.44" rx="1.83972" ry="1.05127" fill="#BABABA"/>
<ellipse cx="151.795" cy="126.439" rx="1.05127" ry="0.600724" fill="white"/>
<ellipse rx="1.83972" ry="1.05127" transform="matrix(0 -1 -1 0 159.28 138.729)" fill="#BA001C"/>
<ellipse rx="1.83972" ry="1.05127" transform="matrix(0 -1 -1 0 159.487 138.729)" fill="#CF272C"/>
<ellipse rx="1.05127" ry="0.600724" transform="matrix(0 -1 -1 0 159.486 138.728)" fill="white" fill-opacity="0.7"/>
<path d="M116.61 98.4782L118.472 99.363C122.913 101.474 123.157 107.705 118.894 110.156C113.688 113.149 107.346 113.397 101.923 110.819L98.2134 109.056L116.61 98.4782Z" fill="#2980E2"/>
<path d="M117.528 98.7115L119.594 99.7259C124.303 102.038 124.75 108.577 120.399 111.508L119.772 111.93C112.921 116.545 103.9 116.317 97.2909 111.361L97.0609 109.061L117.528 98.7115Z" fill="#CF272C"/>
<path d="M116.61 98.4782L118.472 99.363C122.913 101.474 123.157 107.705 118.894 110.156C113.688 113.149 107.346 113.397 101.923 110.819L98.2134 109.056L116.61 98.4782Z" fill="#BA001C"/>
<path d="M118.025 99.0946L116.607 98.4794L98.2099 109.058L101.197 110.551C106.782 113.344 113.407 113.077 118.749 109.846C122.962 107.297 122.542 101.055 118.025 99.0946Z" stroke="#FF7D78" stroke-width="2.29965" stroke-linecap="round" stroke-linejoin="round"/>
<g filter="url(#filter0_f)">
<path d="M131.822 147.718L81.2778 119.031L132.277 90.799L181 119.031L131.822 147.718Z" fill="black" fill-opacity="0.3"/>
</g>
<path fill-rule="evenodd" clip-rule="evenodd" d="M82.7687 101.79L123.608 78.4897C126.363 76.9185 129.732 76.8764 132.524 78.3783L177.02 102.31C179.235 103.502 179.561 106.417 177.938 108.097C180.033 111.804 179.062 116.886 174.941 119.321L135.637 142.546C133.356 143.894 130.528 143.912 128.23 142.594L84.3063 117.388C81.5866 115.828 81.2643 112.174 83.3605 110.124L82.7361 109.761C79.6715 107.979 79.6897 103.546 82.7687 101.79Z" fill="#FBB95B"/>
<path fill-rule="evenodd" clip-rule="evenodd" d="M111.829 85.1703L123.335 78.3766C126.111 76.7375 129.543 76.6712 132.38 78.2019L176.632 102.076C176.89 102.216 177.122 102.378 177.329 102.558C178.676 103.177 179.521 104.545 179.469 106.028L179.163 114.916C179.12 116.17 178.44 117.316 177.36 117.955L156.557 130.267L156.363 119.027C156.347 118.099 155.983 117.227 155.364 116.569L111.985 93.179C108.834 91.4799 108.747 86.9905 111.829 85.1703Z" fill="#FFBE62"/>
<path d="M82.5882 109.622L129.15 134.47C130.943 135.427 131.621 137.656 130.664 139.448C129.708 141.241 127.479 141.919 125.686 140.962L85.6159 119.579C82.0303 117.666 80.6748 113.208 82.5882 109.622Z" fill="#E37900"/>
<path d="M119.169 132.993C120.147 131.159 122.45 130.501 124.251 131.539L129.244 134.419C130.962 135.411 131.585 137.586 130.651 139.336C129.672 141.17 127.369 141.829 125.569 140.79L120.576 137.91C118.857 136.919 118.235 134.743 119.169 132.993Z" fill="#ED8714"/>
<rect x="82.5882" y="101.803" width="56.4567" height="7.35887" rx="3.67944" transform="rotate(28.0863 82.5882 101.803)" fill="#ED8714"/>
<path d="M125.051 128.485C125.051 127.388 125.884 126.469 126.976 126.361C129.587 126.104 131.81 128.241 131.656 130.86L131.237 137.993C131.127 139.857 129.405 141.201 127.57 140.853C126.109 140.576 125.051 139.299 125.051 137.812V128.485Z" fill="#ED8714"/>
<path d="M118.609 128.396C118.609 126.744 119.948 125.406 121.599 125.406C123.25 125.406 124.588 126.744 124.588 128.396V134.767C124.588 136.61 122.936 138.015 121.117 137.718C119.671 137.482 118.609 136.232 118.609 134.767V128.396Z" fill="#ED8714"/>
<path fill-rule="evenodd" clip-rule="evenodd" d="M155.893 115.677L113.552 93.6737V94.8235L154.456 116.479C154.757 116.639 154.945 116.952 154.945 117.292V131.158L156.325 131.388V116.44C156.325 116.318 156.294 116.205 156.238 116.106C156.189 115.928 156.069 115.768 155.893 115.677Z" fill="#ED8714"/>
<path d="M119.301 90.2192L156.251 109.931C158.743 111.26 158.77 114.822 156.3 116.19L113.551 93.6704L119.301 90.2192Z" fill="#FFCB81"/>
<path d="M156.324 131.386V110.091L159.295 111.65C160.854 112.468 161.809 114.103 161.756 115.862L161.383 128.165L156.324 131.386Z" fill="#FFCB81"/>
<path d="M158.623 118.045L156.324 119.428C156.324 119.428 156.324 117.814 155.634 116.666C154.944 115.518 153.794 114.828 153.794 114.828C154.254 114.828 155.45 115.286 155.634 115.286C155.818 115.286 157.704 117.126 158.623 118.045Z" fill="#FFCB81"/>
<path d="M156.091 118.511L154.941 119.659C154.941 119.659 154.941 118.153 154.481 117.233C154.021 116.314 153.102 115.75 153.102 115.75C153.561 115.52 154.297 115.853 154.481 115.853C154.665 115.853 155.861 117.131 156.091 118.511Z" fill="#ED8714"/>
<ellipse cx="123.736" cy="95.7415" rx="1.83972" ry="1.05127" fill="#ED8714"/>
<ellipse cx="123.737" cy="95.5352" rx="1.83972" ry="1.05127" fill="#BABABA"/>
<ellipse cx="123.736" cy="95.537" rx="1.05127" ry="0.600724" fill="white"/>
<ellipse cx="132.933" cy="100.889" rx="1.83972" ry="1.05127" fill="#ED8714"/>
<ellipse cx="132.934" cy="100.687" rx="1.83972" ry="1.05127" fill="#BABABA"/>
<ellipse cx="132.933" cy="100.687" rx="1.05127" ry="0.600724" fill="white"/>
<ellipse cx="142.136" cy="105.485" rx="1.83972" ry="1.05127" fill="#ED8714"/>
<ellipse cx="142.138" cy="105.284" rx="1.83972" ry="1.05127" fill="#BABABA"/>
<ellipse cx="142.139" cy="105.284" rx="1.05127" ry="0.600724" fill="white"/>
<ellipse cx="151.793" cy="110.547" rx="1.83972" ry="1.05127" fill="#ED8714"/>
<ellipse cx="151.794" cy="110.344" rx="1.83972" ry="1.05127" fill="#BABABA"/>
<ellipse cx="151.796" cy="110.343" rx="1.05127" ry="0.600724" fill="white"/>
<ellipse rx="1.83972" ry="1.05127" transform="matrix(0 -1 -1 0 159.28 122.63)" fill="#E37900"/>
<ellipse rx="1.83972" ry="1.05127" transform="matrix(0 -1 -1 0 159.487 122.63)" fill="#ED8714"/>
<ellipse rx="1.05127" ry="0.600724" transform="matrix(0 -1 -1 0 159.487 122.629)" fill="white" fill-opacity="0.7"/>
<path d="M116.61 82.3852L118.472 83.27C122.913 85.3811 123.157 91.6117 118.894 94.0631C113.688 97.0561 107.346 97.3039 101.923 94.7263L98.2134 92.9633L116.61 82.3852Z" fill="#2980E2"/>
<path d="M117.528 82.6156L119.594 83.6299C124.303 85.9418 124.75 92.4809 120.399 95.4116L119.772 95.834C112.921 100.449 103.9 100.221 97.2909 95.2654L97.0609 92.9647L117.528 82.6156Z" fill="#ED8714"/>
<path d="M116.61 82.3852L118.472 83.27C122.913 85.3811 123.157 91.6117 118.894 94.0631C113.688 97.0561 107.346 97.3039 101.923 94.7263L98.2134 92.9633L116.61 82.3852Z" fill="#E37900"/>
<path d="M118.025 83.0046L116.607 82.3893L98.2099 92.9674L101.197 94.4613C106.782 97.2535 113.407 96.9871 118.749 93.7556C122.962 91.2069 122.542 84.9648 118.025 83.0046Z" stroke="#FFCB81" stroke-width="2.29965" stroke-linecap="round" stroke-linejoin="round"/>
<g filter="url(#filter1_f)">
<path d="M131.367 130.87L81.2778 103.549L131.367 74.4061L179.179 104.004L131.367 130.87Z" fill="#3D0E0E" fill-opacity="0.41"/>
</g>
<path fill-rule="evenodd" clip-rule="evenodd" d="M82.7682 85.691L123.608 62.3911C126.362 60.8199 129.731 60.7778 132.524 62.2797L177.019 86.2115C179.234 87.403 179.561 90.3173 177.939 91.9976C180.032 95.7038 179.061 100.785 174.941 103.219L135.636 126.445C133.356 127.792 130.527 127.81 128.23 126.492L84.3059 101.287C81.587 99.7264 81.2641 96.0747 83.358 94.0238L82.7357 93.662C79.6711 91.8802 79.6892 87.4476 82.7682 85.691Z" fill="#4F8ACB"/>
<path fill-rule="evenodd" clip-rule="evenodd" d="M111.829 69.0714L123.335 62.2777C126.111 60.6386 129.542 60.5724 132.379 62.103L176.631 85.9775C176.891 86.1173 177.123 86.2801 177.33 86.4613C178.675 87.0814 179.517 88.4479 179.466 89.929L179.16 98.8167C179.117 100.071 178.437 101.217 177.357 101.857L156.554 114.168L156.36 102.929C156.344 101.999 155.978 101.125 155.358 100.468L111.984 77.0801C108.833 75.381 108.746 70.8916 111.829 69.0714Z" fill="#5396E1"/>
<path d="M82.4646 93.5326L129.027 118.38C130.82 119.337 131.497 121.566 130.541 123.359C129.584 125.151 127.355 125.829 125.562 124.873L85.4923 103.489C81.9067 101.576 80.5511 97.1182 82.4646 93.5326Z" fill="#2864A6"/>
<path d="M119.168 116.892C120.147 115.058 122.45 114.399 124.25 115.437L129.243 118.318C130.962 119.309 131.584 121.484 130.65 123.235C129.672 125.068 127.369 125.727 125.569 124.689L120.575 121.808C118.857 120.817 118.234 118.642 119.168 116.892Z" fill="#3470B1"/>
<rect x="82.5912" y="85.7068" width="56.4567" height="7.35887" rx="3.67944" transform="rotate(28.0863 82.5912 85.7068)" fill="#3470B1"/>
<path d="M125.051 112.384C125.051 111.286 125.883 110.367 126.976 110.26C129.587 110.002 131.81 112.139 131.656 114.759L131.236 121.892C131.127 123.756 129.404 125.099 127.57 124.751C126.108 124.474 125.051 123.197 125.051 121.71V112.384Z" fill="#3470B1"/>
<path d="M118.611 112.297C118.611 110.646 119.95 109.307 121.601 109.307C123.252 109.307 124.59 110.646 124.59 112.297V118.669C124.59 120.512 122.938 121.916 121.119 121.619C119.673 121.383 118.611 120.134 118.611 118.669V112.297Z" fill="#3470B1"/>
<path fill-rule="evenodd" clip-rule="evenodd" d="M155.895 99.5749L113.553 77.5719V78.7217L154.458 100.378C154.759 100.537 154.947 100.85 154.947 101.19V115.056L156.327 115.286V100.338C156.327 100.216 156.295 100.103 156.24 100.004C156.191 99.8264 156.071 99.6665 155.895 99.5749Z" fill="#3A7DC6"/>
<path d="M119.303 74.1234L156.253 93.8353C158.745 95.1645 158.772 98.7261 156.302 100.094L113.553 77.5746L119.303 74.1234Z" fill="#7CB9FD"/>
<path d="M156.325 115.288V93.9924L159.297 95.5515C160.855 96.3691 161.811 98.0044 161.757 99.7636L161.385 112.066L156.325 115.288Z" fill="#7CB9FD"/>
<path d="M158.624 101.947L156.325 103.329C156.325 103.329 156.325 101.716 155.635 100.568C154.945 99.4198 153.795 98.7299 153.795 98.7299C154.255 98.7299 155.451 99.1872 155.635 99.1872C155.819 99.1872 157.704 101.027 158.624 101.947Z" fill="#7CB9FD"/>
<path d="M156.094 102.409L154.944 103.557C154.944 103.557 154.944 102.052 154.484 101.132C154.024 100.212 153.105 99.6479 153.105 99.6479C153.564 99.418 154.3 99.7512 154.484 99.7512C154.668 99.7512 155.864 101.029 156.094 102.409Z" fill="#3A7DC6"/>
<ellipse cx="123.738" cy="79.6431" rx="1.83972" ry="1.05127" fill="#2869B0"/>
<ellipse cx="123.739" cy="79.4393" rx="1.83972" ry="1.05127" fill="#3A7DC6"/>
<ellipse cx="123.738" cy="79.4396" rx="1.05127" ry="0.600724" fill="white" fill-opacity="0.7"/>
<ellipse cx="132.934" cy="84.7887" rx="1.83972" ry="1.05127" fill="#2869B0"/>
<ellipse cx="132.934" cy="84.5856" rx="1.83972" ry="1.05127" fill="#3A7DC6"/>
<ellipse cx="132.934" cy="84.5851" rx="1.05127" ry="0.600724" fill="white" fill-opacity="0.7"/>
<ellipse cx="142.135" cy="89.3904" rx="1.83972" ry="1.05127" fill="#2869B0"/>
<ellipse cx="142.136" cy="89.1855" rx="1.83972" ry="1.05127" fill="#3A7DC6"/>
<ellipse cx="142.134" cy="89.1857" rx="1.05127" ry="0.600724" fill="white" fill-opacity="0.7"/>
<ellipse cx="151.796" cy="94.448" rx="1.83972" ry="1.05127" fill="#2869B0"/>
<ellipse cx="151.793" cy="94.2448" rx="1.83972" ry="1.05127" fill="#3A7DC6"/>
<ellipse cx="151.795" cy="94.2443" rx="1.05127" ry="0.600724" fill="white" fill-opacity="0.7"/>
<ellipse rx="1.83972" ry="1.05127" transform="matrix(0 -1 -1 0 159.281 106.528)" fill="#2869B0"/>
<ellipse rx="1.83972" ry="1.05127" transform="matrix(0 -1 -1 0 159.487 106.528)" fill="#3A7DC6"/>
<ellipse rx="1.05127" ry="0.600724" transform="matrix(0 -1 -1 0 159.487 106.527)" fill="white" fill-opacity="0.7"/>
<path d="M116.056 66.9927L117.844 67.8428C122.112 69.8713 122.346 75.858 118.25 78.2135C113.248 81.0893 107.154 81.3275 101.943 78.8508L98.3788 77.1568L116.056 66.9927Z" fill="#2980E2"/>
<path d="M115.428 65.7572L120.71 69.4738C124.129 71.8792 124.135 76.9446 120.723 79.3585C113.877 84.2003 104.606 83.7214 98.2958 78.2001L98.1245 78.0502L98.0438 75.9675L115.428 65.7572Z" fill="#3A7DC6"/>
<path d="M115.705 66.8068L117.475 67.6481C121.698 69.6555 121.93 75.5798 117.876 77.9107C112.926 80.7566 106.895 80.9923 101.739 78.5414L98.212 76.8651L115.705 66.8068Z" fill="url(#paint0_linear)"/>
<path d="M119.56 69.4809L115.429 66.6647L99.036 76.2271L103.262 78.6425C108.446 81.605 114.888 81.2383 119.703 77.7067C122.506 75.6502 122.433 71.4392 119.56 69.4809Z" stroke="#7CB9FD" stroke-width="2.29965" stroke-linecap="round" stroke-linejoin="round"/>
<g filter="url(#filter2_f)">
<rect x="131.87" y="112.278" width="50.7552" height="3.50843" rx="1.75421" transform="rotate(-29.1583 131.87 112.278)" fill="white" fill-opacity="0.2"/>
</g>
<rect x="58.029" y="105.939" width="1.87958" height="0.375915" fill="#D3E4F5"/>
<circle cx="58.0293" cy="92.0301" r="12.0293" fill="#D3E4F5"/>
<rect x="53.8939" y="102.555" width="6.01465" height="6.01465" rx="1.12775" transform="rotate(-45 53.8939 102.555)" fill="#D3E4F5"/>
<circle cx="59.9083" cy="92.0293" r="12.0293" fill="white"/>
<rect x="55.3973" y="102.555" width="6.01465" height="6.01465" rx="1.12775" transform="rotate(-45 55.3973 102.555)" fill="white"/>
<circle cx="59.9086" cy="92.0295" r="7.14239" fill="#50A2FF"/>
<circle cx="59.9081" cy="92.0294" r="4.46399" stroke="white" stroke-width="0.892799"/>
<circle cx="59.9088" cy="92.0286" r="1.3392" fill="white"/>
<path d="M63.8519 87.691L59.9084 92.0289" stroke="white" stroke-width="0.892799" stroke-linecap="round"/>
<rect x="92.3772" y="65.0016" width="2.24643" height="0.449287" fill="#FAE4DC"/>
<circle cx="92.3772" cy="48.3772" r="14.3772" fill="#FAE4DC"/>
<rect x="87.435" y="60.9568" width="7.18859" height="7.18859" rx="1.34786" transform="rotate(-45 87.435 60.9568)" fill="#FAE4DC"/>
<circle cx="94.6227" cy="48.3772" r="14.3772" fill="white"/>
<rect x="89.2323" y="60.9568" width="7.18859" height="7.18859" rx="1.34786" transform="rotate(-45 89.2323 60.9568)" fill="white"/>
<circle cx="94.8074" cy="48.2724" r="8.53645" fill="#E83B32"/>
<path d="M96.1433 43.649H93.3361C93.0466 43.649 92.8119 43.8818 92.8119 44.1689V48.1033H92.2132C91.9237 48.1033 91.689 48.3361 91.689 48.6232C91.689 48.9102 91.9237 49.143 92.2132 49.143H92.8119V50.3305H92.2132C91.9237 50.3305 91.689 50.5632 91.689 50.8503C91.689 51.1374 91.9237 51.3702 92.2132 51.3702H92.8119V52.5207C92.8119 52.8078 93.0466 53.0405 93.3361 53.0405C93.6256 53.0405 93.8603 52.8078 93.8603 52.5207V51.3702H96.1433C96.4328 51.3702 96.6675 51.1374 96.6675 50.8503C96.6675 50.5632 96.4328 50.3305 96.1433 50.3305H93.8603V49.143H96.1433C97.6707 49.143 98.9133 47.9107 98.9133 46.396C98.9132 44.8439 97.6383 43.649 96.1433 43.649ZM96.1433 48.1033H93.8603V44.6887H96.1433C97.0869 44.6887 97.8649 45.4435 97.8649 46.396C97.8649 47.3375 97.0926 48.1033 96.1433 48.1033Z" fill="white"/>
<rect x="182.276" y="76.0002" width="1.44926" height="0.289852" fill="#D3E4F5"/>
<circle cx="182.275" cy="65.2753" r="9.27525" fill="#D3E4F5"/>
<rect x="179.087" y="73.3911" width="4.63763" height="4.63763" rx="0.869555" transform="rotate(-45 179.087 73.3911)" fill="#D3E4F5"/>
<circle cx="183.725" cy="65.2753" r="9.27525" fill="white"/>
<rect x="180.246" y="73.391" width="4.63763" height="4.63763" rx="0.869555" transform="rotate(-45 180.246 73.391)" fill="white"/>
<path fill-rule="evenodd" clip-rule="evenodd" d="M181.684 60.4568C181.73 60.265 181.837 60.097 181.984 59.975C182.139 59.846 182.338 59.7684 182.555 59.7684H184.896C185.113 59.7684 185.313 59.846 185.468 59.975C185.615 60.097 185.722 60.265 185.767 60.4568H186.479C187.999 60.4568 189.232 61.6897 189.232 63.2104V68.0292C189.232 69.55 187.999 70.7828 186.479 70.7828H180.971C179.451 70.7828 178.218 69.55 178.218 68.0292V63.2104C178.218 61.6897 179.451 60.4568 180.971 60.4568H181.684Z" fill="#50A2FF"/>
<path fill-rule="evenodd" clip-rule="evenodd" d="M183.725 68.3734C185.246 68.3734 186.479 67.1406 186.479 65.6198C186.479 64.099 185.246 62.8662 183.725 62.8662C182.204 62.8662 180.972 64.099 180.972 65.6198C180.972 67.1406 182.204 68.3734 183.725 68.3734Z" stroke="white" stroke-width="0.688398"/>
<path d="M184.757 65.6204C184.757 66.1907 184.295 66.653 183.725 66.653C183.155 66.653 182.692 66.1907 182.692 65.6204C182.692 65.0502 183.155 64.5879 183.725 64.5879C184.295 64.5879 184.757 65.0502 184.757 65.6204Z" fill="white" stroke="white" stroke-width="0.688398"/>
<rect x="207.577" y="119.898" width="2.74618" height="0.549235" fill="#FAE4DC"/>
<circle cx="207.576" cy="99.5755" r="17.5755" fill="#FAE4DC"/>
<rect x="201.534" y="114.953" width="8.78776" height="8.78776" rx="1.64771" transform="rotate(-45 201.534 114.953)" fill="#FAE4DC"/>
<circle cx="210.321" cy="99.5759" r="17.5755" fill="white"/>
<rect x="203.73" y="114.954" width="8.78776" height="8.78776" rx="1.64771" transform="rotate(-45 203.73 114.954)" fill="white"/>
<circle cx="210.319" cy="99.5759" r="10.4355" fill="#E83B32"/>
<path d="M215.81 100.404C215.652 98.3484 214.695 97.0605 213.851 95.924C213.069 94.8718 212.394 93.9632 212.394 92.6229C212.394 92.5153 212.334 92.4169 212.238 92.3675C212.142 92.3179 212.027 92.326 211.94 92.3894C210.672 93.2966 209.614 94.8256 209.245 96.2845C208.988 97.3002 208.954 98.442 208.95 99.1961C207.779 98.9461 207.514 97.1948 207.511 97.1757C207.498 97.0848 207.442 97.0058 207.361 96.9626C207.28 96.92 207.184 96.9169 207.101 96.9579C207.04 96.9876 205.594 97.7221 205.51 100.655C205.504 100.752 205.504 100.85 205.504 100.948C205.504 103.797 207.822 106.115 210.672 106.115C210.676 106.116 210.68 106.116 210.683 106.115C210.684 106.115 210.685 106.115 210.687 106.115C213.529 106.107 215.839 103.792 215.839 100.948C215.839 100.805 215.81 100.404 215.81 100.404ZM210.672 105.541C209.722 105.541 208.949 104.718 208.949 103.706C208.949 103.672 208.949 103.637 208.951 103.594C208.963 103.168 209.044 102.877 209.133 102.683C209.299 103.041 209.597 103.369 210.081 103.369C210.239 103.369 210.368 103.241 210.368 103.082C210.368 102.674 210.376 102.202 210.478 101.776C210.569 101.399 210.785 100.998 211.059 100.676C211.181 101.094 211.419 101.432 211.651 101.762C211.983 102.234 212.327 102.722 212.387 103.554C212.391 103.603 212.394 103.653 212.394 103.706C212.394 104.718 211.622 105.541 210.672 105.541Z" fill="white"/>
<rect x="150.211" y="59.4194" width="3.00139" height="0.600279" fill="#D2E5C9"/>
<circle cx="150.209" cy="37.2089" r="19.2089" fill="#D2E6C9"/>
<rect x="143.608" y="54.016" width="9.60446" height="9.60446" rx="1.80084" transform="rotate(-45 143.608 54.016)" fill="#D2E6C9"/>
<circle cx="153.211" cy="37.2091" r="19.2089" fill="white"/>
<rect x="146.009" y="54.0164" width="9.60446" height="9.60446" rx="1.80084" transform="rotate(-45 146.009 54.0164)" fill="white"/>
<circle cx="153.213" cy="37.2089" r="11.4053" fill="#41C300"/>
<path fill-rule="evenodd" clip-rule="evenodd" d="M148.486 39.5046C148.791 39.2565 149.24 39.3032 149.489 39.6089C150.337 40.6549 151.688 41.3412 153.221 41.3412C154.745 41.3412 156.088 40.6636 156.938 39.6286C157.188 39.3244 157.637 39.2803 157.941 39.5301C158.246 39.78 158.29 40.2291 158.04 40.5334C156.919 41.8986 155.171 42.7668 153.221 42.7668C151.259 42.7668 149.502 41.8875 148.382 40.5073C148.133 40.2016 148.18 39.7527 148.486 39.5046Z" fill="white"/>
<path fill-rule="evenodd" clip-rule="evenodd" d="M147.57 34.3097C147.91 33.3211 148.848 32.609 149.955 32.609C151.051 32.609 151.982 33.3079 152.331 34.2819C152.479 34.6959 152.263 35.1516 151.849 35.2997C151.435 35.4478 150.979 35.2322 150.831 34.8182C150.702 34.4574 150.358 34.2013 149.955 34.2013C149.549 34.2013 149.201 34.4624 149.075 34.8283C148.932 35.244 148.479 35.465 148.063 35.3218C147.647 35.1785 147.426 34.7254 147.57 34.3097Z" fill="white"/>
<path fill-rule="evenodd" clip-rule="evenodd" d="M154.089 34.3097C154.429 33.3211 155.367 32.609 156.474 32.609C157.57 32.609 158.501 33.3079 158.85 34.2819C158.998 34.6959 158.782 35.1516 158.368 35.2997C157.954 35.4478 157.498 35.2322 157.35 34.8182C157.221 34.4574 156.877 34.2013 156.474 34.2013C156.068 34.2013 155.72 34.4624 155.594 34.8283C155.451 35.244 154.998 35.465 154.582 35.3218C154.166 35.1785 153.945 34.7254 154.089 34.3097Z" fill="white"/>
<defs>
<filter id="filter0_f" x="77.6349" y="87.1561" width="107.008" height="64.2048" filterUnits="userSpaceOnUse" color-interpolation-filters="sRGB">
<feFlood flood-opacity="0" result="BackgroundImageFix"/>
<feBlend mode="normal" in="SourceGraphic" in2="BackgroundImageFix" result="shape"/>
<feGaussianBlur stdDeviation="1.82141" result="effect1_foregroundBlur"/>
</filter>
<filter id="filter1_f" x="77.6349" y="70.7633" width="105.187" height="63.7495" filterUnits="userSpaceOnUse" color-interpolation-filters="sRGB">
<feFlood flood-opacity="0" result="BackgroundImageFix"/>
<feBlend mode="normal" in="SourceGraphic" in2="BackgroundImageFix" result="shape"/>
<feGaussianBlur stdDeviation="1.82141" result="effect1_foregroundBlur"/>
</filter>
<filter id="filter2_f" x="127.316" y="82.9953" width="55.1398" height="36.9" filterUnits="userSpaceOnUse" color-interpolation-filters="sRGB">
<feFlood flood-opacity="0" result="BackgroundImageFix"/>
<feBlend mode="normal" in="SourceGraphic" in2="BackgroundImageFix" result="shape"/>
<feGaussianBlur stdDeviation="2.27677" result="effect1_foregroundBlur"/>
</filter>
<linearGradient id="paint0_linear" x1="120.437" y1="80.3285" x2="109.509" y2="70.7661" gradientUnits="userSpaceOnUse">
<stop stop-color="#2A5D95"/>
<stop offset="1" stop-color="#2A5D95" stop-opacity="0"/>
</linearGradient>
</defs>
</svg>
