<svg xmlns="http://www.w3.org/2000/svg" width="245" height="182" fill="none"><g fill-rule="evenodd"><path d="M93.584 0a17.99 17.99 0 0 0-17.988 17.988v.048H50.62c-9.848 0-17.832 7.984-17.832 17.832S40.772 53.7 50.62 53.7h6.232a27.6 27.6 0 0 0-10.631 10.878H21.687C9.7 64.577 0 74.287 0 86.265c0 10.23 7.083 18.806 16.613 21.1-6.525 4.83-10.755 12.58-10.755 21.32 0 14.64 11.867 26.507 26.507 26.507h18.06A17.75 17.75 0 0 0 48 164.168C48 174.016 55.984 182 65.832 182h133.2c9.848 0 17.832-7.984 17.832-17.832a17.75 17.75 0 0 0-2.426-8.985h4.056c14.64 0 26.507-11.868 26.507-26.507s-11.868-26.507-26.507-26.507h-17.53a21.82 21.82 0 0 0 1.82-1.904c7.22-4.95 11.957-13.26 11.957-22.674 0-15.172-12.3-27.47-27.47-27.47h-.54c4.294-3.234 7.08-8.363 7.114-14.145h32.26a17.99 17.99 0 0 0 17.988-17.988A17.99 17.99 0 0 0 226.102 0H93.584z" fill="#f2f8ff"/><path d="M118.678 16.76c0 1.25 1.014 2.265 2.265 2.265s2.265-1.014 2.265-2.265-1.014-2.265-2.265-2.265-2.265 1.014-2.265 2.265zm3.857 0c0 .88-.713 1.592-1.592 1.592s-1.592-.713-1.592-1.592.713-1.592 1.592-1.592 1.592.713 1.592 1.592z" fill="#ffba53"/><path d="M115.96 148.12c0 1.25 1.014 2.265 2.265 2.265s2.265-1.014 2.265-2.265-1.014-2.265-2.265-2.265-2.265 1.014-2.265 2.265zm3.856 0c0 .88-.713 1.593-1.592 1.593s-1.592-.713-1.592-1.593.713-1.592 1.592-1.592 1.592.713 1.592 1.592z" fill="#737373"/><path d="M38.955 118.678a1.81 1.81 0 0 0 1.812-1.812c0-1-.81-1.812-1.812-1.812s-1.812.812-1.812 1.812a1.81 1.81 0 0 0 1.812 1.812z" fill="#fd6559"/></g><g fill="#ff5959"><path d="M199.16 120.576a.42.42 0 0 1 .555-.232.43.43 0 0 1 .234.56l-2.43 6.002c-.09.22-.337.323-.555.232s-.323-.34-.235-.56l2.432-6.002z"/><path d="M195.493 122.134a.42.42 0 0 0-.552.238c-.087.22.02.47.24.558l6.007 2.42a.42.42 0 0 0 .552-.238.43.43 0 0 0-.24-.557l-6.007-2.42z"/></g><path fill-rule="evenodd" d="M134.2 115.84c4.277-5.152 6.848-11.77 6.848-19 0-16.432-13.32-29.753-29.753-29.753S81.533 80.418 81.533 96.85s13.32 29.753 29.752 29.753c7.22 0 13.84-2.572 18.992-6.85l4.644 4.644-.613.614c-.79.8-.79 1.976 0 2.767l22.138 24.114c1.383 1.384 3.162 2.174 5.14 2.174 3.755 0 6.918-3.162 6.918-6.918 0-1.78-.79-3.755-2.175-4.94l-24.114-22.336a1.91 1.91 0 0 0-2.767 0l-.612.613-4.645-4.645z" fill="#2a4764" fill-opacity=".15"/><path d="M168.503 143.467c0 3.756-3.163 6.918-6.918 6.918-1.977 0-3.756-.79-5.14-2.174l-22.137-24.114c-.79-.79-.79-1.977 0-2.768l5.14-5.14a1.91 1.91 0 0 1 2.767 0l24.114 22.336c1.384 1.186 2.175 3.162 2.175 4.94z" fill="#5a7387"/><path d="M134.966 120.763l3.914-3.913-5.945-5.945-3.913 3.914 5.944 5.944z" fill="#2a4764"/><path d="M135.89 117.773l.988.988 1.977-1.976-5.93-5.93-3.953 3.953 2.965 2.965c1.186-1.186 2.767-1.186 3.953 0z" fill="#5a7387"/><path d="M166.13 138.33l-1.186-.988c.99 1.186 1.582 2.767 1.582 4.348 0 2.57-3.163 3.558-4.942 1.78l-20.754-20.754c-1.186-1.186-2.965-1.186-4.15 0l-1.935 1.925 21.503 23.177c1.186 1.186 2.767 2.175 4.348 2.372 2.174.198 4.35-.593 5.732-1.976s2.174-3.558 1.977-5.732c0-1.582-.99-2.965-2.175-4.15z" fill="#2a4764"/><circle cx="111.284" cy="93.177" r="29.753" fill="#5a7387"/><path d="M122.198 94.982c-.3 0-.544.244-.544.544v9.824h-18.032V89.572h2.612c.3 0 .544-.244.544-.544v-1.165c0-.3-.244-.544-.544-.544h-4.32c-.3 0-.545.244-.545.544v19.198c0 .3.244.544.545.544h21.45c.3 0 .544-.244.544-.544V95.526c0-.3-.244-.544-.544-.544h-1.166zm-15.194 3.063c0 .3.244.544.544.544h1.166c.3 0 .544-.244.544-.544V93.63c0-2.367 2.028-4.057 4.508-4.057h5.748l-2.613 2.42c-.232.215-.232.583 0 .798l.763.7c.215.2.548.193.755-.014l4.992-4.992c.213-.213.213-.557 0-.77l-4.95-4.952c-.223-.223-.587-.2-.795.026l-.865 1c-.186.213-.18.533.018.736l2.696 2.796h-5.748c-3.72 0-6.762 2.705-6.762 6.3v4.414z" fill="#fff"/><mask id="A" mask-type="alpha" maskUnits="userSpaceOnUse" x="81" y="63" width="61" height="60"><circle cx="111.284" cy="93.178" r="29.753" fill="#5a7387"/></mask><g mask="url(#A)"><circle cx="111.286" cy="90.887" r="29.753" fill="#7fa9cc"/></g><circle r="24.031" transform="matrix(1 0 0 -1 111.09 92.0486)" fill="#5a7387"/><mask id="B" mask-type="alpha" maskUnits="userSpaceOnUse" x="87" y="68" width="49" height="49"><circle r="24.031" transform="matrix(1 0 0 -1 111.09 92.0482)" fill="#a7abaf"/></mask><g mask="url(#B)"><circle r="24.031" transform="matrix(1 0 0 -1 111.09 94.169)" fill="#b9d9ff"/></g><rect x="142.599" y="118.345" width="8.896" height="3.031" rx="1.516" transform="rotate(44.691 142.599 118.345)" fill="#93b0c8"/><circle cx="111.287" cy="92.027" r="20.026" fill="#e6f1ff" fill-opacity=".7"/><path d="M106.428 78.613c7.423-2.702 15.632 1.126 18.334 8.55" stroke="#fff" stroke-width="5.208" stroke-linecap="round"/><g fill-rule="evenodd"><path d="M153.683 69.833l5.415 9.556 8.4-7.29-5.584-8.166-8.232 5.9z" fill="#62c5ff"/><path d="M153.705 69.82l5.387 9.567-3.496.02-4.55-8.642 2.66-.945z" fill="#33a8ec"/><path d="M161.923 63.918l-2.47.858-8.397 5.987 2.637-.93 8.23-5.915z" fill="#d3d2d2"/></g><path d="M157.453 69.533s1.376 1.393 2.727.584.52-2.776.52-2.776" stroke="#faf6f6" stroke-width="1.024"/><g fill-rule="evenodd"><path d="M165.47 31.05l-1.742 13.223 13.862-.89.532-12.002-12.652-.332z" fill="#f64e4e"/><path d="M165.5 31.065l-1.778 13.213-3.512-2.547 1.92-11.705 3.37 1.04z" fill="#b53030"/><path d="M178.143 31.386l-3.115-.984-12.883-.368 3.334 1.035 12.664.317z" fill="#d3d2d2"/></g><path d="M169.468 33.538s.33 2.357 2.285 2.562 2.605-2.3 2.605-2.3" stroke="#faf6f6" stroke-width="1.239"/></svg>
