<svg xmlns="http://www.w3.org/2000/svg" xmlns:xlink="http://www.w3.org/1999/xlink" width="128" height="94" viewBox="0 0 128 94">
    <defs>
        <path id="a" d="M0 0h171v114H0z"/>
        <path id="c" d="M63 59.134C63 60.717 61.64 62 59.963 62H4.037C2.36 62 1 60.717 1 59.134l4-57.56C5 1.256 5.272 1 5.607 1h52.786c.335 0 .607.257.607.573l4 57.56z"/>
        <filter id="d" width="109.7%" height="109.8%" x="-4.8%" y="-4.9%" filterUnits="objectBoundingBox">
            <feOffset dx="-6" in="SourceAlpha" result="shadowOffsetInner1"/>
            <feComposite in="shadowOffsetInner1" in2="SourceAlpha" k2="-1" k3="1" operator="arithmetic" result="shadowInnerInner1"/>
            <feColorMatrix in="shadowInnerInner1" values="0 0 0 0 0.894117647 0 0 0 0 0.945098039 0 0 0 0 1 0 0 0 1 0"/>
        </filter>
        <path id="e" d="M12.943 1h10.114a1 1 0 0 1 .998.941l.82 13.942A2 2 0 0 1 22.88 18H13.12a2 2 0 0 1-1.996-2.117l.82-13.942A1 1 0 0 1 12.943 1z"/>
        <filter id="f" width="143.6%" height="135.3%" x="-21.8%" y="-17.6%" filterUnits="objectBoundingBox">
            <feOffset dx="-6" in="SourceAlpha" result="shadowOffsetInner1"/>
            <feComposite in="shadowOffsetInner1" in2="SourceAlpha" k2="-1" k3="1" operator="arithmetic" result="shadowInnerInner1"/>
            <feColorMatrix in="shadowInnerInner1" values="0 0 0 0 0.894117647 0 0 0 0 0.945098039 0 0 0 0 1 0 0 0 1 0"/>
        </filter>
        <rect id="g" width="4" height="17" x="3" y="1" rx="1"/>
        <filter id="h" width="250%" height="135.3%" x="-75%" y="-17.6%" filterUnits="objectBoundingBox">
            <feOffset dx="-6" in="SourceAlpha" result="shadowOffsetInner1"/>
            <feComposite in="shadowOffsetInner1" in2="SourceAlpha" k2="-1" k3="1" operator="arithmetic" result="shadowInnerInner1"/>
            <feColorMatrix in="shadowInnerInner1" values="0 0 0 0 0.894117647 0 0 0 0 0.945098039 0 0 0 0 1 0 0 0 1 0"/>
        </filter>
        <path id="i" d="M2 4h32a2 2 0 0 1 2 2v21a2 2 0 0 1-2 2H2a2 2 0 0 1-2-2V6a2 2 0 0 1 2-2z"/>
        <filter id="j" width="116.7%" height="124%" x="-8.3%" y="-12%" filterUnits="objectBoundingBox">
            <feOffset dx="-6" in="SourceAlpha" result="shadowOffsetInner1"/>
            <feComposite in="shadowOffsetInner1" in2="SourceAlpha" k2="-1" k3="1" operator="arithmetic" result="shadowInnerInner1"/>
            <feColorMatrix in="shadowInnerInner1" values="0 0 0 0 0.894117647 0 0 0 0 0.945098039 0 0 0 0 1 0 0 0 1 0"/>
        </filter>
        <path id="k" d="M24.661 10.644a8.5 8.5 0 1 1-2.887-1.99"/>
        <filter id="l" width="117.6%" height="117.6%" x="-8.8%" y="-8.8%" filterUnits="objectBoundingBox">
            <feOffset dx="3" dy="-2" in="SourceAlpha" result="shadowOffsetInner1"/>
            <feComposite in="shadowOffsetInner1" in2="SourceAlpha" k2="-1" k3="1" operator="arithmetic" result="shadowInnerInner1"/>
            <feColorMatrix in="shadowInnerInner1" values="0 0 0 0 0.894117647 0 0 0 0 0.945098039 0 0 0 0 1 0 0 0 1 0"/>
        </filter>
        <path id="n" d="M18.5 23a6.5 6.5 0 1 1 0-13 6.5 6.5 0 0 1 0 13z"/>
        <filter id="m" width="123.1%" height="123.1%" x="-11.5%" y="-11.5%" filterUnits="objectBoundingBox">
            <feOffset dx="3" dy="-2" in="SourceAlpha" result="shadowOffsetInner1"/>
            <feComposite in="shadowOffsetInner1" in2="SourceAlpha" k2="-1" k3="1" operator="arithmetic" result="shadowInnerInner1"/>
            <feColorMatrix in="shadowInnerInner1" values="0 0 0 0 0.894117647 0 0 0 0 0.945098039 0 0 0 0 1 0 0 0 1 0"/>
        </filter>
    </defs>
    <g fill="none" fill-rule="evenodd" transform="translate(-23 -10)">
        <mask id="b" fill="#fff">
            <use xlink:href="#a"/>
        </mask>
        <g mask="url(#b)">
            <path fill="#4C4C4C" fill-rule="nonzero" d="M82.5 29.5c-6.627 0-12 5.373-12 12v12a9 9 0 0 0 9 9h6a9 9 0 0 0 9-9v-12c0-6.627-5.373-12-12-12zm0-1c7.18 0 13 5.82 13 13v12c0 5.523-4.477 10-10 10h-6c-5.523 0-10-4.477-10-10v-12c0-7.18 5.82-13 13-13z"/>
            <path fill="#4C4C4C" fill-rule="nonzero" d="M85.5 30.5c-6.627 0-12 5.373-12 12v12a9 9 0 0 0 9 9h6a9 9 0 0 0 9-9v-12c0-6.627-5.373-12-12-12zm0-1c7.18 0 13 5.82 13 13v12c0 5.523-4.477 10-10 10h-6c-5.523 0-10-4.477-10-10v-12c0-7.18 5.82-13 13-13z"/>
            <g transform="translate(23 10)">
                <g transform="translate(30 31)">
                    <use fill="#FFF" xlink:href="#c"/>
                    <use fill="#000" filter="url(#d)" xlink:href="#c"/>
                </g>
                <path fill="#4C4C4C" fill-rule="nonzero" d="M88.5 32.573c0-.022-17.63-.047-52.893-.073-.043 0-1.412 19.211-4.107 57.634 0 1.3 1.13 2.366 2.537 2.366h55.926c1.402 0 2.527-1.057 2.537-2.35l-4-57.577zM93.499 90.1c.001 1.9-1.589 3.401-3.536 3.401H34.037c-1.947 0-3.537-1.5-3.536-3.401L34.5 32.573c0-.6.502-1.073 1.107-1.073h52.786c.605 0 1.107.474 1.106 1.039l4 57.56z"/>
                <g transform="translate(45 54)">
                    <path fill="#F65314" d="M28.575 10.838c1.334.357 1.996.937 2.647.098.65-.84-.555-2.075-1.888-2.432-1.334-.358-3.116-.083-2.942 1.138.174 1.22.85.838 2.183 1.196z" opacity=".127"/>
                    <circle cx="29.5" cy="5.5" r="1.5" fill="#4C4C4C"/>
                    <path fill="#4C4C4C" fill-rule="nonzero" d="M28.883.78a.375.375 0 0 1 .037-.749c1.213.06 2.308.38 3.282.96a5.741 5.741 0 0 1 2.23 2.373.375.375 0 1 1-.668.34 4.992 4.992 0 0 0-1.946-2.068c-.866-.516-1.843-.801-2.935-.856z"/>
                </g>
                <g fill="#4C4C4C" fill-rule="nonzero">
                    <path d="M53.573 77.58a.375.375 0 0 1 .506-.555c2.05 1.87 4.827 2.438 8.371 1.69 3.523-.743 5.69-2.629 6.551-5.685a.375.375 0 1 1 .722.204c-.94 3.335-3.331 5.416-7.118 6.215-3.765.795-6.789.176-9.032-1.87z"/>
                    <path d="M68.455 72.68a.375.375 0 1 1 .44-.606l1.991 1.448a.375.375 0 1 1-.441.607l-1.99-1.449z"/>
                </g>
                <path fill="#4DA1FF" fill-rule="nonzero" d="M124.408 63.237a2.828 2.828 0 1 1 0-5.657 2.828 2.828 0 0 1 0 5.657zm0-.84a1.988 1.988 0 1 0 0-3.977 1.988 1.988 0 0 0 0 3.977z"/>
                <circle cx="58.505" cy="1.505" r="1.505" fill="#4DA1FF"/>
                <g fill-rule="nonzero">
                    <path fill="#A367E3" d="M12.656 39.184a.42.42 0 1 1 .59.598l-4.523 4.476a.42.42 0 0 1-.591-.597l4.524-4.477z"/>
                    <path fill="#A367E3" d="M8.723 39.184a.42.42 0 1 0-.591.598l4.524 4.476a.42.42 0 0 0 .59-.597l-4.523-4.477z"/>
                    <g fill="#FF7C00">
                        <path d="M108.703 9.703a.42.42 0 0 1 .594.594l-3 3a.42.42 0 0 1-.594-.594l3-3z"/>
                        <path d="M106.297 9.703a.42.42 0 0 0-.594.594l3 3a.42.42 0 0 0 .594-.594l-3-3z"/>
                    </g>
                </g>
                <path fill="#4C4C4C" fill-rule="nonzero" d="M1 93.5a.5.5 0 1 1 0-1h6.058a.5.5 0 1 1 0 1H1zm10.79 0a.5.5 0 1 1 0-1h88.837a.5.5 0 0 1 0 1H11.79zm95.465 0a.5.5 0 0 1 0-1H122a.5.5 0 0 1 0 1h-14.745z"/>
            </g>
            <g transform="translate(47 52)">
                <use fill="#FFF" xlink:href="#e"/>
                <use fill="#000" filter="url(#f)" xlink:href="#e"/>
            </g>
            <path fill="#4C4C4C" fill-rule="nonzero" d="M59.943 53.5a.5.5 0 0 0-.5.47l-.82 13.942a1.5 1.5 0 0 0 1.498 1.588h9.758a1.5 1.5 0 0 0 1.497-1.588l-.82-13.941a.5.5 0 0 0-.499-.471H59.943zm0-1h10.114a1.5 1.5 0 0 1 1.498 1.412l.82 13.941a2.5 2.5 0 0 1-2.496 2.647H60.12a2.5 2.5 0 0 1-2.496-2.647l.82-13.941a1.5 1.5 0 0 1 1.498-1.412z"/>
            <g transform="translate(47 52)">
                <use fill="#FFF" xlink:href="#g"/>
                <use fill="#000" filter="url(#h)" xlink:href="#g"/>
            </g>
            <path fill="#4C4C4C" fill-rule="nonzero" d="M51 53.5a.5.5 0 0 0-.5.5v15a.5.5 0 0 0 .5.5h2a.5.5 0 0 0 .5-.5V54a.5.5 0 0 0-.5-.5h-2zm0-1h2a1.5 1.5 0 0 1 1.5 1.5v15a1.5 1.5 0 0 1-1.5 1.5h-2a1.5 1.5 0 0 1-1.5-1.5V54a1.5 1.5 0 0 1 1.5-1.5z"/>
            <g transform="translate(47 52)">
                <use fill="#FFF" xlink:href="#i"/>
                <use fill="#000" filter="url(#j)" xlink:href="#i"/>
            </g>
            <path fill="#4C4C4C" fill-rule="nonzero" d="M49 56.5a1.5 1.5 0 0 0-1.5 1.5v21a1.5 1.5 0 0 0 1.5 1.5h32a1.5 1.5 0 0 0 1.5-1.5V58a1.5 1.5 0 0 0-1.5-1.5H49zm0-1h32a2.5 2.5 0 0 1 2.5 2.5v21a2.5 2.5 0 0 1-2.5 2.5H49a2.5 2.5 0 0 1-2.5-2.5V58a2.5 2.5 0 0 1 2.5-2.5z"/>
            <path fill="#4C4C4C" fill-rule="nonzero" d="M47 76.5a.5.5 0 1 1 0-1h35.954a.5.5 0 1 1 0 1H47zM47 64.5a.5.5 0 1 1 0-1h36.075c.276 0 .333.224.333.5s-.057.5-.333.5H47z"/>
            <g transform="matrix(-1 0 0 1 83 52)">
                <use fill="#FFF" xlink:href="#k"/>
                <use fill="#000" filter="url(#l)" xlink:href="#k"/>
            </g>
            <path fill="#4C4C4C" fill-rule="nonzero" d="M58.701 62.989a.5.5 0 0 0-.724-.69 9 9 0 1 0 3.057-2.107.5.5 0 1 0 .385.923A8 8 0 1 1 56.5 68.5c0-2.08.797-4.034 2.201-5.511z"/>
            <g fill="#000" transform="matrix(-1 0 0 1 83 52)">
                <use filter="url(#m)" xlink:href="#n"/>
            </g>
            <path fill="#4C4C4C" fill-rule="nonzero" d="M64.5 74.5a6 6 0 1 1 0-12 6 6 0 0 1 0 12zm0 1a7 7 0 1 0 0-14 7 7 0 0 0 0 14z"/>
            <path fill="#4C4C4C" fill-rule="nonzero" d="M64.5 64.5a.5.5 0 1 0 0-1 5 5 0 0 0-5 5 .5.5 0 1 0 1 0 4 4 0 0 1 4-4z"/>
        </g>
    </g>
</svg>
