<svg width="630" height="384" fill="none" xmlns="http://www.w3.org/2000/svg">
  <path fill-rule="evenodd" clip-rule="evenodd" d="M1 0h629v384H1V0z" fill="#fff"/>
  <path fill-rule="evenodd" clip-rule="evenodd" d="M1 356h629v28H1v-28z" fill="#999" fill-opacity=".1"/>
  <path fill-rule="evenodd" clip-rule="evenodd" d="M43.052 366c1.188 0 2.099.208 2.731.625.633.417.948 1.065.948 1.944 0 .549-.127.993-.382 1.335-.255.342-.623.611-1.103.806.16.195.328.419.503.67.175.252.348.515.52.789.171.274.337.56.497.857.16.296.308.587.445.873H45.22c-.147-.256-.293-.515-.442-.778a21.099 21.099 0 00-.924-1.47 7.57 7.57 0 00-.459-.603h-.88v2.851h-1.783v-7.696c.389-.075.79-.128 1.206-.158.416-.03.787-.045 1.115-.045zm-17.223 7.063c.102.286.196.563.285.836h1.91c-.3-.842-.582-1.619-.85-2.333a81.827 81.827 0 00-.787-2.017 59.738 59.738 0 00-1.534-3.459h-1.69a39.858 39.858 0 00-.773 1.662 81.79 81.79 0 00-1.543 3.814c-.266.714-.548 1.491-.847 2.333h1.851c.088-.271.181-.547.28-.834.102-.285.202-.571.302-.857h3.093l.303.855zm-2.033-4.742c.078-.193.135-.349.175-.462.048.111.11.263.187.458l.269.676a65.49 65.49 0 01.676 1.818h-2.265c.126-.338.248-.661.37-.967l.073-.188c.092-.235.177-.454.254-.657.097-.257.185-.483.261-.678zm11.084 4.068v1.51h-5.292v-7.809h1.784v6.299h3.508zm3.474-6.299h-1.782v7.809h1.782v-7.809zm4.452 1.42a4.58 4.58 0 01.349-.011c.571 0 1.003.08 1.297.242.293.161.44.434.44.817 0 .398-.145.68-.435.845-.29.165-.77.248-1.44.248h-.503v-2.119l.292-.022zm11.765 6.389a30.69 30.69 0 00-.285-.836l-.026-.074-.277-.781H50.89c-.1.286-.2.572-.302.857a44.34 44.34 0 00-.28.834h-1.85c.298-.842.58-1.619.847-2.333a81.803 81.803 0 011.543-3.814 38.49 38.49 0 01.773-1.662h1.69a57.476 57.476 0 011.533 3.459c.257.631.518 1.304.786 2.017.27.714.551 1.491.85 2.333h-1.909zm-2.318-5.578c.078-.193.136-.349.176-.462.047.111.11.263.186.458l.269.676a67.908 67.908 0 01.676 1.818h-2.265c.126-.338.248-.661.37-.967l.073-.188c.092-.236.178-.455.255-.657.096-.257.184-.483.26-.678zm7.576 4.147c.084.007.18.013.291.017.11.003.242.005.394.005.892 0 1.553-.221 1.983-.665.43-.443.646-1.055.646-1.836 0-.819-.206-1.439-.617-1.859-.412-.421-1.063-.631-1.955-.631-.121 0-.247.001-.377.005a3.69 3.69 0 00-.365.028v4.936zm4.834-.71c.213-.504.32-1.093.32-1.769 0-.706-.107-1.311-.32-1.814a3.153 3.153 0 00-.914-1.24 3.79 3.79 0 00-1.423-.71A7.04 7.04 0 0060.48 366c-.32 0-.703.013-1.148.04a10.62 10.62 0 00-1.286.151v7.606c.411.083.83.137 1.257.164.427.026.8.039 1.12.039.701 0 1.333-.082 1.897-.248a3.882 3.882 0 001.434-.744c.393-.33.696-.747.909-1.25zm7.383 2.141c-.09-.273-.183-.55-.286-.836-.1-.286-.202-.571-.303-.855h-3.093l-.301.857c-.1.287-.192.563-.28.834h-1.851c.299-.842.58-1.619.847-2.333a80.61 80.61 0 011.543-3.814c.248-.567.507-1.121.773-1.662h1.69a57.744 57.744 0 011.533 3.459c.257.631.518 1.304.787 2.017.268.714.55 1.491.85 2.333h-1.91zm-2.318-5.578c.078-.193.135-.349.175-.462.047.111.11.263.187.458l.268.676a67.844 67.844 0 01.676 1.818H68.77c.125-.338.247-.661.37-.967l.072-.187c.092-.236.178-.455.255-.658.097-.257.184-.483.26-.678zM77.84 366c1.189 0 2.1.208 2.731.625.633.417.95 1.065.95 1.944 0 .549-.129.993-.384 1.335-.255.342-.623.611-1.103.806.16.195.328.419.503.67.176.252.349.515.52.789.172.274.337.56.498.857.16.296.308.587.445.873h-1.992c-.147-.256-.294-.515-.442-.778a20.816 20.816 0 00-.924-1.47 7.57 7.57 0 00-.459-.603h-.88v2.851H75.52v-7.696c.389-.075.79-.128 1.206-.158.415-.03.787-.045 1.114-.045zm-.246 1.51a4.58 4.58 0 01.35-.011c.57 0 1.003.08 1.296.242.293.161.44.434.44.817 0 .398-.145.68-.434.845-.29.165-.77.248-1.44.248h-.503v-2.119l.291-.022z" fill="#000" fill-opacity=".3"/>
  <path fill-rule="evenodd" clip-rule="evenodd" d="M315 0h315v72H315V0zM0 0h315v72H0V0z" fill="#999" fill-opacity=".1"/>
  <path fill-rule="evenodd" clip-rule="evenodd" d="M315 0v356h-.5V0h.5z" fill="#D1D1D1"/>
  <path fill-rule="evenodd" clip-rule="evenodd" d="M72 248a2 2 0 012-2h168a2 2 0 012 2v29a2 2 0 01-2 2H74a2 2 0 01-2-2v-29z" fill="#999" fill-opacity=".1" stroke="#C9C9C9" stroke-width=".1"/>
  <path d="M29 162.489c12.592 0 12.9-24.86 25.65-24.86 12.75 0 13.295 37.89 25.549 37.89 12.253 0 12.253-25.013 25.222-25.013 12.97 0 12.407 13.44 25.461 13.44 13.054 0 13.054-63.946 25.732-63.946 12.677 0 12.677 115 25.996 115 12.308 0 11.261-102.514 24.928-102.514 13.668 0 12.35 51.46 25.697 51.46 13.348 0 12.626 25.316 25.583 25.316 12.957 0 12.957-11.633 26.182-11.633" stroke="#DFDFDF" stroke-width="3" stroke-linecap="round"/>
  <rect x="24.5" y="160" width="8.5" height="8.5" rx="4.25" fill="#DFDFDF" stroke="#fff" stroke-linecap="round" stroke-linejoin="round"/>
  <rect x="50.5" y="134" width="8.5" height="8.5" rx="4.25" fill="#DFDFDF" stroke="#fff" stroke-linecap="round" stroke-linejoin="round"/>
  <rect x="76.5" y="172" width="8.5" height="8.5" rx="4.25" fill="#DFDFDF" stroke="#fff" stroke-linecap="round" stroke-linejoin="round"/>
  <rect x="101.5" y="147" width="8.5" height="8.5" rx="4.25" fill="#DFDFDF" stroke="#fff" stroke-linecap="round" stroke-linejoin="round"/>
  <rect x="127.5" y="160" width="8.5" height="8.5" rx="4.25" fill="#DFDFDF" stroke="#fff" stroke-linecap="round" stroke-linejoin="round"/>
  <rect x="152.5" y="96" width="8.5" height="8.5" rx="4.25" fill="#DFDFDF" stroke="#fff" stroke-linecap="round" stroke-linejoin="round"/>
  <rect x="279" y="171.5" width="12.5" height="12.5" rx="6.25" fill="#DFDFDF" stroke="#fff" stroke-width="2" stroke-linecap="round" stroke-linejoin="round"/>
  <rect x="204.5" y="109" width="8.5" height="8.5" rx="4.25" fill="#DFDFDF" stroke="#fff" stroke-linecap="round" stroke-linejoin="round"/>
  <rect x="230.5" y="160" width="8.5" height="8.5" rx="4.25" fill="#DFDFDF" stroke="#fff" stroke-linecap="round" stroke-linejoin="round"/>
  <rect x="255.5" y="186" width="8.5" height="8.5" rx="4.25" fill="#DFDFDF" stroke="#fff" stroke-linecap="round" stroke-linejoin="round"/>
  <rect x="176" y="208.5" width="12.5" height="12.5" rx="6.25" fill="#DFDFDF" stroke="#fff" stroke-width="2" stroke-linecap="round" stroke-linejoin="round"/>
  <path fill-rule="evenodd" clip-rule="evenodd" d="M279 54c9.941 0 18-8.059 18-18s-8.059-18-18-18-18 8.059-18 18 8.059 18 18 18z" fill="#999" fill-opacity=".15"/>
  <rect x="384.846" y="286" width="49.846" height="49.846" rx="1.847" transform="rotate(90 384.846 286)" fill="#000" fill-opacity=".054"/>
  <rect x="498.346" y="286" width="49.846" height="49.846" rx="1.847" transform="rotate(90 498.346 286)" fill="#000" fill-opacity=".054"/>
  <rect x="555.096" y="286" width="49.846" height="49.846" rx="1.847" transform="rotate(90 555.096 286)" fill="#000" fill-opacity=".054"/>
  <rect x="441.596" y="286" width="49.846" height="49.846" rx="1.847" transform="rotate(90 441.596 286)" fill="#000" fill-opacity=".054"/>
  <rect x="611.846" y="286" width="49.846" height="49.846" rx="1.847" transform="rotate(90 611.846 286)" fill="#000" fill-opacity=".054"/>
  <rect x="20" y="16" width="194" height="16" rx="1" fill="#000" fill-opacity=".05"/>
  <rect x="20" y="44" width="220" height="10" rx="1" fill="#000" fill-opacity=".03"/>
  <path fill-rule="evenodd" clip-rule="evenodd" d="M594 54c9.941 0 18-8.059 18-18s-8.059-18-18-18-18 8.059-18 18 8.059 18 18 18z" fill="#999" fill-opacity=".15"/>
  <rect x="335" y="16" width="194" height="16" rx="1" fill="#000" fill-opacity=".05"/>
  <rect x="335" y="44" width="220" height="10" rx="1" fill="#000" fill-opacity=".03"/>
  <rect x="335" y="99" width="6" height="6" rx="3" fill="#999" fill-opacity=".1"/>
  <rect x="335" y="125" width="6" height="6" rx="3" fill="#999" fill-opacity=".1"/>
  <rect x="351" y="98" width="185" height="8" rx="2" fill="#999" fill-opacity=".1"/>
  <rect x="351" y="124" width="185" height="8" rx="2" fill="#999" fill-opacity=".1"/>
  <rect x="335" y="151" width="6" height="6" rx="3" fill="#999" fill-opacity=".1"/>
  <rect x="351" y="150" width="185" height="8" rx="2" fill="#999" fill-opacity=".1"/>
  <rect x="335" y="177" width="6" height="6" rx="3" fill="#999" fill-opacity=".1"/>
  <rect x="351" y="176" width="185" height="8" rx="2" fill="#999" fill-opacity=".1"/>
  <rect x="335" y="255" width="194" height="16" rx="1" fill="#000" fill-opacity=".05"/>
</svg>
