<svg xmlns="http://www.w3.org/2000/svg" width="21" height="20" viewBox="0 0 21 20" fill="#50a2ff">
  <path fill-rule="evenodd" clip-rule="evenodd" d="M10.5 19C15.4706 19 19.5 14.9706 19.5 10C19.5 5.02944 15.4706 1 10.5 1C5.52944 1 1.5 5.02944 1.5 10C1.5 14.9706 5.52944 19 10.5 19ZM5.43749 10C5.43749 7.20406 7.70405 4.9375 10.5 4.9375C11.6086 4.9375 12.6341 5.29387 13.4679 5.89831L11.1538 8.44384C10.9527 8.35925 10.7318 8.3125 10.5 8.3125C9.56801 8.3125 8.81249 9.06802 8.81249 10C8.81249 10.932 9.56801 11.6875 10.5 11.6875C11.432 11.6875 12.1875 10.932 12.1875 10C12.1875 9.7107 12.1147 9.4384 11.9864 9.20043L14.3002 6.65521C15.0859 7.54716 15.5625 8.71793 15.5625 10C15.5625 12.7959 13.2959 15.0625 10.5 15.0625C7.70405 15.0625 5.43749 12.7959 5.43749 10ZM10.5 3.8125C11.9001 3.8125 13.1917 4.27756 14.2285 5.06164L15.0529 4.15483C15.2619 3.92496 15.6176 3.90802 15.8475 4.11699C16.0774 4.32596 16.0943 4.68172 15.8854 4.91159L15.0608 5.81856C16.071 6.91976 16.6875 8.38788 16.6875 10C16.6875 13.4173 13.9173 16.1875 10.5 16.1875C7.08273 16.1875 4.31249 13.4173 4.31249 10C4.31249 6.58274 7.08273 3.8125 10.5 3.8125Z"/>
</svg>
