<svg xmlns="http://www.w3.org/2000/svg" width="21" height="20" viewBox="0 0 21 20" fill="#50a2ff">
  <path fill-rule="evenodd" clip-rule="evenodd" d="M11.8768 3.0072C14.5101 3.63329 16.0201 5.99957 16.0201 8.82622V13.4299L17.8616 15.2713V16.1921H3.12988V15.2713L4.97135 13.4299V8.82622C4.97135 5.99037 6.47214 3.63329 9.11464 3.0072V2.3811C9.11464 1.61689 9.73153 1 10.4957 1C11.2599 1 11.8768 1.61689 11.8768 2.3811V3.0072ZM10.864 18.9629C10.7443 18.9905 10.6246 18.9998 10.4957 18.9998C9.47367 18.9998 8.65422 18.1711 8.64501 17.1583H12.3279C12.3279 17.4161 12.2819 17.6555 12.1898 17.8765C11.9504 18.4289 11.4624 18.834 10.864 18.9629Z"/>
</svg>
