<svg xmlns="http://www.w3.org/2000/svg" width="20" height="20" viewBox="0 0 20 20" fill="#f00">
  <path d="M17.4573 11.1242C17.2282 8.2906 15.8394 6.51488 14.6143 4.9479C13.4798 3.49722 12.5 2.24448 12.5 0.396511C12.5 0.248074 12.4125 0.112402 12.2738 0.0443804C12.1346 -0.0240492 11.9673 -0.0128422 11.8408 0.0745132C10.0008 1.32532 8.46559 3.43347 7.9293 5.44494C7.55699 6.84534 7.50773 8.41967 7.50082 9.45943C5.8016 9.11465 5.41668 6.70002 5.41262 6.67371C5.39348 6.54846 5.31293 6.43947 5.19574 6.37995C5.07734 6.32121 4.93816 6.31694 4.81813 6.37338C4.72902 6.41435 2.63102 7.42706 2.50895 11.4705C2.50039 11.6051 2.5 11.74 2.5 11.8749C2.5 15.8032 5.86465 18.9994 10 18.9994C10.0057 18.9998 10.0118 19.0005 10.0167 18.9994C10.0183 18.9994 10.0199 18.9994 10.022 18.9994C14.1471 18.9882 17.5 15.7962 17.5 11.8749C17.5 11.6773 17.4573 11.1242 17.4573 11.1242ZM10 18.2078C8.62141 18.2078 7.5 17.0729 7.5 15.678C7.5 15.6304 7.49961 15.5825 7.50324 15.5237C7.51992 14.9354 7.63754 14.5338 7.76652 14.2667C8.00824 14.7599 8.44035 15.2133 9.14227 15.2133C9.37258 15.2133 9.55895 15.0363 9.55895 14.8175C9.55895 14.254 9.57117 13.6038 9.71887 13.0171C9.85031 12.4968 10.1644 11.9433 10.5624 11.4996C10.7394 12.0755 11.0845 12.5416 11.4214 12.9966C11.9036 13.6475 12.402 14.3205 12.4895 15.4681C12.4948 15.5361 12.5001 15.6045 12.5001 15.678C12.5 17.0729 11.3786 18.2078 10 18.2078Z"/>
</svg>
