<svg width="117" height="81" viewBox="0 0 117 81" fill="none" xmlns="http://www.w3.org/2000/svg">
<path d="M55 80.2C77.2 80.2 95.1 62.3 95.1 40.1C95.1 17.9 77.2 0 55 0C32.8 0 14.9 17.9 14.9 40.1C14.7 62.3 32.9 80.2 55 80.2Z" fill="#FED42B"/>
<path d="M35.3 22L0 68.2L9.39999 78.9L35.6 44.2L32.9 63.2L47.6 68.3L65.5 39.7C64.7 45 63.4 57.3 75.1 61.1C93.5 66.7 109.6 33.6 117 16.8L106.3 11.2C98 28.6 85.2 47.8 80.1 46.5C75 45.2 79.6 28.9 82.5 18.4V18.1L66.2 12.5L46.7 44.3L49.4 26.9L35.3 22Z" fill="black"/>
</svg>
