<svg width="16" height="16" viewBox="0 0 16 16" fill="none" xmlns="http://www.w3.org/2000/svg">
<path d="M1.66666 1.33334V5.33334H5.66666M14.3333 14.6667V10.6667H10.3333" stroke="#41C300" stroke-linecap="round" stroke-linejoin="round"/>
<path d="M14.6667 7.66666C14.6035 6.20767 14.0631 4.80976 13.1283 3.68774C12.1936 2.56573 10.9163 1.78168 9.49268 1.45607C8.06908 1.13046 6.57795 1.2813 5.2484 1.88542C3.91885 2.48954 2.82444 3.51351 2.13334 4.8M1.33334 8.33333C1.40965 9.78698 1.95963 11.1757 2.8993 12.2874C3.83897 13.3992 5.11668 14.1728 6.53731 14.4902C7.95795 14.8075 9.44341 14.6512 10.7669 14.0451C12.0903 13.4389 13.179 12.4163 13.8667 11.1333" stroke="#41C300" stroke-linecap="round" stroke-linejoin="round"/>
<circle cx="8" cy="8" r="7" fill="#41C300" fill-opacity="0.1"/>
</svg>
