<svg width="16" height="16" viewBox="0 0 16 16" fill="none" xmlns="http://www.w3.org/2000/svg">
<path d="M11.3333 1.33334H13.1133C13.4906 1.32667 13.8573 1.45876 14.1436 1.70455C14.4299 1.95034 14.6161 2.29271 14.6667 2.66667V7.33334C14.6161 7.7073 14.4299 8.04967 14.1436 8.29546C13.8573 8.54125 13.4906 8.67335 13.1133 8.66667H11.3333M6.66666 10V12.6667C6.66666 13.1971 6.87737 13.7058 7.25244 14.0809C7.62752 14.456 8.13622 14.6667 8.66666 14.6667L11.3333 8.66667V1.33334H3.81332C3.49177 1.32971 3.17974 1.4424 2.93472 1.65067C2.6897 1.85894 2.52821 2.14874 2.47999 2.46667L1.55999 8.46667C1.53098 8.65777 1.54387 8.85289 1.59776 9.03851C1.65165 9.22413 1.74525 9.39581 1.87208 9.54166C1.99891 9.68752 2.15594 9.80405 2.33228 9.8832C2.50861 9.96234 2.70005 10.0022 2.89332 10H6.66666Z" stroke="#FFD012" stroke-linecap="round" stroke-linejoin="round"/>
<path d="M6.66669 9.99992V12.6666C6.66669 13.197 6.8774 13.7057 7.25247 14.0808C7.62755 14.4559 8.13625 14.6666 8.66669 14.6666L11.3334 8.66658V1.33325H3.81335C3.4918 1.32961 3.17977 1.44231 2.93475 1.65058C2.68973 1.85884 2.52824 2.14864 2.48002 2.46658L1.56002 8.46658C1.53102 8.65768 1.5439 8.8528 1.59779 9.03841C1.65168 9.22403 1.74529 9.39572 1.87211 9.54157C1.99894 9.68743 2.15597 9.80396 2.33231 9.8831C2.50864 9.96225 2.70008 10.0021 2.89335 9.99992H6.66669ZM11.3334 1.33325H13.1134C13.4907 1.32658 13.8573 1.45867 14.1436 1.70446C14.43 1.95025 14.6161 2.29262 14.6667 2.66658V7.33325C14.6161 7.70721 14.43 8.04958 14.1436 8.29537C13.8573 8.54116 13.4907 8.67325 13.1134 8.66658H11.3334" fill="#FFD012" fill-opacity="0.1"/>
</svg>
