<svg xmlns="http://www.w3.org/2000/svg" width="58" height="58" viewBox="0 0 58 58">
    <g fill="#9BBBCD" fill-rule="evenodd">
        <path d="M41.658 44.487c-7.856 6.436-19.467 5.988-26.8-1.345-7.333-7.333-7.781-18.944-1.345-26.8l2.847 2.846c-4.885 6.277-4.443 15.356 1.326 21.126 5.77 5.77 14.85 6.211 21.126 1.326l2.846 2.847zM44.487 41.658c6.436-7.856 5.988-19.467-1.345-26.8-7.333-7.333-18.944-7.781-26.8-1.345l2.846 2.847c6.277-4.885 15.356-4.443 21.126 1.326 5.77 5.77 6.211 14.85 1.326 21.126l2.847 2.846z"/>
    </g>
</svg>
