<svg xmlns="http://www.w3.org/2000/svg" width="18" height="18" viewBox="0 0 18 18">
    <g fill="none" fill-rule="evenodd">
        <circle cx="9" cy="9" r="9" fill="#F1361D"/>
        <path fill="#FFDC42" d="M10.618 6.17l-.766.47.018-.907-.47-.777.899.023.766-.47-.018.908.47.777-.9-.024zM8.36 3.663l-.886-.148.609-.673.155-.894.663.607.886.148-.609.673-.155.894-.663-.607zm.45 8.05l-.749.496-.013-.907-.496-.76.898-.008.75-.496.013.907.496.76-.898.008zm1.541-2.448l-.893.101.4-.814-.097-.903.804.401.893-.102-.4.815.097.903-.804-.401zM4.366 8.25L2.216 9.8l.794-2.546-2.121-1.59 2.639-.023.838-2.532.838 2.532 2.638.024-2.12 1.589.792 2.547z"/>
    </g>
</svg>
