<svg xmlns="http://www.w3.org/2000/svg" width="35" height="24" viewBox="0 0 35 24">
    <path fill="#FFF" fill-rule="evenodd" d="M12.467 14.303v-3.948h10.942c.1.576.182 1.151.182 1.908 0 6.58-4.436 11.252-11.124 11.252C6.06 23.515.879 18.366.879 12 .88 5.634 6.06.485 12.467.485c3.128 0 5.744 1.135 7.764 3.01l-3.146 3.01c-.86-.822-2.367-1.776-4.618-1.776-3.957 0-7.185 3.257-7.185 7.271 0 4.014 3.228 7.271 7.185 7.271 4.585 0 6.307-3.274 6.572-4.968h-6.572zm22.051-4.468v3.29h-3.31v3.29h-3.311v-3.29h-3.311v-3.29h3.31v-3.29h3.312v3.29h3.31z"/>
</svg>
