<svg xmlns="http://www.w3.org/2000/svg" xmlns:xlink="http://www.w3.org/1999/xlink" width="18" height="18" viewBox="0 0 18 18">
    <defs>
        <circle id="a" cx="9" cy="9" r="9"/>
    </defs>
    <g fill="none" fill-rule="evenodd">
        <mask id="b" fill="#fff">
            <use xlink:href="#a"/>
        </mask>
        <use fill="#2B388F" xlink:href="#a"/>
        <path d="M1.797 3.031L5.45 6.684h1.095v-.036L2.342 2.445c-.19.188-.371.383-.545.586M6.73 11.515L2.445 15.8c.185.192.376.377.576.554l3.824-3.824v-1.016H6.73z" mask="url(#b)"/>
        <path d="M7.663-.047v7.635H-.035a9.093 9.093 0 0 0-.033 2.602h7.731v7.882a9.055 9.055 0 0 0 2.691.001v-7.884h7.74c.05-.385.078-.777.078-1.177 0-.483-.038-.96-.11-1.424h-7.708V-.048a9.188 9.188 0 0 0-2.691.001" mask="url(#b)"/>
        <path d="M10.867 5.327v1.13l4.132-4.13a8.913 8.913 0 0 0-.601-.53l-3.531 3.53zM10.867 11.515v.073l4.314 4.314c.187-.19.367-.387.537-.593l-3.793-3.794h-1.058z" mask="url(#b)"/>
        <g mask="url(#b)">
            <path fill="#FEFEFE" d="M16.63 14.187l-3.109-3.11h4.466a9.048 9.048 0 0 0 .238-2.04c0-.485-.039-.96-.111-1.424a9.417 9.417 0 0 0-.183-.864h-4.54l3.081-3.082a9.216 9.216 0 0 0-1.671-1.765 9.349 9.349 0 0 0-.73-.525L11.27 4.18V.152a9.093 9.093 0 0 0-.864-.176 9.205 9.205 0 0 0-2.691.002c-.294.043-.58.105-.864.176v4.254L3.917 1.473A9.25 9.25 0 0 0 2.648 2.51a9.23 9.23 0 0 0-.545.587 9.28 9.28 0 0 0-.544.71L4.5 6.75H.2a9.07 9.07 0 0 0-.184.864 9.132 9.132 0 0 0-.033 2.6c.037.293.093.58.159.864H4.37L1.407 14.04a9.206 9.206 0 0 0 1.621 1.877c.213.187.438.36.667.528l3.156-3.157v4.631c.283.071.57.134.864.177a9.188 9.188 0 0 0 2.691.001c.293-.042.58-.103.864-.174v-4.405l3.026 3.026a9.231 9.231 0 0 0 1.826-1.673c.18-.218.348-.448.508-.684"/>
            <path fill="#EC1D24" d="M11.27 6.565l4.132-4.133a8.95 8.95 0 0 0-.602-.53l-3.53 3.532v1.13zM6.851 6.749v-.036L2.648 2.51a9.23 9.23 0 0 0-.545.586l3.653 3.653h1.095zM11.27 11.078v.073l4.313 4.313c.188-.19.368-.387.538-.593l-3.794-3.793H11.27zM6.851 11.078h-.115l-4.285 4.286c.185.192.377.378.578.553l3.822-3.822v-1.017z"/>
            <path fill="#EC1D24" d="M18 7.714h-7.714V0c-.438-.064-.765-.122-1.22-.122-.46 0-.91.056-1.352.122v7.714H0a8.007 8.007 0 0 0-.095 1.322c0 .4.045.864.095 1.25h7.714V18c.441.066.826.643 1.286.643.455 0 .848-.579 1.286-.643v-7.714l7.86-.073a9.093 9.093 0 0 0-.032-2.6"/>
        </g>
    </g>
</svg>
