<svg xmlns="http://www.w3.org/2000/svg" xmlns:xlink="http://www.w3.org/1999/xlink" width="18" height="18" viewBox="0 0 18 18">
    <defs>
        <ellipse id="a" cx="9.035" cy="8.726" rx="4.275" ry="4.295"/>
        <mask id="b" width="8.55" height="8.591" x="0" y="0" fill="#fff">
            <use xlink:href="#a"/>
        </mask>
    </defs>
    <g fill="none" fill-rule="evenodd">
        <circle cx="9" cy="9" r="9" fill="#056537"/>
        <use stroke="#E7BF0A" stroke-dasharray="1,1" stroke-linecap="round" stroke-width=".8" mask="url(#b)" transform="rotate(1 9.035 8.726)" xlink:href="#a"/>
        <path fill="#FFF" d="M10.187 13.982h.014v-.005h-.014v.005zm0-.005c0 .001.005 0 0 0zm-.014.035h.014v-.005h-.014v.005zm0-.005c0 .002.005 0 0 0zm.057-.064l-.003-.003a.61.61 0 0 0-.011.01l.004.005c.26-.337 1.573-.598 1.503-1.141l.003.003.01-.01a.052.052 0 0 1-.003-.005c-.372.483-1.238.596-1.503 1.14-.001 0 .003-.006 0 0zm-.448.348l-.02-.023c.073-.405.587-.848.9-1.057.248-.166 1.009-.7 1.281-.667.202.599-1.377 1.747-2.161 1.747zM9.626 14.668l.017-.259c.83.283 1.659.142 2.407-.315.034.081-.078.358-.079.467 0 .223.22.361.22.56-.182.103-.743-.021-.953-.072a81.239 81.239 0 0 0-1.612-.38c.006-.086.016.003 0 0M5.797 15.13c-.023-.146.172-.358.216-.496.059-.182-.082-.365-.08-.54.336.195.81.47 1.216.455.39-.014.828-.136 1.199-.136-.002.084.003.168.016.251-.712.235-1.796.596-2.567.465-.01-.068.027.005 0 0"/>
        <path fill="#FFF" d="M8.43 14.16c.01.05-.045.058-.044.098-.105.038-.432-.573-.478-.637.109-.456.675-.123.937-.105.302.02 1.122-.367 1.233.108-.085.111-.337.637-.477.637.003-.042-.054-.05-.045-.1.072-.078.151-.154.136-.287-.017-.034-.032-.072-.073-.085H8.372c-.032.02-.067.037-.076.085-.02.13.061.209.133.286.01.05-.072-.077 0 0"/>
        <path fill="#FFF" d="M9.125 14.971c-.068-.127-.03-.259-.109-.376h-.042c-.119.103-.011.32-.159.411-.394.101-.625-.968.13-.973 1.13-.007.311 1.072.18.938-.045-.084.047.048 0 0M12.851 12.764c.002.001.029-.004.048.006.312-.086.936-.557.978-.752-.014.064-1.022.742-1.026.746m.24-.53c.14-.145.878-.601 1.087-.542-.224.82-.897 1.397-1.726 1.397.062-.065.482-.694.638-.855M5.919 13.036c-.011-.313-.54-1.127-.731-1.124.012 0 .583.986.73 1.124m-.984-1.39c.206-.091.748.54.868.7.203.27.295.606.295.944-.796-.21-.845-1.033-1.163-1.643"/>
        <path fill="#FFF" d="M12.095 13.029c.004-.006-.002.005 0 0 .227-.254.629-.63.72-1.125-.23 0-.616.914-.719 1.126l-.002-.003-.012.01m.05-.61c.149-.23.624-.821.922-.782-.063.64-.486 1.51-1.165 1.646 0-.08.078-.606.243-.864M14.583 10.43c-.16.059-.718.603-.622.915l.622-.915zm-.908 1.214c-.043-.451.606-1.502 1.069-1.582.139.214-.347 1.582-1.069 1.582zM14.45 9.705c.24-.455.302-1.367.306-1.37-.001-.002-.342.742-.306 1.37m-.132.455a.541.541 0 0 1-.054-.19c.237-.228.186-.875.092-1.164-.08-.243.445-.811.667-.811-.221.776-.105 1.531-.705 2.165-.03-.059.018-.02 0 0M3.503 7.857c.101-.4.098-.85.151-1.26-.215.3-.247.993-.17 1.321l.019-.06c.009-.037-.006.02 0 0m.325-1.584c-.102.144.053.823-.012 1.157-.026.134-.208.776-.33.857-.038-.049-.672-1.33.342-2.014M14.47 7.796a.404.404 0 0 0 .043.153c.13-.273-.018-1.41-.172-1.354.074.39.055.81.128 1.201-.001.045-.006-.033 0 0m-.32-1.527c.695.298.765 1.32.342 2.024-.341-.693-.276-1.616-.341-2.024M4.82 11.888l.008.017c.083-.156-.11-1.03-.184-1.143-.012.224-.028.995.176 1.126.003.005-.031-.02 0 0m-.398-.45c.01-.27-.017-.734.09-.964.337-.05.502.93.548 1.13-.06-.023-.11-.046-.166-.033-.086.094.132.463.132.616-.034.016-.624-.396-.604-.75"/>
        <path fill="#FFF" d="M13.164 11.897c.202-.22.192-.815.179-1.119-.198.242-.152.813-.176 1.111l-.003-.003-.01.01c0 .002.002.004.003.005.004-.004.007-.008.007-.004.031-.034 0-.004 0 0m-.076-.328a.215.215 0 0 0-.15.034c-.069-.231.256-1.145.536-1.13.258.557.135 1.515-.507 1.721.11-.142.135-.61.12-.625M8.69 3.425c.28.087.797-.026 1.082-.092-.34-.013-.765-.08-1.082.092.007.002.059-.032 0 0m1.455-.239l.018.049c-.305.388-1.386.626-1.778.233.574-.44 1.121-.282 1.76-.282.007.02-.021 0 0 0M13.907 9.37c-.16-.29-.27-.998-.258-1.346.688.336.804 1.197.606 1.87-.079-.11-.07-.425-.063-.425-.041-.327-.06-.889-.327-1.11 0 0 .228.638.22.837a.431.431 0 0 0-.178.175M3.819 9.47c-.034.151.005.29-.088.425-.196-.67-.079-1.53.597-1.87.002-.001.004 0 .012.002-.122.432-.163.905-.253 1.343-.057-.048-.112-.187-.186-.174 0-.217.103-.664.219-.838 0 0 0 .002.002.003l.011-.01a.11.11 0 0 0-.004-.006c-.24.311-.303.737-.333 1.124h.023c-.005.02-.009 0 0 0M11.854 4.563c-.252-.151-.764-.273-1.065-.245.003.012.858.347 1.065.245m.324.097c-.166.074-.183-.012-.36-.011l-.077.09c-.463 0-1.007-.153-1.291-.554-.003-.021-.008-.046.02-.07.706.128 1.038-.033 1.64.489.023.021.026.02.068.056M6.193 4.526c-.017.014-.043.015-.055.042.13.039 1.088-.154 1.053-.255-.276 0-.773.075-.998.213-.017.014.075-.046 0 0m-.371.13c.46-.493 1.075-.52 1.695-.54.272.3-1.086.6-1.27.624l-.076-.088c-.082-.01-.248.109-.35.003"/>
        <path fill="#FFF" d="M13.747 11.034c-.472-.379.086-1.479.337-1.747h.011c.045.458.22 1.244-.23 1.536.022-.402.183-.795.148-1.2-.15.416-.138.822-.175 1.246l-.09.165M4.12 10.823c-.332-.4-.375-1.011-.228-1.536h.01c.47.462.577 1.147.341 1.755-.172-.313-.23-1.055-.264-1.434h-.01c0 .414.1.81.151 1.215-.026-.032-.003-.031 0 0M4.378 5.48c-.22.245-.42.675-.42 1.009.093-.284.47-.704.42-1.009-.01.012.01.062 0 0m-.456 1.258c-.028-.125.011-.464-.055-.539h-.028c-.178-.321.446-.872.606-1.087.406.386-.237 1.387-.523 1.626-.008-.035.012-.01 0 0"/>
        <path fill="#FFF" d="M4.98 5.962c.002-.024-.75.401-.78.837.018-.009.76-.632.78-.837m-.927 1.062c-.022-.317.237-.777.493-.947.086-.058.497-.341.6-.317.04.552-.616 1.13-1.093 1.264-.007-.095.017-.005 0 0M13.768 6.762c.002.01-.54-.498-.75-.735-.027.223.53.68.75.735-.112-.028.004 0 0 0m.163.26c-.454-.138-1.166-.721-1.09-1.272.025.013 1.195.628 1.09 1.273M3.832 8.133c.136-.192.41-.693.49-.898-.353.14-.493.91-.49.898M4.477 7c0 .27-.077.512-.218.742-.082.134-.477.778-.578.767.06-.608.08-1.265.745-1.53.02-.009.035-.004.051.02 0 .03-.016-.024 0 0M13.66 7.226c.115.074.391.79.582 1.02-.004 0-.221-.787-.582-1.02m.64 1.288c-.35-.38-.891-1.138-.794-1.54.373.13.96.884.794 1.54M13.232 5.131c-.167-.244-.452-.662-.718-.68.012.001.606.548.718.68m-.983-.95c1.307.378 1.104 1.3 1.122 1.334-.235-.426-1.147-.713-1.122-1.334M9.63 3.9c.226.131.567.1.818.083-.23-.096-.58-.119-.817-.083.03.017.033-.005 0 0m-.439-.147c.574 0 1.067-.276 1.54.273-.1.049-.156.028-.269.028a.166.166 0 0 0-.096.111c-.373 0-.911-.08-1.175-.412.032 0 .06.075 0 0M8.374 3.903c-.264 0-.584.035-.84.113.119.063.83-.064.84-.113m-.854.194a.312.312 0 0 1-.257-.028c.069-.627 1.257-.34 1.532-.304-.08.313-.867.474-1.275.332"/>
        <path fill="#FFF" d="M8.302 2.892c.053.367-.706 1.027-1.038.98a.362.362 0 0 0 .11-.213c.164-.14.486-.21.589-.411l.002.002c.004-.003-.4.21-.55.318 0-.073.412-.609.887-.676M9.117 3.066a.18.18 0 0 1-.124.031c0-.666.757-.67 1.024-1.105.073.43-.528 1.044-.887 1.074.064-.192.752-.522.686-.746l.013-.008-.004-.005c-.137.176-.744.47-.708.76-.006.003-.007-.053 0 0"/>
        <path fill="#FFF" d="M9.666 2.853c.179-.24.607-.553.92-.5 0 .324-.959 1.094-1.113.683l.014-.016c.21 0 .806-.27.919-.441l.002.002.011-.01a.11.11 0 0 1-.004-.005c-.13.17-.552.257-.75.287.034-.045.015-.002 0 0M8.45 14.823l.037.04c-.214.174-1.318.845-1.558.365.452-.193 1.046-.293 1.522-.405.014.016-.017.004 0 0M10.986 15.189l.068.04c-.17.493-1.34-.197-1.556-.366l.051-.042c.342-.07 1.05.319 1.437.368.025.014-.039-.005 0 0M8.156 2.884c-.333.256-.755-.195-.755-.537.354.162.65.138.892.47-.165.075-.56-.16-.72-.237 0 0 .004-.02.002-.03h-.009c.014.168.46.3.585.321.002 0 .003.008.005.013-.013.01-.002-.005 0 0M8.513 2.731c-.054.02-.076.074-.134.077-.154-.253-.416-.496-.416-.818.182.252.555.371.783.579l-.165.102c-.018-.014-.403-.335-.405-.333-.066.06.305.35.337.374v.02c-.01.003 0-.008 0 0M10.722 3.872c-.136.02-.596-.303-.704-.395.039-.042.084-.074.128-.107.26.055.446.293.576.502-.03.004-.025-.04 0 0"/>
        <path fill="#FFF" d="M10.187 3.325a.151.151 0 0 0 .04-.148c-.04-.068-.099-.09-.174-.067l-.002-.008c.31-.097.52.162.52.466-.099-.045-.31-.162-.384-.243.013-.022.033.036 0 0M13.8 6.762l.006.076-.024.004a24.87 24.87 0 0 0-.014-.078l.032-.002c.002.025-.01 0 0 0M11.836 4.736l.043-.007c.016-.007.016-.01-.043.007"/>
        <path fill="#FFF" d="M12.038 4.889c.3-.027.887.514 1.14.665-.208.101-1.137-.653-1.14-.665m-.186-.163c-.007.003-.023.008-.019.004-.206.143.672.791.748.828.253.124.535.241.818.196 0-.46-1.17-1.078-1.547-1.028M11.833 4.734l.009-.006-.009.006M10.751 3.513c.3-.027.971.474 1.082.65-.22-.21-1.08-.638-1.082-.65m.88.275c-.141-.095-.827-.494-.959-.494-.164.29.133.582.324.747 0 0-.005-.002.036.032.414-.09.938.177 1.113.456-.179-.285-.31-.602-.515-.741M13.996 6.522c-.145-.298-.347-1.197-.4-1.227.172.098.444.85.4 1.227m.16-.338c-.051-.315-.302-.947-.626-1.067-.285.438.145 1.392.536 1.617.042-.193.032-.297.015-.5.023-.016.07-.076.075-.05M11.099 14.117c.208-.16 1.03-.725 1.281-.574-.207.101-1.271.566-1.281.574m-.488.092c.664.405 1.896-.496 2.342-.88-.693-.369-1.756.568-2.342.88M5.62 13.477c.3.033.78.254.999.452-.223.059-.999-.44-.999-.452m-.59-.143c.72.43 1.431 1.112 2.344.874-.102-.053-1.697-1.257-2.344-.874M8.213 14.234l.04.074a2.45 2.45 0 0 0-.04-.074"/>
        <path fill="#FFF" d="M6.414 12.909c.3-.028 1.14.92 1.391 1.07-.207.102-1.388-1.058-1.39-1.07m1.798 1.325c-.231-.44-.536-.8-.951-1.065-.182-.117-1.026-.69-1.224-.62.439.942 1.02 1.742 2.167 1.742l.023-.029c-.007.01-.045-.083-.015-.028M4.109 11.918c.343.137.857.681 1.1.994-.207.101-.942-.931-1.1-.994m.827.32c-.215-.155-.918-.616-1.133-.545.278.78.876 1.441 1.743 1.393-.304-.231-.327-.644-.61-.848M3.372 10.35c.282-.111.48.845.731.996-.207.102-.63-1.037-.73-.997m-.13-.291c-.03.722.56 1.598 1.121 1.682.153.004-.518-1.413-1.122-1.682M3.47 9.634c-.013-.14-.219-1.315-.292-1.346.306.13.328 1.149.293 1.346m.113-.608c.001-.42-.119-.838-.565-1.02.003.003-.046-.013-.043-.016-.005.004.132.769.158 1.13.017.244.282.962.546 1.038l.046-.187c-.244-.192-.142-.679-.142-.945M4.832 5.602c.161-.206.936-.71 1.133-.688-.208.102-1.126.678-1.133.688m1.31-.878c-.199.067-1.587.52-1.553 1.032.03.446 1.636-.78 1.554-1.032"/>
        <path fill="#FFF" d="M4.81 5.188c-.036-.068.67-.803.805-.856 0 .156-.811.845-.805.856m1.012-1.045c-.28-.196-1.266 1.071-1.202 1.366.346-.496 1.22-.656 1.202-1.366"/>
        <path fill="#FFF" d="M6.014 4.326c.074-.158 1.082-.712 1.145-.76-.041.21-1.14.749-1.145.76M7.263 3.32c-.079-.041-.43.38-.778.511-.272.103-.672.34-.644.699.307-.24 1.817-.537 1.422-1.21M8.29 3.311c.082-.205.324-.5.5-.614-.006.168-.491.616-.5.614m.903-.95c-.093.227-.9.196-.99 1.161-.007.064.1.084.144.038 0-.011-.025-.105-.025-.119.184-.296.942-.758.87-1.08M11.422 6.123c.546.194.978 1.409 1.06 1.927.121.764.062 1.576-.31 2.268-.686 1.274-1.84 1.902-3.224 1.98-1.345.077-2.67-.928-3.208-2.144-.28-.633-.326-1.3-.258-1.979.036-.365.179-.714.327-1.043.068-.15.577-1.06.755-1.009 0 .103-.25.433-.302.523-.17.304-.242.675-.291 1.016a2.985 2.985 0 0 0 .193 1.515c.493 1.184 1.551 1.907 2.798 1.95 1.172.04 2.345-.717 2.811-1.828a3.6 3.6 0 0 0 .266-1.376 2.786 2.786 0 0 0-.207-1.018c-.076-.194-.41-.604-.41-.782.01.004 0 .013 0 0"/>
        <path fill="#FFF" d="M7.606 9.246a.383.383 0 0 0-.07.166c.058-.044.08-.1.07-.166-.036.046 0 .02 0 0m2.747-1.331c-.03.036-.035.063-.025.091.056.033.114.012.166.019.028-.021.024-.046.02-.071-.117-.05-.123-.061-.161-.04-.03.037.038-.021 0 0m-2.254.584l.135-.109-.057-.045c-.08-.002-.159-.005-.23.052l.152.102c.046-.037-.048-.032 0 0m2.119.763c-.02-.097-.026-.196-.051-.298-.123.043-.233.125-.365.143 0 .4-.16.478-.465.708.352.07.668-.318.88-.553-.02-.097-.061.068 0 0m-1.393.528c.17-.488-.16-.532-.545-.532 0 .373.189.532.545.532.035-.1-.055 0 0 0m-1.34-.085c-.074.67.886.544 1.177.297-.47.015-.503-.404-.465-.75-.14.034-.332-.032-.461-.056-.05.258-.094.318-.251.51-.008.076.157-.192 0 0m1.918-.735c-.225-.256-.115-.693.102-.91-.056.286-.234.716.175.806 0-.658-.055-1.332-.055-1.97.076.104.139.218.205.329.01.492-.026 1.09-.026 1.62.111.005.204-.05.307-.088-.09-.265-.201-.39-.062-.646.13.152.13.384.245.54.147-.108.304-.216.368-.398-.144 0-.444.034-.502-.16-.014-.276.358-.544.508-.236.234.481-.042.664-.333 1 .096.272-.021.693.386.704.474.012.284-.626.264-.916-.035-.493-.314-1.378-.046-1.776.19-.086.59 1.202.61 1.3.083.376.055.792-.077 1.153-.307.843-1.139 1.136-1.94 1.136.596-.365 1.344-.323 1.76-1.003.39-.635.071-1.46-.249-2.043-.043.571.111 1.205.105 1.788-.007.687-.646.747-.893.162-.296.213-.41.7-.86.687-.118-.004-.171-.06-.242-.137.01.011-.306.077-.307.077-.325.518-1.466.659-1.432-.221-.63.42-1.039-.09-.72-.734.102.258-.206.679.3.679.432 0 .668-.47.449-.819-.008-.085.05-.152.07-.233.064.08.099.178.17.244l.211-.313c-.113-.092-.232-.158-.38-.076-.093-.59 1.7-.422.733.08.178.019.293-.034.445-.139 0-.362-.243-1.28-.003-1.547.092.24.235.282.085.525-.027.153.01.52.044.65.126.475-.358.976-.772.635-.102.045-.177.135-.26.206v.037c.166.052.335.03.505.035l.048-.092a.243.243 0 0 1-.006.092c.486 0 .769.232.618.762l.14-.043c-.02-.145.044-.436.166-.526-.042.15-.057.303-.043.459.168-.08.314-.194.466-.308 0-.38-.064-.13-.277-.372zM9.49 6.46c.103-.054.102-.091.087-.199-.055.051-.095.11-.087.2m-.441-.162c-.067-.068-.143-.075-.227-.023l.116.074.11-.05c-.027-.034-.037.017 0 0m-1.601-.113c.283.119.22.369.605.364.26-.004.48-.038.728-.13l-.064-.072h-.204c.032-.324.675-.367.77-.068-.041.106-.104.123-.233.168.082.097.189.09.287.084.1-.037.11-.527.3-.41.283.175-.192.493-.236.624l-.009-.002v-.058c-.204.088-.358-.025-.487-.168-.68.16-.927.414-1.5-.168-.073.134-.191.49-.39.471-.167-.058-.175-.489-.128-.625.045.146-.003.33.124.442h.067c.102-.093.21-.49.37-.452.028.012-.055-.013 0 0"/>
        <path fill="#FFF" d="M8.384 7.238c.197.194.032.674-.275.587-.086-.025-.143-.18-.218-.182-.318.554-.434.17-.786.034-.321-.124-.33.699-.627.667-.239-.173-.236-.547-.184-.812.086.186-.004.462.182.613h.056c.195-.236.267-.68.635-.7.154.073.108.268.314.29.225.025.384-.198.48-.37.079.075.065.187.17.244a.223.223 0 0 0 .216-.044c-.07-.115-.057-.224.037-.327.014.015-.033.06 0 0M10.7 6.434c-.171-.288-.975-.268-.57.222.196 0 .398-.14.57-.222-.007-.014-.082.04 0 0m-.856-1.006c0 .213-.072 1.09.152 1.187-.193-.79.634-.414 1.05-.28l.02.047c-.08.235-.771.471-.96.471v.104a8.862 8.862 0 0 1-.036.003c.005-.12-.051-.197-.172-.234-.176-.186-.063-.332-.111-.549-.051-.23-.076-.57.044-.757a.305.305 0 0 1 .013.008c0 .027-.004-.003 0 0M9.216 7.385c-.043.476.473 1.628-.109 1.926-.04-.315-.394-2.316-.022-2.46.122.208.34.314.13.534-.006.073.038-.04 0 0"/>
        <path fill="#FFF" d="M7.251 8.31l-.122.196c-.06-.03-.096-.116-.147-.183a.696.696 0 0 1 .111-.248c.061.002.087.118.14.152l.104-.2c.072-.017.127.048.164.193-.026.114-.089.145-.122.228-.057-.009-.08-.124-.128-.138-.043.07.047.014 0 0M7.43 6.207c-.045.097-.084.177-.15.161l-.098-.155.11-.215-.012-.023h.052l.06.121a33 33 0 0 0 .11-.207.881.881 0 0 1 .15.228c-.048.095-.083.204-.156.224l-.067-.134c-.044.097.026.052 0 0M6.828 7.278c.087.03.14.135.225.203v.087c-.262.273-.196.25-.47-.043.078-.1.143-.194.245-.247.087.03-.102.053 0 0"/>
        <path fill="#FFF" d="M6.74 6.984c.11.032.202.1.274.203.006.006.001.028.001.061l-.213.218a.743.743 0 0 1-.254-.232c.048-.09.125-.154.192-.25.038.015-.067.096 0 0M8.833 8.087c-.086.091-.167.193-.274.193l-.196-.243c.071-.126.071-.126.239-.238l.231.288c-.086.091-.083-.104 0 0M10.825 7.126l-.215-.243c.039-.122.154-.135.222-.237l.248.21a.56.56 0 0 1-.255.27c-.08-.09.099-.053 0 0"/>
    </g>
</svg>
