<svg xmlns="http://www.w3.org/2000/svg" width="18" height="16" viewBox="0 0 18 16">
    <g fill="none" fill-rule="evenodd">
        <path stroke="#22DF97" d="M4.7 13.133c.288.215.591.41.908.584.89.491 1.849.808 2.808.984.335.062.646.101.924.123.163.013.276.017.33.017A7.17 7.17 0 1 0 2.5 7.577l2.2 5.556z"/>
        <path fill="#22DF97" d="M2.5 9L0 6h5zM9 4.498C9 4.223 9.232 4 9.5 4c.276 0 .5.233.5.498v3.83a.504.504 0 0 1-.5.499.505.505 0 0 1-.5-.499v-3.83z"/>
        <path stroke="#22DF97" stroke-linecap="round" d="M9.5 8.5H12"/>
    </g>
</svg>
