<svg xmlns="http://www.w3.org/2000/svg" width="14" height="13" viewBox="0 0 14 13">
    <g fill="none" fill-rule="evenodd">
        <path stroke="#0970AC" d="M3.943 10.76c.228.168.468.321.718.46.724.398 1.505.656 2.286.8.466.086.824.114 1.017.114a5.817 5.817 0 1 0-5.816-5.91l1.795 4.536z"/>
        <path fill="#0970AC" d="M2.059 7.412L0 4.942h4.118zM7.412 3.705c0-.227.19-.41.412-.41.227 0 .411.19.411.41v3.154c0 .226-.19.41-.411.41a.416.416 0 0 1-.412-.41V3.705z"/>
        <path stroke="#0970AC" stroke-linecap="round" d="M7.824 7h2.058"/>
    </g>
</svg>
