<svg xmlns="http://www.w3.org/2000/svg" xmlns:xlink="http://www.w3.org/1999/xlink" width="18" height="16" viewBox="0 0 18 16">
    <defs>
        <path id="a" d="M0 1.143h7.875v1.143H0z"/>
        <path id="b" d="M3.304.313h1.227v.83H3.304z"/>
    </defs>
    <g fill="none" fill-rule="evenodd">
        <path fill="#0970AC" d="M13.624 12.21l-1.452-3.737-1.459 3.737h2.911zm1.28 3.314l-.928-2.4h-3.614l-.94 2.4H8.298l3.384-8.667h1.199l3.332 8.667h-1.309z"/>
        <path stroke="#0970AC" d="M.311 12.319c.453-.222 2.29-1.24 3.775-2.918C5.57 7.723 6.297 5.103 6.297 4.438"/>
        <path stroke="#0970AC" d="M1.774 5.79c.272.803.985 2.377 1.685 3.3.7.923 2.112 2.677 3.829 2.954"/>
        <g transform="translate(0 2.286)">
            <use fill="#D8D8D8" xlink:href="#a"/>
            <path stroke="#0970AC" d="M.5 1.643h6.875v1H.5z"/>
        </g>
        <g transform="translate(0 2.286)">
            <use fill="#D8D8D8" xlink:href="#b"/>
            <path stroke="#0970AC" d="M3.304.813h1.227l-.5-.5v.83l.5-.5H3.304l.5.5v-.83l-.5.5z"/>
        </g>
    </g>
</svg>
