<svg xmlns="http://www.w3.org/2000/svg" width="36" height="36" viewBox="0 0 36 36">
    <g fill="none" fill-rule="evenodd">
        <ellipse cx="18.192" cy="17.7" fill="#FFF" rx="17.737" ry="17.7"/>
        <path fill="#0970AC" d="M20.285 11.173a9.365 9.365 0 0 1 4.27 3.098c1.751 2.287 2.73 6.474-.292 10.237 5.513-4.713 4.368-10.326 1.793-13.682a9.333 9.333 0 0 0-5.631-3.488c.214-.901.524-1.73.811-2.8-5.872 2.117-7.592 4.557-7.592 4.557s3.099 3.527 7.54 6.335c-.482-1.765-.76-3.132-.899-4.257"/>
        <path fill="#EC2024" d="M16.099 24.226c-1.634-.59-3.132-1.616-4.266-3.099-1.754-2.286-2.732-6.475.285-10.235-5.51 4.71-4.365 10.324-1.79 13.68a9.34 9.34 0 0 0 5.629 3.49c-.21.9-.522 1.73-.806 2.8 5.867-2.117 7.589-4.559 7.589-4.559s-3.102-3.525-7.539-6.335c.482 1.765.76 3.132.898 4.258"/>
    </g>
</svg>
