<svg xmlns="http://www.w3.org/2000/svg" width="18" height="18" viewBox="0 0 18 18">
    <g fill="none" fill-rule="evenodd">
        <circle cx="9" cy="9" r="9" fill="#FFF"/>
        <path fill="#0E46D4" d="M16.387 3.857H1.613A8.99 8.99 0 0 1 9 0a8.99 8.99 0 0 1 7.387 3.857zM1.622 14.143h14.756A8.981 8.981 0 0 1 9 18a8.981 8.981 0 0 1-7.378-3.857zM9 5.143l-3.214 5.786h6.428L9 5.143zm0 .826l2.592 4.596H6.408L9 5.969z"/>
        <path fill="#0E46D4" d="M9 12.857l3.214-5.786H5.786L9 12.857zm0-.826L6.408 7.435h5.184L9 12.031z"/>
    </g>
</svg>
