<svg xmlns="http://www.w3.org/2000/svg" xmlns:xlink="http://www.w3.org/1999/xlink" width="19" height="22" viewBox="0 0 19 22">
    <defs>
        <rect id="a" width="13" height="16" y="1" rx="6.5"/>
        <rect id="b" width="13" height="16" y="1" rx="6.5"/>
        <path id="c" d="M12.981 7c.013.165.019.332.019.5v3a6.5 6.5 0 1 1-13 0v-3c0-.168.006-.335.019-.5H12.98z"/>
        <path id="d" d="M13 8v-.5a6.5 6.5 0 0 0-13 0V8h13z"/>
    </defs>
    <g fill="none" fill-rule="evenodd">
        <g transform="translate(3 2)">
            <use fill="#FFF" xlink:href="#a"/>
            <rect width="16" height="19" x="-1.5" y="-.5" stroke="#FFF132" stroke-width="3" rx="7"/>
        </g>
        <g transform="translate(3 2)">
            <use fill="#FFF" xlink:href="#b"/>
            <rect width="14" height="17" x="-.5" y=".5" stroke="#0970AC" rx="7"/>
        </g>
        <g transform="translate(3 2)">
            <use fill="#FFF" xlink:href="#c"/>
            <path stroke="#FFF" d="M12.5 7.5H.5v3a6 6 0 1 0 12 0v-3z"/>
        </g>
        <g transform="translate(3 2)">
            <use fill="#FFF" xlink:href="#d"/>
            <path stroke="#FFF" d="M12.5 7.5a6 6 0 1 0-12 0h12z"/>
        </g>
        <path stroke="#0970AC" d="M9.5 2.5v8M16 10.5H3"/>
    </g>
</svg>
