<svg xmlns="http://www.w3.org/2000/svg" width="28" height="28" viewBox="0 0 28 28">
    <g fill="none" fill-rule="evenodd">
        <circle cx="14" cy="14" r="14" fill="#FF2936"/>
        <path fill="#128415" d="M10 .58v26.84C4.217 25.7 0 20.342 0 14S4.217 2.3 10 .58z"/>
        <path fill="#EFE83F" d="M14.387 16.5c-1.586-.048-8.855-4.591-8.907-5.315l.402-.67c.72 1.05 8.154 5.467 8.885 5.31l-.38.674"/>
        <path fill="#EFE83F" d="M5.798 10.425c-.144.383 1.898 1.645 4.352 3.139 2.452 1.494 4.57 2.415 4.726 2.284a.988.988 0 0 0 .07-.132c-.027.045-.1.057-.211.025-.664-.192-2.394-.984-4.533-2.284-2.143-1.3-4.007-2.498-4.295-3.007a.327.327 0 0 1-.032-.15h-.008l-.062.107-.007.018zm8.629 6.094c-.028.05-.077.052-.174.042-.592-.067-2.393-.942-4.524-2.217-2.478-1.486-4.523-2.838-4.302-3.191l.06-.107.012.003c-.198.599 4.042 3.024 4.29 3.178 2.453 1.521 4.52 2.411 4.702 2.178l-.064.114z"/>
        <path fill="#0A0B09" d="M14.327 16.581c-.022 0-.047-.002-.074-.005-.604-.067-2.426-.962-4.531-2.222-2.81-1.685-4.225-2.696-4.32-3.1-.01-.044-.007-.078.013-.11l.06-.108c0 .013-.003.023 0 .035l-.035.087a.12.12 0 0 0-.01.09c.094.392 1.503 1.401 4.307 3.081 2.102 1.26 3.92 2.15 4.518 2.215.09.01.134.01.157-.03l.042-.07a.182.182 0 0 1-.08.013c-.502 0-2.356-.83-4.592-2.217-.023-.015-.082-.047-.17-.1-2.74-1.615-4.127-2.64-4.135-3.047.057.269.701.987 4.15 3.02.087.052.147.087.17.102 2.234 1.384 4.08 2.212 4.577 2.212.053 0 .09-.01.107-.03l-.002.002c0 .013-.003.026-.01.033l-.033.097c-.024.044-.069.052-.109.052zm.497-.706c-.37 0-2.376-.897-4.682-2.299C7.5 11.968 5.64 10.8 5.782 10.418l.073-.127c0 .002.002.007.005.01l-.043.114c-.148.403 2.235 1.857 4.34 3.136 2.301 1.402 4.302 2.295 4.667 2.295.028 0 .037-.006.043-.008.014-.028.03-.055.042-.077-.035.017-.1.017-.18-.005-.725-.21-2.517-1.061-4.535-2.287-1.953-1.185-3.994-2.472-4.3-3.012a.335.335 0 0 1-.034-.157c.03.053.042.11.06.142.305.54 2.452 1.887 4.289 3 2.016 1.225 3.805 2.075 4.53 2.287.098.027.17.02.194-.023.033.01.033.013-.027.12-.032.044-.052.05-.082.05z"/>
        <path fill="#EFE83F" d="M10.289 11.623c1.588-.01 3.546-.216 4.674-.666l-.243-.395c-.666.37-2.635.61-4.444.648-2.137-.02-3.649-.218-4.404-.728l-.228.42c1.39.592 2.813.716 4.645.72"/>
        <path fill="#EFE83F" d="M15.028 10.967c-.037.062-.775.315-1.856.502-.734.112-1.693.209-2.889.209-1.135 0-2.062-.08-2.763-.175-1.138-.178-1.725-.427-1.941-.516l.052-.107c.627.248 1.215.4 1.906.507.696.092 1.613.176 2.744.174a19.258 19.258 0 0 0 2.866-.214c1.11-.179 1.717-.41 1.804-.517l.077.137zm-.214-.4c-.119.097-.718.308-1.774.477-.704.102-1.598.191-2.744.191a18.11 18.11 0 0 1-2.65-.17c-1.07-.138-1.642-.392-1.848-.466l.064-.104c.16.08.711.303 1.797.457.666.094 1.556.164 2.637.164 1.138 0 2.023-.092 2.724-.194 1.06-.147 1.63-.418 1.72-.485l.074.13z"/>
        <path fill="#0A0B09" d="M10.249 11.692c-.96 0-1.88-.06-2.731-.176-1.107-.172-1.7-.415-1.924-.505l-.01-.07.035-.066a9.328 9.328 0 0 0 1.918.494c.86.12 1.777.177 2.727.177.986-.003 1.923-.07 2.88-.211 1.099-.18 1.71-.408 1.794-.515l.102.14c-.044.086-.807.34-1.866.524-.9.139-1.874.208-2.89.208h-.035zm-4.623-.797l-.035.1c.236.079.828.32 1.931.494.85.114 1.77.174 2.727.174v.015l.034-.015a19.29 19.29 0 0 0 2.886-.21c1.11-.193 1.817-.444 1.847-.494l-.08-.121c-.055.104-.619.335-1.787.524a20.448 20.448 0 0 1-5.614.037 8.526 8.526 0 0 1-1.909-.504zm4.653.355c-.962 0-1.872-.057-2.635-.17-.947-.123-1.498-.332-1.762-.434l-.087-.032.037-.1c.003-.007.028-.034.035-.034.095.047.624.29 1.792.457.53.074 1.41.164 2.617.164.964 0 1.83-.062 2.741-.194 1.012-.14 1.609-.403 1.713-.482l.1.132c-.123.114-.709.33-1.788.502-.912.131-1.787.19-2.746.19h-.017zm-4.424-.743l-.042.1.079.012c.264.1.812.308 1.757.432.76.112 1.67.17 2.63.17v.014l.017-.015c.96 0 1.83-.062 2.741-.191 1.074-.172 1.653-.383 1.77-.475l-.082-.11c-.055.066-.607.344-1.703.493-.914.132-1.782.194-2.726.194-1.23 0-2.113-.09-2.64-.164-1.175-.167-1.707-.413-1.801-.46z"/>
        <path fill="#EFE83F" d="M5.077 13.536c.977.527 3.146.79 5.197.81 1.868.003 4.304-.29 5.214-.772l-.028-.527c-.283.447-2.89.872-5.206.857-2.314-.02-4.464-.375-5.18-.84l.003.472"/>
        <path fill="#EFE83F" d="M15.538 13.462v.124c-.137.164-.997.413-2.073.587-.818.124-1.884.218-3.214.218a20.33 20.33 0 0 1-3.054-.208c-1.233-.18-2.023-.495-2.182-.59v-.146c.477.318 1.767.55 2.202.621.775.12 1.777.21 3.034.21 1.322 0 2.384-.098 3.199-.222.77-.11 1.869-.4 2.088-.594zm0-.447v.126c-.137.164-.995.41-2.07.584-.821.127-1.887.222-3.217.222-1.262 0-2.271-.09-3.052-.212-1.235-.179-2.025-.494-2.184-.589v-.144c.477.316 1.767.547 2.202.62.775.118 1.777.208 3.034.208 1.325 0 2.386-.095 3.199-.219.773-.112 1.871-.403 2.088-.596z"/>
        <path fill="#0A0B09" d="M10.251 14.409c-1.12 0-2.15-.072-3.054-.212-1.18-.17-1.998-.477-2.19-.59L5 13.446c.5.306 1.824.54 2.217.606.9.137 1.92.207 3.034.207 1.173 0 2.25-.072 3.196-.219.766-.11 1.864-.398 2.08-.592l.025.137c-.146.182-1.021.43-2.085.602-.954.146-2.035.22-3.216.22zm-5.244-.95l.023.135c.112.057.877.385 2.17.574.906.139 1.933.208 3.051.208 1.178 0 2.26-.072 3.214-.218 1.039-.17 1.924-.418 2.06-.582l-.002-.114c-.194.204-1.3.497-2.07.609a21.51 21.51 0 0 1-3.202.218 20.4 20.4 0 0 1-3.037-.206c-.507-.084-1.74-.31-2.207-.624zm5.244.502c-1.118 0-2.145-.071-3.054-.21-1.185-.175-2-.48-2.19-.592L5 13.002c.5.303 1.824.54 2.217.604.902.137 1.923.209 3.034.209 1.178 0 2.252-.075 3.196-.219.766-.112 1.864-.4 2.08-.591l.025.136c-.144.18-1.018.428-2.082.6-.952.149-2.036.22-3.219.22zm-5.244-.946l.023.131c.112.057.872.386 2.172.574.91.14 1.934.212 3.05.212a21.27 21.27 0 0 0 3.213-.222c1.039-.166 1.926-.417 2.06-.579l-.002-.116c-.194.206-1.303.5-2.07.609-.948.146-2.024.22-3.202.22a20.47 20.47 0 0 1-3.037-.208c-.507-.085-1.74-.31-2.207-.621z"/>
        <path fill="#EFE83F" d="M10.271 16.41c-2.247-.015-4.17-.615-4.578-.711l.298.462c.719.303 2.595.753 4.3.703 1.708-.05 3.196-.184 4.247-.693l.304-.482c-.716.338-3.152.716-4.57.72"/>
        <path fill="#EFE83F" d="M14.655 16.062l-.136.201c-.498.174-1.278.358-1.609.412-.67.14-1.714.241-2.639.241-1.988-.027-3.616-.417-4.381-.75l-.063-.107.01-.015.105.04c1.362.487 2.893.684 4.341.718.92.003 1.842-.107 2.588-.24 1.143-.23 1.605-.401 1.747-.478l.037-.022zm.261-.435c.003 0 .003.005.003.005l-.102.171c-.264.095-.982.303-2.028.452-.691.093-1.121.185-2.493.212-2.575-.068-4.24-.57-4.635-.694l-.06-.114c1.494.39 3.015.663 4.695.69 1.255-.027 1.792-.119 2.475-.213 1.22-.189 1.837-.39 2.02-.447-.001-.005-.004-.008-.007-.012l.132-.05z"/>
        <path fill="#0A0B09" d="M10.271 16.931c-2.026-.03-3.631-.422-4.389-.75l-.067-.114c.002-.005.02-.038.027-.038l.105.043c1.215.434 2.677.676 4.336.715 1.042 0 1.976-.129 2.585-.238 1.275-.257 1.656-.43 1.743-.48a.059.059 0 0 1 .027-.007c0-.003.002-.005.005-.008l.012.008-.005.002c.008.003.018.003.015.005l-.134.204c-.5.176-1.275.36-1.618.415-.708.15-1.745.243-2.642.243zm-4.439-.874l.07.102c.808.347 2.478.715 4.372.745.877-.002 1.938-.1 2.634-.243.34-.055 1.116-.24 1.605-.41.028-.048.063-.098.098-.147-.115.057-.52.229-1.738.472-.609.11-1.546.241-2.547.241-1.708-.04-3.169-.283-4.39-.718l-.104-.042zm4.464.425c-2.289-.06-3.89-.46-4.64-.694l-.067-.122c1.725.425 3.213.644 4.707.669 1.116-.025 1.665-.1 2.25-.182l.223-.03c1.17-.183 1.792-.377 1.993-.442l.15-.067-.006.01-.116.068c-.222.081-.843.275-2.016.46l-.224.029c-.586.082-1.136.16-2.254.184-1.496-.025-2.99-.246-4.697-.691l.074.095c.74.225 2.34.626 4.623.683 1.168-.023 1.645-.092 2.197-.172l.293-.04c.932-.131 1.673-.323 2.026-.45l.094-.163-.077.183c-.36.132-1.106.329-2.037.46l-.296.04c-.552.08-1.03.147-2.2.172z"/>
        <path fill="#EFE83F" d="M10.271 8.568c2.58 0 4.662 2.098 4.662 4.678a4.657 4.657 0 0 1-4.662 4.665 4.667 4.667 0 0 1-4.665-4.673c0-2.58 2.088-4.67 4.665-4.67zm0-.464c2.826 0 5.13 2.306 5.13 5.134a5.141 5.141 0 0 1-5.13 5.135c-2.823 0-5.127-2.306-5.127-5.135 0-2.828 2.304-5.134 5.127-5.134z"/>
        <path fill="#EFE83F" d="M10.276 8.044a5.208 5.208 0 0 1 5.197 5.202c0 2.866-2.334 5.202-5.197 5.202S5.08 16.112 5.08 13.246a5.208 5.208 0 0 1 5.197-5.202zm0 .115c2.789 0 5.083 2.288 5.083 5.087 0 2.798-2.297 5.087-5.083 5.087s-5.085-2.289-5.085-5.087c0-2.799 2.3-5.087 5.085-5.087z"/>
        <path fill="#0A0B09" d="M10.276 18.463a5.222 5.222 0 0 1-5.214-5.217 5.222 5.222 0 0 1 5.214-5.217 5.22 5.22 0 0 1 5.212 5.217 5.22 5.22 0 0 1-5.212 5.217zm0-10.407a5.19 5.19 0 0 0 0 10.376 5.19 5.19 0 0 0 5.182-5.186 5.19 5.19 0 0 0-5.182-5.187v-.003zm0 10.292c-2.81 0-5.1-2.289-5.1-5.102a5.108 5.108 0 0 1 5.1-5.102 5.106 5.106 0 0 1 5.098 5.102 5.106 5.106 0 0 1-5.098 5.102zm0-10.175a5.074 5.074 0 0 0-5.067 5.073 5.073 5.073 0 0 0 5.067 5.07 5.075 5.075 0 0 0 5.068-5.07 5.075 5.075 0 0 0-5.068-5.073z"/>
        <path fill="#EFE83F" d="M10.281 8.476c2.61 0 4.76 2.145 4.76 4.765 0 2.62-2.15 4.767-4.76 4.767C7.67 18.005 5.52 15.86 5.52 13.24c0-2.62 2.15-4.765 4.762-4.765zm0 .115c2.548 0 4.645 2.092 4.645 4.65 0 2.557-2.097 4.65-4.645 4.65-2.55 0-4.648-2.093-4.648-4.65 0-2.558 2.098-4.65 4.648-4.65z"/>
        <path fill="#0A0B09" d="M10.281 18.02a4.783 4.783 0 0 1-4.776-4.78A4.784 4.784 0 0 1 10.28 8.46a4.784 4.784 0 0 1 4.774 4.782 4.783 4.783 0 0 1-4.774 4.78zm0-9.529a4.754 4.754 0 0 0-4.747 4.75c0 2.62 2.13 4.75 4.747 4.75a4.751 4.751 0 0 0 4.744-4.75c0-2.62-2.127-4.75-4.744-4.75zm0 9.415A4.668 4.668 0 0 1 5.62 13.24a4.668 4.668 0 0 1 4.662-4.665c2.57 0 4.66 2.093 4.66 4.665a4.668 4.668 0 0 1-4.66 4.665zm0-9.3a4.64 4.64 0 0 0-4.633 4.635 4.64 4.64 0 0 0 4.633 4.635c2.555 0 4.63-2.08 4.63-4.635a4.637 4.637 0 0 0-4.63-4.636z"/>
        <path fill="#EFE83F" d="M10.445 18.537h.114V7.962h-.114v10.575zm-.442 0h.114V7.962h-.114v10.575z"/>
        <path fill="#0A0B09" d="M10.56 18.552h-.115l-.015-10.59.13-.015.014 10.59c0 .003-.002.005-.005.01-.002 0-.007.005-.01.005zm-.018-10.59l-.097.015.015 10.56.084-.015-.002-10.56zm-.425 10.59h-.114l-.015-10.59.129-.015.015 10.59c0 .003 0 .005-.005.01-.003 0-.005.005-.01.005zm-.015-10.59l-.1.015.015 10.56.085-.015V7.962z"/>
        <path fill="#EFE83F" d="M5.06 13.025c.65-.602 3.057-.992 5.191-.982 2.133.012 4.66.452 5.21.97l.005.446c-.46-.434-2.424-.949-5.21-.956-2.79-.005-4.814.527-5.196.969v-.447"/>
        <path fill="#EFE83F" d="M10.279 12.44a18.267 18.267 0 0 1 3.362.299c.974.196 1.663.44 1.897.716v.136c-.284-.343-1.208-.594-1.919-.736-.937-.18-2.12-.3-3.34-.298-1.288.003-2.488.124-3.412.306-.741.147-1.73.44-1.852.728v-.142c.067-.2.802-.5 1.834-.705.932-.182 2.133-.301 3.43-.304zm0-.445a17.8 17.8 0 0 1 3.362.299c.974.196 1.663.44 1.897.713v.137c-.284-.343-1.208-.592-1.919-.736a18.152 18.152 0 0 0-3.34-.298c-1.288.002-2.48.127-3.408.305-.713.135-1.742.44-1.856.729v-.142c.067-.196.817-.507 1.837-.703.93-.182 2.132-.301 3.427-.304z"/>
        <path fill="#0A0B09" d="M5.015 13.606c-.003 0-.003 0-.003-.002-.007 0-.012-.008-.012-.013v-.142c.072-.22.85-.521 1.846-.72.997-.194 2.215-.301 3.433-.303 1.183 0 2.368.104 3.365.3 1.019.204 1.677.452 1.903.716l.005.15c-.328-.354-1.352-.605-1.935-.722a17.874 17.874 0 0 0-3.301-.298c-1.243.003-2.453.11-3.445.303-.807.162-1.73.455-1.841.721-.005.005-.01.01-.015.01zm5.264-1.064c1.183 0 2.358.105 3.342.299.59.116 1.62.37 1.926.738l-.024-.124c-.22-.254-.873-.498-1.884-.701a18.271 18.271 0 0 0-3.335-.299c-1.243.003-2.458.11-3.45.303-1.108.222-1.767.525-1.824.697v.079c.219-.296 1.24-.57 1.834-.688.997-.194 2.21-.301 3.415-.304zm-5.264.617h-.003c-.007 0-.012-.008-.012-.015v-.142c.074-.22.87-.53 1.85-.72.988-.192 2.206-.301 3.429-.304 1.19 0 2.373.107 3.365.3 1.019.205 1.677.453 1.906.72l.002.146c-.325-.353-1.35-.602-1.935-.72a17.981 17.981 0 0 0-3.311-.3c-1.225.003-2.433.113-3.43.306-.82.155-1.744.46-1.846.719a.017.017 0 0 1-.015.01zm5.264-1.064c1.178 0 2.356.107 3.345.298.589.12 1.62.373 1.923.738l-.024-.124c-.22-.251-.873-.494-1.884-.698a17.895 17.895 0 0 0-3.32-.299c-1.26 0-2.476.11-3.465.301-1.064.209-1.765.52-1.824.696v.08c.208-.286 1.195-.565 1.841-.686 1-.197 2.21-.301 3.408-.304v-.002z"/>
        <path fill="#EFE83F" d="M10.254 9.72c1.933-.01 3.62.27 4.394.665l.28.487c-.67-.362-2.49-.738-4.671-.68-1.778.01-3.677.193-4.631.703l.338-.562c.78-.408 2.624-.614 4.29-.614"/>
        <path fill="#EFE83F" d="M10.279 10.122c1.103-.005 2.169.06 3.017.21.79.148 1.543.369 1.65.488l.084.147c-.263-.17-.914-.36-1.749-.52-.843-.159-1.906-.209-3.005-.209-1.245-.002-2.212.062-3.042.207-.877.166-1.488.402-1.638.512l.082-.157c.291-.149.756-.328 1.534-.467.86-.16 1.836-.206 3.067-.211zm0-.445c1.056-.005 2.097.055 2.91.201.641.124 1.275.32 1.506.492l.124.194c-.208-.231-.989-.45-1.68-.571-.805-.14-1.807-.194-2.86-.202-1.109.003-2.133.07-2.928.214-.758.144-1.247.316-1.454.45l.11-.164c.283-.15.745-.289 1.327-.4.8-.147 1.831-.212 2.945-.214z"/>
        <path fill="#0A0B09" d="M15.03 10.982c-.002 0-.007 0-.007-.003-.258-.167-.895-.355-1.747-.517-.728-.139-1.705-.209-2.9-.209l-.097.003-.114-.003c-1.194 0-2.126.068-2.928.207-.875.164-1.482.397-1.63.51l.059-.177c.4-.207.902-.36 1.543-.475.778-.144 1.668-.204 3.07-.211l.064-.003c1.161 0 2.182.075 2.955.214.806.152 1.551.37 1.66.492l.085.15c.002.007.002.014-.003.02-.002.002-.005.002-.01.002zm-4.687-.845h-.064c-1.4.007-2.287.07-3.065.208-.636.117-1.138.269-1.528.467l-.075.152c.13-.134.74-.368 1.62-.532.806-.141 1.738-.206 2.934-.206h.21c1.198 0 2.175.067 2.908.206.806.152 1.42.331 1.705.492l-.055-.099c-.102-.112-.855-.33-1.64-.477-.77-.14-1.792-.211-2.95-.211zm4.476.442c-.005 0-.007-.002-.012-.005-.214-.236-1.034-.452-1.67-.567-.733-.127-1.668-.193-2.858-.201-1.154.003-2.165.077-2.926.214-.67.129-1.212.295-1.448.447l.09-.184c.287-.154.747-.293 1.333-.407.759-.14 1.778-.214 2.95-.217h.085c1.116 0 2.093.073 2.828.202.689.134 1.295.333 1.514.497l.126.199c.006.007.003.015-.002.02l-.01.002zm-4.54-.805c1.193.01 2.13.077 2.863.204.581.104 1.312.293 1.608.506l-.067-.106c-.211-.157-.813-.353-1.496-.485-.734-.132-1.71-.204-2.824-.204h-.084c-1.173.005-2.19.08-2.943.217-.584.111-1.041.25-1.324.4l-.1.156c.214-.174.76-.343 1.437-.472.763-.14 1.774-.214 2.93-.216z"/>
        <path fill="#EFE83F" d="M12.86 15.408c-.953-.18-1.913-.206-2.581-.196-3.224.037-4.265.66-4.394.85l-.241-.393c.822-.594 2.577-.927 4.65-.895 1.078.018 2.008.09 2.788.241l-.221.393"/>
        <path fill="#EFE83F" d="M10.259 15.154c.897.015 1.777.053 2.627.21l-.062.111c-.788-.15-1.63-.204-2.563-.199-1.188-.01-2.393.102-3.44.403-.33.092-.877.306-.934.48l-.06-.102c.018-.102.348-.318.967-.493 1.198-.343 2.321-.4 3.465-.41zm.042-.45c.927.018 1.886.06 2.818.247l-.062.111c-.842-.166-1.648-.223-2.751-.24-1.193.002-2.46.086-3.611.422-.37.11-1.014.343-1.034.53l-.062-.11c.015-.17.569-.388 1.069-.535 1.16-.335 2.428-.424 3.633-.424z"/>
        <path fill="#0A0B09" d="M5.887 16.174c-.005 0-.01-.003-.012-.008l-.06-.102c.017-.124.368-.34.974-.515 1.149-.328 2.217-.4 3.47-.407.852.012 1.76.045 2.63.209l-.053.129a14.552 14.552 0 0 0-2.458-.189h-.117l-.134-.002c-1.263 0-2.373.136-3.303.403-.35.099-.872.31-.922.472-.002.004-.008.01-.012.01h-.003zm4.372-1.002c-1.25.007-2.317.08-3.463.407-.623.177-.939.393-.954.48l.043.07c.106-.197.703-.4.932-.463.931-.268 2.045-.405 3.31-.405h.251c.932 0 1.732.065 2.448.2l.047-.103c-.86-.142-1.764-.176-2.614-.186zm-4.598.616c-.007 0-.01-.005-.013-.01l-.062-.107c.018-.228.828-.482 1.077-.557.991-.285 2.147-.42 3.638-.424.912.015 1.884.06 2.823.246l-.054.134c-.91-.172-1.763-.219-2.764-.234-1.479.003-2.627.137-3.606.423-.482.139-1.007.36-1.024.514a.055.055 0 0 1-.013.015h-.002zm4.637-1.071c-1.486.005-2.639.14-3.626.427-.633.184-1.048.388-1.058.522l.042.07c.105-.226.937-.477 1.034-.505.984-.288 2.135-.422 3.616-.424 1.004.017 1.856.064 2.753.24l.048-.104c-.925-.164-1.896-.206-2.809-.226z"/>
        <path fill="#EFE83F" d="M5.92 10.326c1.595-.02 8.971 4.508 8.991 5.343l-.457.7c-.204-.966-7.69-5.375-8.922-5.293l.387-.75"/>
        <path fill="#EFE83F" d="M5.487 11.049c.296-.202 2.473.77 4.752 2.144 2.274 1.38 4.446 2.938 4.25 3.232l-.065.099-.03.025c.005-.005.038-.045-.005-.152-.094-.32-1.635-1.55-4.192-3.094-2.493-1.489-4.568-2.384-4.777-2.127l.067-.127zm9.471 4.672c.187-.37-1.834-1.894-4.339-3.377-2.562-1.452-4.409-2.31-4.747-2.053l-.074.136c0 .008.002-.01.02-.022.059-.052.161-.05.208-.05.582.008 2.24.77 4.566 2.108 1.021.594 4.31 2.704 4.297 3.298 0 .052.005.062-.015.087l.084-.127z"/>
        <path fill="#0A0B09" d="M14.404 16.559l-.015-.018c-.005 0-.007-.002-.005-.005 0 0 .033-.032-.007-.137-.1-.325-1.727-1.598-4.188-3.084-2.105-1.257-4.053-2.17-4.627-2.17-.065 0-.11.013-.13.038v-.007a.178.178 0 0 0 .008-.02l.032-.115c.033-.025.077-.032.134-.032.582 0 2.622.954 4.64 2.172 2.046 1.243 4.168 2.73 4.265 3.169.008.03.005.06-.01.082l-.065.1a.055.055 0 0 1-.02.012l-.012.015zm-8.842-5.443c.58 0 2.532.912 4.642 2.172 2.5 1.51 4.098 2.764 4.2 3.104a.255.255 0 0 1 .023.1l.05-.078c.009-.015.012-.034.004-.059-.092-.428-2.259-1.939-4.25-3.149-2.015-1.215-4.046-2.17-4.625-2.17-.052 0-.09.01-.112.025l-.04.077c.023-.017.06-.022.108-.022zm9.322 4.732l-.01-.002-.005-.018v-.003l-.008.015.008-.015c.005-.007.005-.017.005-.047.012-.606-3.34-2.748-4.29-3.303-2.318-1.33-3.979-2.097-4.56-2.105-.057 0-.145 0-.197.048h-.004c.056-.078.144-.078.191-.078.596.008 2.264.776 4.588 2.11.67.39 4.317 2.664 4.302 3.31v.013l.04-.06c.174-.34-1.73-1.816-4.332-3.357-2.751-1.558-4.427-2.281-4.73-2.053l-.062.115c-.012.004-.037.014-.037.01l.077-.145c.047-.037.111-.052.196-.052.716 0 2.88 1.14 4.57 2.1 2.262 1.34 4.554 2.985 4.345 3.398l-.075.114c-.005.003-.007.005-.012.005z"/>
        <path fill="#FFFFFE" d="M7.162 13.82c0 .852.35 1.628.917 2.192.57.564 1.34.922 2.195.922.86 0 1.64-.348 2.204-.912a3.096 3.096 0 0 0 .917-2.2v-4.16l-6.233-.007v4.165"/>
        <path fill="#D3262D" d="M7.279 13.825v.002c0 .818.338 1.561.88 2.1.544.542 1.292.88 2.112.88a2.99 2.99 0 0 0 2.987-2.977V9.794H7.281l-.002 4.03zM12.059 11v2.568l-.004.27a1.749 1.749 0 0 1-.525 1.258 1.753 1.753 0 0 1-2.512-.008 1.784 1.784 0 0 1-.526-1.257v-2.838l3.566.007z"/>
        <path fill="#0A0B09" d="M10.271 16.82a2.993 2.993 0 0 1-2.12-.88 2.964 2.964 0 0 1-.885-2.113l.003-4.033 5.99-.013.014 4.049c0 .795-.313 1.545-.882 2.112a2.979 2.979 0 0 1-2.12.878zm2.975-7.026l-5.965.012.013 4.019c0 .788.31 1.53.874 2.095a2.961 2.961 0 0 0 2.103.872 2.95 2.95 0 0 0 2.1-.87 2.933 2.933 0 0 0 .875-2.092V9.794zm-2.977 5.84a1.79 1.79 0 0 1-1.26-.534 1.8 1.8 0 0 1-.532-1.268v-2.85l3.581.005.012 2.582v.273c0 .07-.007.152-.015.221a1.749 1.749 0 0 1-.514 1.044 1.79 1.79 0 0 1-1.272.527zm-1.765-4.628v2.826c0 .463.191.917.525 1.25.34.338.78.525 1.24.525.472 0 .92-.184 1.252-.517a1.743 1.743 0 0 0 .522-1.248v-2.84l-3.539.004z"/>
        <path fill="#2B2C6E" d="M9.893 13.368a.44.44 0 0 0 .117.298.382.382 0 0 0 .279.124c.109 0 .206-.047.278-.124a.43.43 0 0 0 .117-.298V12.8h-.788l-.003.567M9.89 14.722a.44.44 0 0 0 .118.298c.07.077.169.124.278.124a.377.377 0 0 0 .276-.124.435.435 0 0 0 .117-.298v-.567h-.786l-.002.567M8.802 13.37c0 .114.045.221.117.298a.369.369 0 0 0 .554 0 .435.435 0 0 0 .117-.298v-.567h-.785l-.003.567M11.099 13.668a.382.382 0 0 0 .278.124.38.38 0 0 0 .279-.124.435.435 0 0 0 .116-.298v-.567h-.788l-.002.567h.002a.45.45 0 0 0 .115.298zM9.893 12c0 .117.045.222.117.299a.38.38 0 0 0 .279.124.37.37 0 0 0 .278-.124.446.446 0 0 0 .117-.298v-.567h-.788L9.893 12"/>
        <path fill="#EFE83F" d="M11.757 15.132l-.26.211.151.154c.197-.193.375-.08.378-.074.005.002.107.191-.072.378l.151.154.212-.266-.56-.557"/>
        <path fill="#0A0B09" d="M12.108 15.975l-.167-.165c.174-.198.077-.377.075-.38 0 0-.05-.032-.124-.032a.33.33 0 0 0-.234.11l-.172-.155.264-.231.574.56-.216.293zm-.062-.545c.01.02.02.057.024.1a.365.365 0 0 1-.109.28l.144.125.2-.254-.26-.25zm-.299-.288l-.243.211.154.134c.095-.124.288-.121.356-.089l-.267-.256z"/>
        <path fill="#EFE83F" d="M11.484 15.333l.629.632c.012.012.012.034-.003.052-.017.015-.042.017-.055.005l-.628-.629c-.015-.015-.013-.037.005-.055.015-.015.04-.017.052-.002v-.003"/>
        <path fill="#0A0B09" d="M12.078 16.044l-.032-.012-.63-.63a.051.051 0 0 1 .006-.071l.04-.018.66.642c.018.017.016.05-.004.07l-.04.02zm-.644-.66l.644.645.02-.022-.621-.664-.05.05.007-.01z"/>
        <path fill="#EFE83F" d="M11.832 15.013l.601.601c.013.013.013.038-.002.052-.013.015-.037.015-.047.003l-.604-.604a.032.032 0 0 1 .002-.047c.015-.015.037-.018.05-.005"/>
        <path fill="#0A0B09" d="M12.406 15.692l-.032-.013-.604-.604c-.017-.02-.017-.05.005-.067l.067-.005.601.604c.018.015.015.052-.002.067l-.035.018zm-.584-.67l-.032.033.616.622.017-.02-.601-.634z"/>
        <path fill="#EFE83F" d="M11.792 15.077l.577.58c.012.01.01.032-.003.047-.017.015-.037.015-.05.002l-.576-.577c-.013-.012-.01-.032.005-.047.012-.015.035-.017.047-.005"/>
        <path fill="#0A0B09" d="M12.339 15.729l-.032-.013-.577-.577c-.018-.017-.015-.047.005-.067l.067-.005.577.58c.015.015.015.045-.005.067l-.035.015zm-.557-.642l-.032.033.589.596.017-.022-.574-.607z"/>
        <path fill="#EFE83F" d="M8.236 15.689l.211.26.154-.156c-.194-.194-.082-.373-.077-.375.005-.003.192-.105.38.075l.155-.155-.267-.209-.556.56"/>
        <path fill="#0A0B09" d="M8.447 15.967l-.221-.27.559-.577.28.208-.15.174a.41.41 0 0 0-.254-.104c-.077 0-.127.03-.13.03.003 0-.106.169.08.358l-.164.181zm.055-.534l-.257.263.202.234.144-.144a.306.306 0 0 1-.114-.271.25.25 0 0 1 .025-.082zm.159-.06c.092 0 .176.037.25.11l.137-.152-.263-.194-.249.261a.31.31 0 0 1 .125-.025z"/>
        <path fill="#EFE83F" d="M8.437 15.96l.629-.63c.015-.012.037-.009.055.006.015.017.017.04.004.052l-.628.632c-.013.012-.04.01-.053-.006-.017-.017-.02-.042-.007-.054"/>
        <path fill="#0A0B09" d="M8.474 16.04l-.04-.018c-.017-.017-.022-.055-.005-.072l.627-.629c.047-.013.062-.005.072.005.017.017.022.057.005.072l-.659.641zm.614-.704l-.64.634-.004.044.03.013.013-.018.628-.628.006-.045h-.033z"/>
        <path fill="#EFE83F" d="M8.117 15.612l.603-.604c.013-.013.033-.01.048.005.014.012.017.037.004.05l-.604.603c-.012.013-.034.01-.05-.002-.012-.015-.014-.037-.001-.052"/>
        <path fill="#0A0B09" d="M8.146 15.686l-.034-.02-.006-.064L8.71 15l.068.003c.02.02.022.05.004.07l-.636.613zm0-.027v.015l.013-.018.604-.604.005-.04h-.025l-.616.61-.008.04.027-.003z"/>
        <path fill="#EFE83F" d="M8.18 15.652l.577-.577c.015-.013.035-.01.05.005.013.012.015.034.003.047l-.577.577c-.01.012-.032.012-.047-.003s-.018-.037-.005-.05"/>
        <path fill="#0A0B09" d="M8.213 15.726l-.037-.017c-.02-.017-.02-.047-.005-.067l.58-.577.064.005c.02.02.022.05.005.067l-.607.589zm0-.027v.015l.01-.02.58-.577.004-.037H8.78l-.589.582-.005.04.027-.003z"/>
    </g>
</svg>
