<svg xmlns="http://www.w3.org/2000/svg" width="187" height="40" viewBox="0 0 187 40">
    <g fill="none" fill-rule="evenodd">
        <g transform="translate(.177 .062)">
            <ellipse cx="20.139" cy="19.704" fill="#FFF" rx="19.635" ry="19.704"/>
            <path fill="#0970AC" d="M22.457 12.438a10.37 10.37 0 0 1 4.726 3.448c1.939 2.546 3.023 7.208-.323 11.396 6.103-5.246 4.835-11.495 1.985-15.23-1.601-2.1-3.84-3.41-6.234-3.884.238-1.002.58-1.926.899-3.116-6.502 2.356-8.406 5.073-8.406 5.073s3.431 3.926 8.347 7.052c-.533-1.965-.842-3.487-.994-4.739"/>
            <path fill="#EC2024" d="M17.822 26.969c-1.809-.658-3.467-1.8-4.723-3.45-1.941-2.545-3.024-7.208.317-11.394-6.1 5.244-4.833 11.493-1.983 15.229a10.33 10.33 0 0 0 6.232 3.885c-.232 1.001-.578 1.927-.892 3.116 6.495-2.356 8.4-5.074 8.4-5.074s-3.433-3.925-8.345-7.053c.533 1.965.842 3.487.994 4.741"/>
        </g>
        <path fill="#FFF" d="M62.096 19.08c1.067 0 1.987-.154 2.76-.462.773-.308 1.412-.733 1.918-1.273a5.18 5.18 0 0 0 1.129-1.9c.246-.726.37-1.507.37-2.342 0-1.287-.401-2.294-1.201-3.02-.8-.725-2.028-1.088-3.683-1.088h-3.12L59.04 19.08h3.057zm1.785-14.193c1.71 0 3.177.182 4.401.544 1.225.363 2.227.87 3.006 1.52a5.92 5.92 0 0 1 1.724 2.332c.37.903.554 1.896.554 2.978 0 1.136-.16 2.211-.482 3.225a9.462 9.462 0 0 1-1.385 2.752 9.492 9.492 0 0 1-2.216 2.157 10.527 10.527 0 0 1-2.975 1.437 3.96 3.96 0 0 1 1.518 1.685l5.294 11.07h-4.781c-.917 0-1.525-.355-1.826-1.067l-4.35-9.634c-.164-.356-.366-.612-.606-.77-.239-.157-.612-.236-1.118-.236h-2.072L57.13 34.588h-5.294l3.611-29.7h8.433zM86.657 16.76c-.684 0-1.32.14-1.908.421a5.262 5.262 0 0 0-1.59 1.181 7.565 7.565 0 0 0-1.232 1.818 11.246 11.246 0 0 0-.83 2.31c1.695-.232 3.06-.489 4.093-.77 1.033-.28 1.83-.581 2.39-.903.561-.322.934-.671 1.118-1.048a2.65 2.65 0 0 0 .277-1.18 1.689 1.689 0 0 0-.543-1.223 2.276 2.276 0 0 0-.718-.431c-.295-.117-.647-.175-1.057-.175zm-5.992 9.243c0 3.314 1.402 4.97 4.207 4.97.602 0 1.135-.057 1.6-.174a6.676 6.676 0 0 0 1.221-.42 5.71 5.71 0 0 0 .944-.556c.28-.205.54-.39.78-.554.239-.164.475-.305.707-.421.233-.117.486-.175.76-.175.164 0 .325.041.482.123.157.083.297.192.42.33l1.293 1.56a21.59 21.59 0 0 1-2.134 1.89c-.697.534-1.409.972-2.134 1.314-.725.343-1.49.596-2.298.76-.807.165-1.682.247-2.626.247-1.231 0-2.346-.209-3.345-.627a7.35 7.35 0 0 1-2.565-1.766c-.71-.76-1.261-1.677-1.651-2.752-.39-1.075-.585-2.277-.585-3.605a14.887 14.887 0 0 1 1.395-6.306 12.893 12.893 0 0 1 1.662-2.65 11.308 11.308 0 0 1 2.226-2.095 10.225 10.225 0 0 1 2.73-1.376 10.081 10.081 0 0 1 3.19-.493c1.094 0 2.055.158 2.883.473.828.315 1.518.722 2.072 1.222s.968 1.058 1.242 1.674c.273.616.41 1.219.41 1.807 0 .945-.188 1.808-.564 2.588-.376.78-1.047 1.48-2.011 2.095-.964.617-2.281 1.147-3.95 1.592-1.669.445-3.789.798-6.36 1.058v.267zm35.272-12.488l-10.382 21.074h-4.248l-5.273-21.074h4.165c.356 0 .64.089.852.267.212.178.345.404.4.678l2.195 11.256c.11.684.199 1.355.267 2.012.068.658.123 1.315.164 1.972a50.1 50.1 0 0 1 1.436-3.984l5.028-11.256c.123-.274.31-.5.564-.678.253-.178.537-.267.851-.267h3.98zm10.875 3.245c-.684 0-1.32.14-1.908.421a5.262 5.262 0 0 0-1.59 1.181 7.565 7.565 0 0 0-1.232 1.818 11.246 11.246 0 0 0-.83 2.31c1.695-.232 3.06-.489 4.093-.77 1.033-.28 1.83-.581 2.39-.903.561-.322.934-.671 1.118-1.048a2.65 2.65 0 0 0 .277-1.18 1.689 1.689 0 0 0-.543-1.223 2.276 2.276 0 0 0-.718-.431c-.295-.117-.647-.175-1.057-.175zm-5.992 9.243c0 3.314 1.402 4.97 4.207 4.97.602 0 1.135-.057 1.6-.174a6.676 6.676 0 0 0 1.221-.42 5.71 5.71 0 0 0 .944-.556c.28-.205.54-.39.78-.554.239-.164.475-.305.707-.421.233-.117.486-.175.76-.175.164 0 .325.041.482.123.157.083.297.192.42.33l1.293 1.56a21.59 21.59 0 0 1-2.134 1.89c-.697.534-1.409.972-2.134 1.314-.725.343-1.49.596-2.298.76-.807.165-1.682.247-2.626.247-1.231 0-2.346-.209-3.345-.627a7.35 7.35 0 0 1-2.565-1.766c-.71-.76-1.261-1.677-1.651-2.752-.39-1.075-.585-2.277-.585-3.605a14.887 14.887 0 0 1 1.395-6.306 12.893 12.893 0 0 1 1.662-2.65 11.308 11.308 0 0 1 2.226-2.095 10.225 10.225 0 0 1 2.73-1.376 10.081 10.081 0 0 1 3.19-.493c1.094 0 2.055.158 2.883.473.828.315 1.518.722 2.072 1.222s.968 1.058 1.242 1.674c.273.616.41 1.219.41 1.807 0 .945-.188 1.808-.564 2.588-.376.78-1.047 1.48-2.011 2.095-.964.617-2.281 1.147-3.95 1.592-1.669.445-3.789.798-6.36 1.058v.267zm21.668-7.435c.534-1.041 1.105-1.935 1.713-2.68.61-.747 1.242-1.33 1.898-1.747.657-.417 1.334-.664 2.032-.74.697-.074 1.395.039 2.093.34l-.924 4.847c-1.669-.698-3.129-.527-4.38.514-1.252 1.04-2.254 3.087-3.006 6.141l-1.129 9.346h-4.965l2.544-21.095h2.585c.534 0 .947.13 1.242.39.294.26.44.678.44 1.253l-.143 3.43zm21.873-1.089c-.15.22-.294.373-.431.462-.137.09-.315.134-.533.134-.247 0-.493-.069-.74-.206a53.73 53.73 0 0 0-.85-.462 7.015 7.015 0 0 0-1.109-.462c-.417-.137-.913-.205-1.487-.205-1.08 0-1.908.243-2.483.729-.575.486-.862 1.092-.862 1.818 0 .561.202 1.013.606 1.355.403.342.913.644 1.528.904.616.26 1.276.524 1.98.79a10.16 10.16 0 0 1 1.98 1.007 5.12 5.12 0 0 1 1.529 1.561c.403.637.605 1.455.605 2.455a7.169 7.169 0 0 1-2.34 5.31c-.751.69-1.658 1.238-2.718 1.642-1.06.404-2.253.606-3.58.606a9.502 9.502 0 0 1-3.683-.74 8.397 8.397 0 0 1-1.488-.82 6.016 6.016 0 0 1-1.149-1.028l1.252-1.93c.15-.233.328-.411.533-.534.205-.124.458-.185.76-.185.287 0 .547.089.78.267.232.178.502.373.81.585.307.212.684.407 1.128.585.445.179 1.016.268 1.713.268.561 0 1.057-.076 1.488-.226.43-.151.797-.356 1.098-.617.3-.26.526-.561.677-.903.15-.343.226-.706.226-1.089 0-.466-.117-.852-.35-1.16a3.087 3.087 0 0 0-.933-.802 7.634 7.634 0 0 0-1.323-.595 69.352 69.352 0 0 1-1.508-.545 14.596 14.596 0 0 1-1.498-.657 5.392 5.392 0 0 1-1.313-.934 4.184 4.184 0 0 1-.934-1.377c-.233-.54-.349-1.201-.349-1.982 0-.93.178-1.838.534-2.721a6.888 6.888 0 0 1 1.56-2.342c.683-.678 1.528-1.222 2.533-1.633 1.006-.41 2.158-.616 3.458-.616 1.34 0 2.53.23 3.57.688 1.04.459 1.908 1.044 2.606 1.756l-1.293 1.849zm11.265 13.515c.848 0 1.614-.243 2.298-.729.684-.486 1.265-1.136 1.744-1.951.479-.815.848-1.763 1.108-2.845.26-1.082.39-2.218.39-3.41 0-1.711-.288-2.968-.862-3.769-.575-.8-1.45-1.201-2.626-1.201-.849 0-1.618.24-2.309.719-.69.479-1.275 1.126-1.754 1.94-.479.815-.848 1.764-1.108 2.845a14.642 14.642 0 0 0-.39 3.43c0 1.712.287 2.969.862 3.77.574.8 1.457 1.201 2.647 1.201zm-.472 3.903c-1.163 0-2.237-.195-3.222-.586a7.197 7.197 0 0 1-2.565-1.715c-.725-.753-1.292-1.677-1.703-2.773-.41-1.095-.615-2.348-.615-3.758 0-1.822.294-3.52.882-5.094.588-1.575 1.385-2.937 2.39-4.088a11.166 11.166 0 0 1 3.52-2.71 9.613 9.613 0 0 1 4.288-.987c1.163 0 2.24.195 3.232.586.991.39 1.846.962 2.564 1.715.719.753 1.283 1.677 1.693 2.773.41 1.095.616 2.348.616 3.758 0 1.808-.294 3.496-.882 5.063-.589 1.568-1.385 2.93-2.39 4.088a11.23 11.23 0 0 1-3.52 2.732 9.531 9.531 0 0 1-4.288.996z"/>
    </g>
</svg>
