<svg xmlns="http://www.w3.org/2000/svg" xmlns:xlink="http://www.w3.org/1999/xlink" width="235" height="302" viewBox="0 0 235 302">
    <defs>
        <filter id="a" width="108.9%" height="107.4%" x="-4.4%" y="-2.9%" filterUnits="objectBoundingBox">
            <feOffset in="SourceAlpha" result="shadowOffsetOuter1"/>
            <feGaussianBlur in="shadowOffsetOuter1" result="shadowBlurOuter1" stdDeviation="5"/>
            <feColorMatrix in="shadowBlurOuter1" result="shadowMatrixOuter1" values="0 0 0 0 0 0 0 0 0 0 0 0 0 0 0 0 0 0 0.182687953 0"/>
            <feMerge>
                <feMergeNode in="shadowMatrixOuter1"/>
                <feMergeNode in="SourceGraphic"/>
            </feMerge>
        </filter>
        <path id="b" d="M255.709 151.296c18.89 24.511 29.455 69.382-3.149 109.704 59.47-50.502 47.116-110.658 19.339-146.622-15.599-20.217-37.415-32.814-60.749-37.38 2.318-9.654 5.658-18.546 8.759-29.998C156.555 69.682 138 95.832 138 95.832s33.435 37.792 81.333 67.887c-5.194-18.913-8.198-33.562-9.685-45.619 17.613 6.315 33.77 17.338 46.06 33.196z"/>
    </defs>
    <g fill="none" fill-rule="evenodd" stroke-linejoin="round" filter="url(#a)" opacity=".07" transform="translate(-156 -37)">
        <g stroke-linecap="round" transform="translate(85)">
            <use fill="#5A9DC2" xlink:href="#b"/>
            <path stroke="#5A9DC2" stroke-width="3" d="M254.522 152.213c-11.21-14.463-26.036-25.28-43.066-31.84 1.626 11.912 4.644 25.91 9.324 42.948l1.021 3.72-3.266-2.052c-7.796-4.898-15.496-10.178-23.077-15.784-15.488-11.453-29.783-23.72-42.55-35.99a377.06 377.06 0 0 1-11.838-11.866 241.683 241.683 0 0 1-3.116-3.333 136.452 136.452 0 0 1-1.077-1.19l-.789-.892.689-.97c.132-.187.387-.522.774-.996.63-.774 1.411-1.665 2.35-2.666 2.66-2.838 6.058-5.99 10.264-9.38 11.97-9.64 28.014-19.265 48.695-28.236a337.414 337.414 0 0 1 20.543-8.098l2.704-.968-.75 2.772a269.733 269.733 0 0 1-1.794 6.304c-.692 2.334-4.313 13.96-5.227 17.145a161.586 161.586 0 0 0-1.355 5c23.804 5.025 45.046 18.103 60.105 37.62 15.386 19.921 24.186 44.366 23.36 68.827-.97 28.702-14.892 56.058-42.915 79.855l-2.137-2.086c14.957-18.498 21.55-38.997 20.553-59.766-.855-17.81-7.384-35.049-17.425-48.078z"/>
        </g>
        <path fill="#EC2024" stroke="#EC2024" stroke-width="3" d="M250.273 259.895c-17.402-6.331-33.353-17.323-45.438-33.215-18.68-24.497-29.092-69.387 3.045-109.68-58.69 50.474-46.494 110.635-19.074 146.601 15.414 20.234 36.934 32.817 59.952 37.398-2.225 9.64-5.553 18.548-8.583 30.001C302.667 308.316 321 282.149 321 282.149s-33.037-37.78-80.288-67.892c5.127 18.914 8.093 33.564 9.56 45.638"/>
    </g>
</svg>
