<svg xmlns="http://www.w3.org/2000/svg" xmlns:xlink="http://www.w3.org/1999/xlink" width="256" height="523" viewBox="0 0 256 523">
    <defs>
        <linearGradient id="b" x1="5.531%" x2="140.692%" y1="62.517%" y2="135.116%">
            <stop offset="0%" stop-color="#0970AC"/>
            <stop offset="91.771%" stop-color="#09A7AC"/>
            <stop offset="100%" stop-color="#09ACAC"/>
        </linearGradient>
        <path id="a" d="M253 0H62.042C61.14 0 60 .512 60 2.895L0 520.105c.025 1.649 1.183 2.922 3.063 2.895H256V3a3 3 0 0 0-3-3z"/>
    </defs>
    <g fill="none" fill-rule="evenodd">
        <mask id="c" fill="#fff">
            <use xlink:href="#a"/>
        </mask>
        <use fill="url(#b)" xlink:href="#a"/>
        <path fill="#FFF" d="M257.45 440.77c4.03 3.068 4.92 8.811 1.97 12.86a9.14 9.14 0 0 1-2.052 2.024l.01.019-140.294 106.436c-5.528 4.204-13.33-.995-11.813-7.842l9.403-41.926c.312-.767.5-1.587.545-2.45l.002-.037c.034-.176.03-.356.038-.555.01-4.7-3.731-8.596-8.383-8.711l-.005-.095a215.74 215.74 0 0 1-19.331-.69C-29.504 490.26-118.402 386.736-111 268.585a217.292 217.292 0 0 1 2.864-24.191c.008-.029.006-.052.02-.072.077-.504.172-1.018.269-1.508.928-3.172 3.676-5.593 7.158-5.873 3.905-.332 7.456 2.128 8.664 5.765.131.753.29 1.466.439 2.208 18.751 87.785 92.996 157.003 185.73 164.553.423.033.836.07 1.248.085.649.077 1.272.108 1.886.143.01.019.029.009.047-.001 4.29-.218 7.718-3.769 7.742-8.187a8.608 8.608 0 0 0-.26-2.076 8.41 8.41 0 0 0-.766-2.026l-14.353-37.797c-2.484-6.582 4.46-12.604 10.541-9.119 33.267 18.99 59.997 34.25 81.46 46.57 37.78 21.62 59.261 34.04 71.445 41.094 1.132.67 2.192 1.296 3.171 1.882.385.223.763.475 1.145.736zM-9.833 98.41c.979.586 2.039 1.211 3.171 1.882 12.184 7.054 33.67 19.483 71.446 41.094 21.463 12.32 48.203 27.577 81.46 46.572 6.086 3.494 13.031-2.527 10.542-9.119l-14.354-37.797a8.737 8.737 0 0 1-.761-2.017 8.493 8.493 0 0 1-.265-2.086c.024-4.417 3.453-7.968 7.742-8.186.661.034 1.284.065 1.933.142.412.014.83.061 1.248.085 92.735 7.55 166.98 76.77 185.738 164.567.145.732.307 1.455.434 2.198 1.208 3.637 4.759 6.098 8.664 5.765 3.482-.28 6.23-2.7 7.158-5.872.097-.49.192-1.005.27-1.509a217.248 217.248 0 0 0 2.889-24.254c7.395-118.162-81.505-221.69-198.55-231.235a219.182 219.182 0 0 0-19.33-.69c-4.658-.209-8.398-4.105-8.389-8.806.086-1.454.273-2.274.585-3.041l9.402-41.927c1.528-6.853-6.285-12.047-11.807-7.833L-10.9 82.78a9.477 9.477 0 0 0-2.047 2.032c-2.95 4.05-2.06 9.794 1.97 12.862.382.26.76.513 1.145.736z" mask="url(#c)" opacity=".087"/>
        <g mask="url(#c)">
            <g transform="rotate(-30 387.538 212.392)">
                <circle cx="115.5" cy="115.5" r="115.5" fill="#F5F9FC"/>
                <path fill="#DF3D22" d="M130.292 181.806a5.439 5.439 0 0 0-.188-.352c-.167-.29-.35-.6-.543-.933a4574.445 4574.445 0 0 0-12.425-20.706c-3.736-6.213-8.4-13.93-14.206-23.534-1.059-1.76-3.684-1.202-3.981.84l-1.684 11.74a2.48 2.48 0 0 1-.091.628 2.533 2.533 0 0 1-.228.57 2.385 2.385 0 0 1-3.135 1c-.006 0-.012 0-.012-.007-.152-.096-.307-.193-.461-.305-.104-.062-.204-.13-.307-.2-22.606-15.126-31.765-43.445-24.13-68.636.067-.212.128-.418.2-.63.207-1.104-.351-2.24-1.395-2.71a2.366 2.366 0 0 0-2.659.488c-.094.112-.19.23-.282.349-.006.003-.009.009-.015.015a63.739 63.739 0 0 0-4.155 5.8c-18.609 29.263-10.564 68.469 17.966 87.565a62.91 62.91 0 0 0 4.838 2.926l-.012.025c1.171.69 1.575 2.223.907 3.427-.03.05-.055.097-.088.137l-.006.01a2.204 2.204 0 0 1-.486.55l-8.333 9.42c-1.357 1.542-.1 3.986 1.906 3.693l50.878-7.356v-.006c.273-.032.546-.106.81-.228 1.326-.62 1.912-2.22 1.317-3.58"/>
                <path fill="#0970AC" d="M98.204 54.191c.06.122.122.24.188.352.167.29.35.601.544.934 2.112 3.543 5.839 9.788 12.424 20.706 3.736 6.214 8.403 13.931 14.206 23.535 1.059 1.762 3.684 1.205 3.981-.84l1.685-11.74c.006-.209.033-.423.09-.626.052-.2.128-.389.228-.573a2.385 2.385 0 0 1 3.135-.999c.006 0 .012 0 .012.006.152.097.307.193.462.305.103.063.203.134.306.2 22.606 15.126 31.765 43.447 24.13 68.641-.067.209-.128.418-.2.626-.207 1.105.351 2.242 1.395 2.712a2.365 2.365 0 0 0 2.659-.489c.094-.112.191-.23.282-.349.006-.003.01-.009.015-.012a64.619 64.619 0 0 0 4.155-5.8c18.61-29.267 10.564-68.474-17.966-87.57a63.913 63.913 0 0 0-4.837-2.926l.015-.025c-1.175-.691-1.578-2.223-.91-3.428.03-.05.054-.096.087-.137l.006-.009c.134-.215.298-.398.486-.551l8.334-9.42c1.36-1.541.1-3.985-1.906-3.69l-50.878 7.357v.003a2.657 2.657 0 0 0-.81.227c-1.327.62-1.913 2.22-1.318 3.58"/>
            </g>
        </g>
    </g>
</svg>
