<svg xmlns="http://www.w3.org/2000/svg" xmlns:xlink="http://www.w3.org/1999/xlink" width="23" height="24" viewBox="0 0 23 24">
    <defs>
        <circle id="a" cx="9.5" cy="9.5" r="9.5"/>
    </defs>
    <g fill="none" fill-rule="evenodd">
        <use fill="#FFF" xlink:href="#a"/>
        <circle cx="9.5" cy="9.5" r="8.5" stroke="#FFF" stroke-width="2"/>
        <path fill="#EC2024" d="M10.876 6.945c2.363.213 3.081 1.047 3.378 1.197-.652-.926-2.001-2.22-3.628-2.653-1.14-.303-2.784-.21-3.743.319-.25-.413-.605-.984-.797-1.229-1.203.737-2.259 3.55-2.259 3.55s2.925.818 4.994.573a36.858 36.858 0 0 0-.99-1.355c.81-.299 2.136-.484 3.045-.402z"/>
        <path fill="#0970AC" d="M8.34 12.282c-2.33-.193-3.032-1.008-3.324-1.153.637.906 1.958 2.17 3.56 2.583 1.124.29 2.747.186 3.696-.342.245.405.889.947 1.077 1.186 1.192-.734 2.022-3.5 2.022-3.5s-2.647-.793-4.69-.536c.181.268.377.968.667 1.343-.8.3-2.111.493-3.007.419z"/>
        <path stroke="#FFF" stroke-linecap="round" stroke-width="2" d="M15.714 16.655l5.5 5.552"/>
    </g>
</svg>
