<svg xmlns="http://www.w3.org/2000/svg" width="16" height="16" viewBox="0 0 16 16">
    <g fill="none" fill-rule="evenodd" stroke="#FFF" transform="translate(1 1)">
        <path d="M8.5 1.707c.88.249 1.68.714 2.333 1.348l1.046-.604a1 1 0 0 1 1.366.366l.5.866a1 1 0 0 1-.366 1.366l-1.045.604a5.51 5.51 0 0 1 0 2.694l1.045.604a1 1 0 0 1 .366 1.366l-.5.866a1 1 0 0 1-1.366.366l-1.046-.604A5.494 5.494 0 0 1 8.5 12.293V13.5a1 1 0 0 1-1 1h-1a1 1 0 0 1-1-1v-1.207a5.494 5.494 0 0 1-2.333-1.348l-1.046.604a1 1 0 0 1-1.366-.366l-.5-.866A1 1 0 0 1 .62 8.951l1.045-.604a5.51 5.51 0 0 1 0-2.694L.621 5.049a1 1 0 0 1-.366-1.366l.5-.866a1 1 0 0 1 1.366-.366l1.046.604A5.494 5.494 0 0 1 5.5 1.707V.5a1 1 0 0 1 1-1h1a1 1 0 0 1 1 1v1.207z"/>
        <circle cx="7" cy="7" r="1.5"/>
    </g>
</svg>
