<svg xmlns="http://www.w3.org/2000/svg" width="16" height="16" viewBox="0 0 16 16">
    <g fill="#22df97" fill-rule="evenodd">
        <path d="M9.49 1c.443 0 .74.396.74 1.117v11.102c0 .737-.32 1.15-.802 1.15-.24 0-.522-.103-.825-.323L3.72 10.502H1.993A1.99 1.99 0 0 1 0 8.503V6.832c0-1.103.897-1.998 1.993-1.998h2.318l4.36-3.48c.3-.24.581-.354.82-.354zm-.26 1.188L4.934 5.614l-.273.218H1.993a.997.997 0 0 0-.993 1v1.67c0 .56.437.998.994.998h2.051l.263.192 4.883 3.543.037.027c.002-.014.002-.028.002-.044V2.188zM13.399 12.24a.499.499 0 0 1-.326-.88c.018-.016 1.779-1.554 1.78-3.903.003-2.344-1.756-3.839-1.774-3.854a.5.5 0 0 1 .637-.77c.088.072 2.14 1.798 2.138 4.624-.002 2.823-2.045 4.591-2.132 4.664a.497.497 0 0 1-.323.12"/>
        <path d="M11.67 10.776a.498.498 0 0 1-.298-.9c.049-.038 1.105-.855 1.076-2.428-.03-1.598-1.06-2.323-1.071-2.33a.5.5 0 1 1 .565-.825c.06.041 1.467 1.028 1.506 3.137.039 2.11-1.421 3.203-1.483 3.25a.492.492 0 0 1-.295.096"/>
    </g>
</svg>
