<svg xmlns="http://www.w3.org/2000/svg" width="16" height="14" viewBox="0 0 16 14">
    <g fill="#FFFFFF" fill-rule="evenodd">
        <path d="M9.49 0c-.238 0-.52.114-.82.354l-4.359 3.48H1.993A1.999 1.999 0 0 0 0 5.832v1.671a1.99 1.99 0 0 0 1.993 1.999H3.72l4.884 3.544c.303.22.584.323.825.323.482 0 .801-.413.801-1.15V1.117C10.23.396 9.933 0 9.49 0M13.399 11.24a.499.499 0 0 1-.326-.88c.018-.016 1.779-1.554 1.78-3.903.003-2.344-1.756-3.839-1.774-3.854a.5.5 0 0 1 .637-.77c.088.072 2.14 1.798 2.138 4.624-.002 2.823-2.045 4.591-2.132 4.664a.497.497 0 0 1-.323.12"/>
        <path d="M11.67 9.776a.498.498 0 0 1-.298-.9c.049-.038 1.105-.855 1.076-2.428-.03-1.598-1.06-2.323-1.071-2.33a.5.5 0 1 1 .565-.825c.06.041 1.467 1.028 1.506 3.137.039 2.11-1.421 3.203-1.483 3.25a.492.492 0 0 1-.295.096M1 5v3h3l5 5V1L5 5z"/>
    </g>
</svg>
