<svg xmlns="http://www.w3.org/2000/svg" width="15" height="16" viewBox="0 0 15 16">
    <g fill="none" fill-rule="evenodd">
        <path stroke="#0970AC" d="M8.433 12.417l4.505-4.393c.504-.492 1.328-.489 1.816.006a1.263 1.263 0 0 1 0 1.817l-5.409 5.274a1.288 1.288 0 0 1-.917.379c-.335 0-.665-.134-.911-.372L5.224 12.89a1.262 1.262 0 0 1 0-1.817 1.31 1.31 0 0 1 1.826-.001l1.383 1.344z"/>
        <path fill="#0970AC" d="M5.624 6.21L4.172 2.473 2.713 6.21h2.911zm1.28 3.314l-.928-2.4H2.362l-.94 2.4H.298L3.682.857H4.88l3.332 8.667H6.904z"/>
    </g>
</svg>
