<svg xmlns="http://www.w3.org/2000/svg" xmlns:xlink="http://www.w3.org/1999/xlink" width="17" height="16" viewBox="0 0 17 16">
    <defs>
        <path id="a" d="M8.5 12.75l-3.22 1.693c-.981.516-1.625.052-1.437-1.043l.615-3.587-2.606-2.54c-.793-.773-.55-1.528.55-1.688l3.6-.523 1.61-3.263c.49-.994 1.284-.997 1.776 0l1.61 3.263 3.6.523c1.097.16 1.346.913.55 1.689l-2.606 2.54.615 3.586c.187 1.091-.452 1.56-1.436 1.043L8.5 12.75z"/>
    </defs>
    <g fill="none" fill-rule="evenodd">
        <use fill="#0970AC" xlink:href="#a"/>
        <path stroke="#0970AC" d="M5.047 14L8.5 12.186l3.453 1.816c.616.323.829.168.711-.517l-.66-3.845L14.8 6.915c.498-.485.416-.735-.272-.835l-3.86-.561L8.938 2.02c-.307-.624-.57-.623-.878 0L6.334 5.52l-3.861.56c-.688.1-.77.351-.272.836L4.995 9.64l-.66 3.845c-.117.686.096.84.712.517z"/>
    </g>
</svg>
