<svg xmlns="http://www.w3.org/2000/svg" width="24" height="25" viewBox="0 0 24 25">
    <g fill="none" fill-rule="evenodd">
        <path fill="#1798E4" d="M9.618 16.666c-3.429-.294-4.466-1.498-4.896-1.714.941 1.339 2.891 3.206 5.25 3.822 1.654.432 4.041.287 5.436-.486.362.597.883 1.35 1.161 1.704 1.751-1.075 3.388-5.099 3.388-5.099s-4.223-.95-7.228-.58c.268.395.884 1.197 1.312 1.75-1.176.438-3.103.716-4.423.603z"/>
        <path fill="#F9015A" d="M15.071 9.53c3.43.294 4.467 1.498 4.897 1.713-.941-1.338-2.891-3.205-5.25-3.821-1.655-.433-4.042-.287-5.436.486a20.794 20.794 0 0 0-1.161-1.705C6.37 7.28 4.829 11.291 4.829 11.291s4.127.961 7.132.592c-.268-.395-.884-1.197-1.312-1.75 1.176-.439 3.103-.716 4.422-.603z"/>
        <g>
            <ellipse cx="12.334" cy="12" fill="#FFF" rx="11.647" ry="12"/>
            <path fill="#EC2024" d="M14.935 8.49c3.407.343 4.454 1.559 4.884 1.78-.954-1.348-2.916-3.239-5.265-3.888-1.648-.455-4.015-.345-5.387.406C8.8 6.187 8.281 5.357 8 5c-1.721 1.047-3.201 5.097-3.201 5.097S9.024 11.324 12 11a54.844 54.844 0 0 0-1.444-1.974c1.16-.42 3.069-.668 4.38-.536z"/>
            <path fill="#0970AC" d="M9.63 15.527c-3.408-.343-4.454-1.559-4.884-1.78.953 1.348 2.915 3.239 5.265 3.888 1.648.455 4.014.345 5.386-.406.368.601 1.322 1.414 1.603 1.771 1.721-1.047 2.86-5.09 2.86-5.09S15.977 12.676 13 13c.272.398.575 1.432 1.009 1.99-1.161.42-3.07.67-4.38.537z"/>
        </g>
    </g>
</svg>
