<svg xmlns="http://www.w3.org/2000/svg" width="21" height="23" viewBox="0 0 21 23">
    <path fill="#9BBBCD" fill-rule="evenodd" d="M10.408 11.956c-1.056-.014-1.867-.362-2.473-1.072-1.52-1.777-1.19-5.174-1.186-5.207 0-.014.005-.028.005-.038.16-3.684 2.776-3.972 3.574-3.972h.21c.797 0 3.413.288 3.574 3.972 0 .015 0 .029.004.038.005.033.339 3.416-1.185 5.202-.607.715-1.418 1.063-2.478 1.077h-.045zm8.136 3.995c-4.422-1.157-5.262-2.64-5.419-3.098.337-.228.646-.504.926-.826 1.941-2.278 1.613-6.181 1.58-6.547-.123-2.713-1.328-4.042-2.32-4.68C12.186.08 11 0 10.539 0h-.218C9.865 0 8.68.08 7.555.8c-.992.638-2.197 1.967-2.321 4.68-.033.366-.36 4.274 1.58 6.547.28.326.589.603.926.83-.053.144-.18.416-.49.742-.607.642-1.959 1.576-4.934 2.352-.996.262-1.709.988-2.05 2.095C0 18.9 0 19.805 0 20.343v1.562c0 .37.609.672.964.672.356 0 .916-.297.916-.667v-1.557c0-1.428.16-2.787 1.347-3.103 2.62-.687 4.484-1.596 5.533-2.713.404-.424.621-.815.745-1.131.446.133.327.203.845.212h.166c.517-.01.347-.079.794-.217.123.311.34.707.744 1.132 1.054 1.116 2.914 2.025 5.534 2.712 1.186.316 1.352 1.675 1.352 3.103v1.562c0 .37.602.667.958.667.355 0 .972-.296.972-.667v-1.562c-.01-.538-.01-1.438-.275-2.297-.342-1.107-1.054-1.834-2.05-2.1z"/>
</svg>
