<svg xmlns="http://www.w3.org/2000/svg" width="15" height="15" viewBox="0 0 15 15">
    <path fill="#0970AC" fill-rule="evenodd" d="M6.732 7.734c-.683-.01-1.208-.235-1.6-.694-.983-1.15-.77-3.347-.766-3.368l.002-.024c.104-2.383 1.796-2.57 2.313-2.57h.135c.516 0 2.208.187 2.312 2.57 0 .01 0 .018.003.024.003.021.219 2.21-.767 3.365-.392.462-.917.688-1.603.697h-.029zm5.263 2.583C9.135 9.57 8.591 8.61 8.49 8.313a3.09 3.09 0 0 0 .599-.533c1.255-1.474 1.043-3.999 1.022-4.235C10.03 1.79 9.25.93 8.61.518A3.425 3.425 0 0 0 6.817 0h-.14c-.296 0-1.063.051-1.79.518C4.245.93 3.465 1.79 3.385 3.545c-.021.236-.232 2.764 1.023 4.235.18.21.38.39.598.537a1.424 1.424 0 0 1-.316.479c-.393.415-1.267 1.02-3.192 1.521-.644.17-1.105.64-1.326 1.356C0 12.225 0 12.81 0 13.159v1.01c0 .24.394.434.623.434.231 0 .593-.192.593-.431v-1.007c0-.924.104-1.803.871-2.007 1.695-.444 2.9-1.033 3.58-1.755.26-.275.401-.527.481-.732.289.087.212.131.546.138h.108c.334-.007.225-.051.513-.141.08.201.221.457.482.732.682.722 1.885 1.31 3.58 1.755.766.204.874 1.083.874 2.007v1.01c0 .24.39.431.62.431.23 0 .628-.191.628-.431v-1.01c-.006-.348-.006-.93-.178-1.486-.22-.716-.681-1.186-1.326-1.359z"/>
</svg>
