<svg width="16" height="16" viewBox="0 0 16 16" fill="none" xmlns="http://www.w3.org/2000/svg">
<path d="M6.66667 14.3333C7.03486 14.3333 7.33333 14.0349 7.33333 13.6667C7.33333 13.2985 7.03486 13 6.66667 13C6.29848 13 6 13.2985 6 13.6667C6 14.0349 6.29848 14.3333 6.66667 14.3333Z" stroke="#41C300" stroke-width="1.33333" stroke-linecap="round" stroke-linejoin="round"/>
<path d="M12 14.3333C12.3682 14.3333 12.6667 14.0349 12.6667 13.6667C12.6667 13.2985 12.3682 13 12 13C11.6318 13 11.3333 13.2985 11.3333 13.6667C11.3333 14.0349 11.6318 14.3333 12 14.3333Z" stroke="#41C300" stroke-width="1.33333" stroke-linecap="round" stroke-linejoin="round"/>
<path d="M1.66666 1.66667H3.66666L5.46666 9.93334C5.52899 10.239 5.69656 10.5132 5.94018 10.7081C6.1838 10.903 6.48806 11.0063 6.79999 11H11.9333C12.2453 11.0063 12.5495 10.903 12.7931 10.7081C13.0368 10.5132 13.2043 10.239 13.2667 9.93334L14.3333 4.33334H4.73332" stroke="#41C300" stroke-linecap="round" stroke-linejoin="round"/>
<path d="M5.94053 10.7082C5.6969 10.5133 5.52934 10.2391 5.467 9.93342L4.24765 4.33342H4.73367H14.3337L13.267 9.93342C13.2047 10.2391 13.0371 10.5133 12.7935 10.7082C12.5499 10.9031 12.2456 11.0064 11.9337 11.0001H6.80034C6.48841 11.0064 6.18415 10.9031 5.94053 10.7082Z" fill="#41C300" fill-opacity="0.1" stroke="#41C300" stroke-linecap="round" stroke-linejoin="round"/>
</svg>
