<svg width="12" height="12" viewBox="0 0 12 12" fill="none" xmlns="http://www.w3.org/2000/svg">
    <path d="M10.8382 5.40236L8.80884 7.37543L9.28783 10.1616C9.32216 10.3622 9.23902 10.5652 9.07408 10.685C8.98075 10.7527 8.86972 10.7872 8.75869 10.7872C8.67341 10.7872 8.58759 10.7669 8.50901 10.7257L6.0001 9.41028L3.49119 10.7257C3.31043 10.8206 3.09159 10.8046 2.92611 10.6855C2.76118 10.5657 2.67831 10.363 2.7129 10.1621L3.19216 7.37596L1.16223 5.40262C1.01553 5.2606 0.963503 5.04797 1.02599 4.85432C1.08928 4.66068 1.2569 4.51973 1.45912 4.49031L4.26411 4.0835L5.51924 1.54849C5.60908 1.36554 5.79574 1.25 5.99983 1.25C6.20446 1.25 6.39031 1.36554 6.48069 1.54822L7.73582 4.08323L10.5413 4.49004C10.743 4.51919 10.9112 4.66041 10.9734 4.85406C11.0372 5.0477 10.9839 5.26033 10.8382 5.40236Z" fill="#FAAF45"/>
</svg>
